{"glyphs":{"":{"ha":1215,"x_min":0,"x_max":1218,"o":"m 1183 781 q 1206 791 1196 781 q 1215 814 1215 800 l 1215 922 q 1206 945 1215 936 q 1183 955 1196 955 l 1128 955 l 1128 1085 q 1090 1177 1128 1139 q 998 1215 1053 1215 l 130 1215 q 38 1177 76 1215 q 0 1085 0 1139 l 0 -43 q 38 -136 0 -98 q 130 -174 76 -174 l 998 -174 q 1090 -136 1053 -174 q 1128 -43 1128 -98 l 1128 87 l 1183 87 q 1206 96 1196 87 q 1215 119 1215 106 l 1215 228 q 1206 251 1215 241 q 1183 260 1196 260 l 1128 260 l 1128 434 l 1183 434 q 1206 444 1196 434 q 1215 467 1215 453 l 1215 575 q 1206 598 1215 589 q 1183 608 1196 608 l 1128 608 l 1128 781 l 1183 781 m 564 868 q 718 804 654 868 q 781 651 781 741 q 718 498 781 562 q 564 434 654 434 q 411 498 475 434 q 347 651 347 562 q 411 804 347 741 q 564 868 475 868 m 911 239 q 892 193 911 212 q 846 174 873 174 l 282 174 q 236 193 255 174 q 217 239 217 212 l 217 290 q 244 369 217 334 q 315 415 271 404 l 412 439 q 556 391 475 393 q 716 439 643 388 l 814 415 q 884 369 857 404 q 911 290 911 334 l 911 239 z "},"":{"ha":1389,"x_min":0,"x_max":1389,"o":"m 1259 1042 l 130 1042 q 38 1004 76 1042 q 0 911 0 966 l 0 130 q 38 38 0 76 q 130 0 76 0 l 1259 0 q 1351 38 1313 0 q 1389 130 1389 76 l 1389 911 q 1351 1004 1389 966 q 1259 1042 1313 1042 m 477 825 q 612 769 556 825 q 667 635 667 713 q 612 500 667 556 q 477 445 556 445 q 343 500 399 445 q 288 635 288 556 q 343 769 288 713 q 477 825 399 825 m 781 274 q 765 233 781 250 q 724 217 749 217 l 231 217 q 190 233 206 217 q 174 274 174 250 l 174 317 q 198 388 174 358 q 260 429 222 418 l 345 450 q 469 407 399 410 q 610 450 548 404 l 694 429 q 757 388 732 418 q 781 317 781 358 l 781 274 m 1215 380 q 1206 357 1215 366 q 1183 347 1196 347 l 901 347 q 878 357 887 347 q 868 380 868 366 l 868 401 q 878 425 868 415 q 901 434 887 434 l 1183 434 q 1206 425 1196 434 q 1215 401 1215 415 l 1215 380 m 1215 553 q 1206 530 1215 540 q 1183 521 1196 521 l 901 521 q 878 530 887 521 q 868 553 868 540 l 868 575 q 878 598 868 589 q 901 608 887 608 l 1183 608 q 1206 598 1196 608 q 1215 575 1215 589 l 1215 553 m 1215 727 q 1206 704 1215 713 q 1183 694 1196 694 l 901 694 q 878 704 887 694 q 868 727 868 713 l 868 749 q 878 772 868 762 q 901 781 887 781 l 1183 781 q 1206 772 1196 781 q 1215 749 1215 762 l 1215 727 z "},"":{"ha":1389,"x_min":0,"x_max":1370,"o":"m 22 521 q 113 184 22 339 q 358 -61 203 30 q 694 -152 513 -152 q 1031 -61 876 -152 q 1276 184 1185 30 q 1367 521 1367 339 q 1276 857 1367 703 q 1031 1103 1185 1012 q 694 1194 876 1194 q 358 1103 513 1194 q 113 857 203 1012 q 22 521 22 703 m 694 22 l 694 1020 q 945 954 830 1020 q 1127 772 1061 887 q 1194 521 1194 656 q 1127 270 1194 385 q 945 88 1061 155 q 694 22 830 22 z "},"":{"ha":1215,"x_min":0,"x_max":1215,"o":"m 955 1096 l 955 987 q 943 956 955 968 q 911 944 930 944 l 304 944 q 273 956 285 944 q 260 987 260 968 l 260 1096 q 273 1127 260 1115 q 304 1139 285 1139 l 911 1139 q 943 1127 930 1139 q 955 1096 955 1115 m 43 597 l 1172 597 q 1203 609 1191 597 q 1215 640 1215 621 l 1215 749 q 1203 780 1215 768 q 1172 792 1191 792 l 43 792 q 12 780 24 792 q 0 749 0 768 l 0 640 q 12 609 0 621 q 43 597 24 597 m 43 -98 l 1172 -98 q 1203 -85 1191 -98 q 1215 -54 1215 -73 l 1215 54 q 1203 85 1215 73 q 1172 98 1191 98 l 43 98 q 12 85 24 98 q 0 54 0 73 l 0 -54 q 12 -85 0 -73 q 43 -98 24 -98 m 911 445 l 304 445 q 273 433 285 445 q 260 401 260 420 l 260 293 q 273 262 260 274 q 304 250 285 250 l 911 250 q 943 262 930 250 q 955 293 955 274 l 955 401 q 943 433 955 420 q 911 445 930 445 z "},"":{"ha":1215,"x_min":0,"x_max":1218,"o":"m 0 987 l 0 1096 q 12 1127 0 1115 q 43 1139 24 1139 l 1172 1139 q 1203 1127 1191 1139 q 1215 1096 1215 1115 l 1215 987 q 1203 956 1215 968 q 1172 944 1191 944 l 43 944 q 12 956 24 944 q 0 987 0 968 m 43 597 l 1172 597 q 1203 609 1191 597 q 1215 640 1215 621 l 1215 749 q 1203 780 1215 768 q 1172 792 1191 792 l 43 792 q 12 780 24 792 q 0 749 0 768 l 0 640 q 12 609 0 621 q 43 597 24 597 m 43 -98 l 1172 -98 q 1203 -85 1191 -98 q 1215 -54 1215 -73 l 1215 54 q 1203 85 1215 73 q 1172 98 1191 98 l 43 98 q 12 85 24 98 q 0 54 0 73 l 0 -54 q 12 -85 0 -73 q 43 -98 24 -98 m 43 250 l 1172 250 q 1203 262 1191 250 q 1215 293 1215 274 l 1215 401 q 1203 433 1215 420 q 1172 445 1191 445 l 43 445 q 12 433 24 445 q 0 401 0 420 l 0 293 q 12 262 0 274 q 43 250 24 250 z "},"":{"ha":1215,"x_min":0,"x_max":1215,"o":"m 781 1096 l 781 987 q 769 956 781 968 q 738 944 757 944 l 43 944 q 12 956 24 944 q 0 987 0 968 l 0 1096 q 12 1127 0 1115 q 43 1139 24 1139 l 738 1139 q 769 1127 757 1139 q 781 1096 781 1115 m 0 749 l 0 640 q 12 609 0 621 q 43 597 24 597 l 1172 597 q 1203 609 1191 597 q 1215 640 1215 621 l 1215 749 q 1203 780 1215 768 q 1172 792 1191 792 l 43 792 q 12 780 24 792 q 0 749 0 768 m 43 -98 l 1172 -98 q 1203 -85 1191 -98 q 1215 -54 1215 -73 l 1215 54 q 1203 85 1215 73 q 1172 98 1191 98 l 43 98 q 12 85 24 98 q 0 54 0 73 l 0 -54 q 12 -85 0 -73 q 43 -98 24 -98 m 738 445 l 43 445 q 12 433 24 445 q 0 401 0 420 l 0 293 q 12 262 0 274 q 43 250 24 250 l 738 250 q 769 262 757 250 q 781 293 781 274 l 781 401 q 769 433 781 420 q 738 445 757 445 z "},"":{"ha":1215,"x_min":0,"x_max":1218,"o":"m 434 987 l 434 1096 q 446 1127 434 1115 q 477 1139 458 1139 l 1172 1139 q 1203 1127 1191 1139 q 1215 1096 1215 1115 l 1215 987 q 1203 956 1215 968 q 1172 944 1191 944 l 477 944 q 446 956 458 944 q 434 987 434 968 m 43 597 l 1172 597 q 1203 609 1191 597 q 1215 640 1215 621 l 1215 749 q 1203 780 1215 768 q 1172 792 1191 792 l 43 792 q 12 780 24 792 q 0 749 0 768 l 0 640 q 12 609 0 621 q 43 597 24 597 m 43 -98 l 1172 -98 q 1203 -85 1191 -98 q 1215 -54 1215 -73 l 1215 54 q 1203 85 1215 73 q 1172 98 1191 98 l 43 98 q 12 85 24 98 q 0 54 0 73 l 0 -54 q 12 -85 0 -73 q 43 -98 24 -98 m 477 250 l 1172 250 q 1203 262 1191 250 q 1215 293 1215 274 l 1215 401 q 1203 433 1215 420 q 1172 445 1191 445 l 477 445 q 446 433 458 445 q 434 401 434 420 l 434 293 q 446 262 434 274 q 477 250 458 250 z "},"":{"ha":1215,"x_min":-8,"x_max":1218,"o":"m 1128 911 q 1067 886 1093 911 q 1042 825 1042 860 l 1042 629 q 1035 614 1042 621 q 1020 608 1028 608 l 977 608 q 962 614 968 608 q 955 629 955 621 l 955 1042 q 929 1103 955 1077 q 868 1128 903 1128 q 807 1103 833 1128 q 781 1042 781 1077 l 781 629 q 774 614 781 621 q 760 608 768 608 l 716 608 q 701 614 708 608 q 694 629 694 621 l 694 1128 q 669 1190 694 1164 q 608 1215 643 1215 q 547 1190 572 1215 q 521 1128 521 1164 l 521 629 q 514 614 521 621 q 499 608 507 608 l 456 608 q 441 614 448 608 q 434 629 434 621 l 434 1042 q 408 1103 434 1077 q 347 1128 382 1128 q 286 1103 312 1128 q 260 1042 260 1077 l 260 388 l 195 477 q 126 519 171 513 q 45 500 81 526 q 1 430 8 475 q 22 347 -5 385 l 361 -119 q 408 -160 380 -146 q 467 -174 437 -174 l 1004 -174 q 1084 -145 1047 -174 q 1128 -73 1120 -117 l 1202 233 q 1215 347 1215 288 l 1215 825 q 1190 886 1215 860 q 1128 911 1164 911 m 477 87 q 446 99 458 87 q 434 130 434 111 q 446 161 434 149 q 477 174 458 174 q 509 161 496 174 q 521 130 521 149 q 509 99 521 111 q 477 87 496 87 m 477 347 q 446 359 458 347 q 434 391 434 372 q 446 422 434 410 q 477 434 458 434 q 509 422 496 434 q 521 391 521 410 q 509 359 521 372 q 477 347 496 347 m 651 0 q 620 12 632 0 q 608 43 608 24 q 620 75 608 62 q 651 87 632 87 q 682 75 670 87 q 694 43 694 62 q 682 12 694 24 q 651 0 670 0 m 651 260 q 620 273 632 260 q 608 304 608 285 q 620 335 608 323 q 651 347 632 347 q 682 335 670 347 q 694 304 694 323 q 682 273 694 285 q 651 260 670 260 m 825 174 q 793 186 806 174 q 781 217 781 198 q 793 248 781 236 q 825 260 806 260 q 856 248 844 260 q 868 217 868 236 q 856 186 868 198 q 825 174 844 174 m 911 0 q 880 12 892 0 q 868 43 868 24 q 880 75 868 62 q 911 87 892 87 q 943 75 930 87 q 955 43 955 62 q 943 12 955 24 q 911 0 930 0 m 998 347 q 967 359 979 347 q 955 391 955 372 q 967 422 955 410 q 998 434 979 434 q 1029 422 1017 434 q 1042 391 1042 410 q 1029 359 1042 372 q 998 347 1017 347 z "},"":{"ha":1736,"x_min":0,"x_max":1739,"o":"m 1693 260 l 1649 260 l 1649 553 q 1611 646 1649 608 l 1340 917 q 1248 955 1302 955 l 1128 955 l 1128 1085 q 1090 1177 1128 1139 q 998 1215 1053 1215 l 130 1215 q 38 1177 76 1215 q 0 1085 0 1139 l 0 217 q 38 125 0 163 q 130 87 76 87 l 174 87 q 250 -98 174 -22 q 434 -174 326 -174 q 618 -98 543 -174 q 694 87 694 -22 l 1042 87 q 1118 -98 1042 -22 q 1302 -174 1194 -174 q 1487 -98 1411 -174 q 1563 87 1563 -22 l 1693 87 q 1724 99 1712 87 q 1736 130 1736 111 l 1736 217 q 1724 248 1736 236 q 1693 260 1712 260 m 434 -43 q 342 -5 380 -43 q 304 87 304 33 q 342 179 304 141 q 434 217 380 217 q 526 179 488 217 q 564 87 564 141 q 526 -5 564 33 q 434 -43 488 -43 m 825 629 q 818 614 825 621 q 803 608 811 608 l 651 608 l 651 456 q 644 441 651 448 q 629 434 637 434 l 499 434 q 484 441 491 434 q 477 456 477 448 l 477 608 l 326 608 q 311 614 317 608 q 304 629 304 621 l 304 760 q 311 774 304 768 q 326 781 317 781 l 477 781 l 477 933 q 484 948 477 941 q 499 955 491 955 l 629 955 q 644 948 637 955 q 651 933 651 941 l 651 781 l 803 781 q 818 774 811 781 q 825 760 825 768 l 825 629 m 1302 -43 q 1210 -5 1248 -43 q 1172 87 1172 33 q 1210 179 1172 141 q 1302 217 1248 217 q 1394 179 1356 217 q 1432 87 1432 141 q 1394 -5 1432 33 q 1302 -43 1356 -43 m 1519 521 l 1128 521 l 1128 825 l 1248 825 l 1519 553 l 1519 521 z "},"":{"ha":1736,"x_min":-5,"x_max":1742,"o":"m 789 703 q 700 724 746 722 q 613 713 654 727 q 755 677 697 713 q 844 575 814 640 q 841 506 863 540 q 781 472 819 472 q 841 438 819 472 q 844 369 863 404 q 755 269 814 307 q 627 231 697 231 l 372 255 l 190 165 q 152 161 171 155 q 125 184 133 168 l 5 426 q 3 463 -3 445 q 24 491 8 480 l 182 581 l 293 781 q 362 1001 307 898 q 510 1180 418 1104 q 562 1196 532 1199 q 610 1171 591 1194 q 627 1118 629 1147 q 602 1069 624 1088 q 513 971 548 1023 q 713 1047 605 1034 q 768 1034 743 1053 q 796 985 792 1015 q 781 932 800 955 q 732 903 762 909 q 613 863 670 898 q 731 868 667 876 q 852 833 795 860 q 888 791 879 819 q 884 735 898 762 q 842 699 871 708 q 789 703 814 689 m 713 513 q 678 555 703 540 q 627 570 654 570 q 557 541 586 570 q 530 472 529 513 q 560 404 532 431 q 627 377 589 377 q 678 392 654 377 q 713 431 703 407 q 741 461 724 450 q 779 472 757 472 q 741 484 757 472 q 713 513 724 496 m 1731 616 q 1733 579 1739 597 q 1712 551 1728 562 l 1554 461 l 1443 260 q 1374 41 1430 144 q 1226 -138 1318 -62 q 1175 -155 1204 -157 q 1126 -129 1145 -152 q 1109 -76 1107 -106 q 1134 -27 1112 -46 q 1223 71 1188 19 q 1023 -5 1131 8 q 971 7 998 -11 q 940 56 944 24 q 955 110 936 87 q 1004 138 974 133 q 1123 179 1066 144 q 1005 174 1069 165 q 884 209 941 182 q 848 251 857 222 q 852 307 838 279 q 894 343 865 334 q 947 339 922 353 q 1036 316 990 317 q 1123 328 1082 315 q 981 365 1039 328 q 892 467 922 401 q 895 536 873 502 q 955 570 917 570 q 895 604 917 570 q 892 673 873 637 q 981 773 922 735 q 1115 811 1039 811 l 1364 787 l 1546 876 q 1584 880 1565 887 q 1611 857 1603 873 l 1731 616 m 1109 665 q 1058 650 1082 665 q 1023 610 1034 635 q 996 581 1012 591 q 958 570 979 570 q 996 557 979 570 q 1023 526 1012 545 q 1058 487 1034 502 q 1109 472 1082 472 q 1179 500 1150 472 q 1206 570 1207 529 q 1176 637 1204 610 q 1109 665 1147 665 z "},"":{"ha":1563,"x_min":-5,"x_max":1568,"o":"m 35 260 l 122 260 q 255 24 152 127 q 494 -122 353 -71 q 781 -174 635 -174 q 1069 -122 928 -174 q 1308 24 1210 -71 q 1440 260 1411 127 l 1527 260 q 1557 281 1549 260 q 1552 315 1565 301 l 1367 499 q 1345 507 1359 507 q 1324 499 1332 507 l 1139 315 q 1134 281 1126 301 q 1164 260 1142 260 l 1259 260 q 1104 84 1221 155 q 868 5 998 22 l 868 521 l 1009 521 q 1032 530 1023 521 q 1042 553 1042 540 l 1042 662 q 1032 685 1042 675 q 1009 694 1023 694 l 868 694 l 868 708 q 993 803 944 735 q 1042 955 1042 871 q 967 1137 1042 1061 q 784 1215 892 1213 q 598 1141 675 1218 q 521 955 521 1063 q 570 803 521 871 q 694 708 618 735 l 694 694 l 553 694 q 530 685 540 694 q 521 662 521 675 l 521 553 q 530 530 521 540 q 553 521 540 521 l 694 521 l 694 5 q 458 84 564 22 q 304 260 342 155 l 399 260 q 429 281 420 260 q 423 315 437 301 l 239 499 q 217 507 231 507 q 195 499 203 507 l 11 315 q 5 281 -3 301 q 35 260 14 260 m 781 1042 q 842 1016 817 1042 q 868 955 868 990 q 842 894 868 920 q 781 868 817 868 q 720 894 746 868 q 694 955 694 920 q 720 1016 694 990 q 781 1042 746 1042 z "},"":{"ha":868,"x_min":-3,"x_max":871,"o":"m 388 521 l 19 890 q 0 936 0 909 q 19 982 0 963 l 81 1042 q 127 1061 100 1061 q 174 1042 155 1061 l 434 781 l 694 1042 q 741 1061 713 1061 q 787 1042 768 1061 l 849 982 q 868 936 868 963 q 849 890 868 909 l 480 521 q 434 502 461 502 q 388 521 407 502 m 480 0 l 849 369 q 868 415 868 388 q 849 461 868 442 l 787 521 q 741 540 768 540 q 697 521 713 540 l 434 260 l 174 521 q 127 540 155 540 q 81 521 100 540 l 19 461 q 0 415 0 442 q 19 369 0 388 l 388 0 q 434 -19 407 -19 q 480 0 461 -19 z "},"":{"ha":1215,"x_min":0,"x_max":1150,"o":"m 608 567 l 977 936 q 1023 955 996 955 q 1069 936 1050 955 l 1128 873 q 1147 827 1147 854 q 1128 784 1147 800 l 868 521 l 1128 260 q 1147 214 1147 241 q 1128 168 1147 187 l 1069 106 q 1023 87 1050 87 q 977 106 996 87 l 608 475 q 589 521 589 494 q 608 567 589 548 m 87 475 l 456 106 q 502 87 475 87 q 548 106 529 87 l 608 168 q 627 214 627 187 q 608 260 627 241 l 347 521 l 608 781 q 627 827 627 800 q 608 873 627 854 l 548 936 q 502 955 529 955 q 456 936 475 955 l 87 567 q 68 521 68 548 q 87 475 68 494 z "},"":{"ha":1215,"x_min":0,"x_max":1150,"o":"m 608 475 l 239 106 q 193 87 220 87 q 146 106 165 87 l 87 168 q 68 214 68 187 q 87 260 68 241 l 347 521 l 87 781 q 68 827 68 800 q 87 873 68 854 l 146 936 q 193 955 165 955 q 239 936 220 955 l 608 567 q 627 521 627 548 q 608 475 627 494 m 1128 567 l 760 936 q 713 955 741 955 q 667 936 686 955 l 608 873 q 589 827 589 854 q 608 784 589 800 l 868 521 l 608 260 q 589 214 589 241 q 608 168 589 187 l 667 106 q 713 87 686 87 q 760 106 741 87 l 1128 475 q 1147 521 1147 494 q 1128 567 1147 548 z "},"":{"ha":868,"x_min":-3,"x_max":871,"o":"m 480 521 l 849 152 q 868 106 868 133 q 849 60 868 79 l 787 0 q 741 -19 768 -19 q 697 0 713 -19 l 434 260 l 174 0 q 127 -19 155 -19 q 81 0 100 -19 l 19 60 q 0 106 0 79 q 19 152 0 133 l 388 521 q 434 540 407 540 q 480 521 461 540 m 388 1042 l 19 673 q 0 627 0 654 q 19 581 0 600 l 81 521 q 127 502 100 502 q 174 521 155 502 l 434 781 l 694 521 q 741 502 713 502 q 787 521 768 502 l 849 581 q 868 627 868 600 q 849 673 868 654 l 480 1042 q 434 1061 461 1061 q 388 1042 407 1061 z "},"":{"ha":868,"x_min":-3,"x_max":868,"o":"m 388 260 l 19 629 q 0 675 0 648 q 19 722 0 703 l 81 781 q 127 800 100 800 q 174 781 155 800 l 434 521 l 694 781 q 741 800 713 800 q 787 781 768 800 l 849 722 q 868 675 868 703 q 849 629 868 648 l 480 260 q 434 241 461 241 q 388 260 407 241 z "},"":{"ha":694,"x_min":0,"x_max":629,"o":"m 87 567 l 456 936 q 502 955 475 955 q 548 936 529 955 l 608 873 q 627 827 627 854 q 608 784 627 800 l 347 521 l 608 260 q 627 214 627 241 q 608 168 627 187 l 548 106 q 502 87 529 87 q 456 106 475 87 l 87 475 q 68 521 68 494 q 87 567 68 548 z "},"":{"ha":694,"x_min":0,"x_max":629,"o":"m 608 475 l 239 106 q 193 87 220 87 q 146 106 165 87 l 87 168 q 68 214 68 187 q 87 260 68 241 l 347 521 l 87 781 q 68 827 68 800 q 87 873 68 854 l 146 936 q 193 955 165 955 q 239 936 220 955 l 608 567 q 627 521 627 548 q 608 475 627 494 z "},"":{"ha":868,"x_min":-3,"x_max":871,"o":"m 480 781 l 849 412 q 868 366 868 393 q 849 320 868 339 l 787 260 q 741 241 768 241 q 697 260 713 241 l 434 521 l 174 260 q 127 241 155 241 q 81 260 100 241 l 19 320 q 0 366 0 339 q 19 412 0 393 l 388 781 q 434 800 407 800 q 480 781 461 800 z "},"":{"ha":1389,"x_min":0,"x_max":1389,"o":"m 87 0 q 113 -61 87 -35 q 174 -87 138 -87 l 1215 -87 q 1276 -61 1251 -87 q 1302 0 1302 -35 l 1302 781 l 87 781 l 87 0 m 521 575 q 530 598 521 589 q 553 608 540 608 l 836 608 q 859 598 849 608 q 868 575 868 589 l 868 553 q 859 530 868 540 q 836 521 849 521 l 553 521 q 530 530 540 521 q 521 553 521 540 l 521 575 m 1302 1128 l 87 1128 q 26 1103 52 1128 q 0 1042 0 1077 l 0 911 q 12 880 0 892 q 43 868 24 868 l 1345 868 q 1377 880 1364 868 q 1389 911 1389 892 l 1389 1042 q 1363 1103 1389 1077 q 1302 1128 1337 1128 z "},"":{"ha":1389,"x_min":0,"x_max":1367,"o":"m 1367 521 q 1276 184 1367 339 q 1031 -61 1185 30 q 694 -152 876 -152 q 358 -61 513 -152 q 113 184 203 30 q 22 521 22 339 q 113 857 22 703 q 358 1103 203 1012 q 694 1194 513 1194 q 1031 1103 876 1194 q 1276 857 1185 1012 q 1367 521 1367 703 m 575 836 l 575 521 l 382 521 q 353 500 361 521 q 361 467 345 480 l 673 155 q 694 146 681 146 q 716 155 708 146 l 1028 467 q 1036 500 1044 480 q 1006 521 1028 521 l 814 521 l 814 836 q 804 859 814 849 q 781 868 795 868 l 608 868 q 585 859 594 868 q 575 836 575 849 z "},"":{"ha":1389,"x_min":0,"x_max":1367,"o":"m 694 -152 q 358 -61 513 -152 q 113 184 203 30 q 22 521 22 339 q 113 857 22 703 q 358 1103 203 1012 q 694 1194 513 1194 q 1031 1103 876 1194 q 1276 857 1185 1012 q 1367 521 1367 703 q 1276 184 1367 339 q 1031 -61 1185 30 q 694 -152 876 -152 m 1009 640 l 694 640 l 694 833 q 674 863 694 854 q 640 854 654 871 l 328 545 q 320 521 320 534 q 328 499 320 507 l 640 187 q 674 179 654 171 q 694 209 694 187 l 694 401 l 1009 401 q 1032 411 1023 401 q 1042 434 1042 420 l 1042 608 q 1032 631 1042 621 q 1009 640 1023 640 z "},"":{"ha":1389,"x_min":0,"x_max":1367,"o":"m 694 1194 q 1031 1103 876 1194 q 1276 857 1185 1012 q 1367 521 1367 703 q 1276 184 1367 339 q 1031 -61 1185 30 q 694 -152 876 -152 q 358 -61 513 -152 q 113 184 203 30 q 22 521 22 339 q 113 857 22 703 q 358 1103 203 1012 q 694 1194 513 1194 m 380 401 l 694 401 l 694 209 q 715 179 694 187 q 751 187 735 171 l 1061 499 q 1069 521 1069 507 q 1061 543 1069 534 l 751 854 q 715 863 735 871 q 694 833 694 854 l 694 640 l 380 640 q 357 631 366 640 q 347 608 347 621 l 347 434 q 357 411 347 420 q 380 401 366 401 z "},"":{"ha":1389,"x_min":0,"x_max":1367,"o":"m 22 521 q 113 857 22 703 q 358 1103 203 1012 q 694 1194 513 1194 q 1031 1103 876 1194 q 1276 857 1185 1012 q 1367 521 1367 703 q 1276 184 1367 339 q 1031 -61 1185 30 q 694 -152 876 -152 q 358 -61 513 -152 q 113 184 203 30 q 22 521 22 339 m 814 206 l 814 521 l 1006 521 q 1036 541 1028 521 q 1028 578 1044 562 l 719 887 q 694 895 708 895 q 673 887 681 895 l 361 578 q 353 541 345 562 q 382 521 361 521 l 575 521 l 575 206 q 585 183 575 193 q 608 174 594 174 l 781 174 q 804 183 795 174 q 814 206 814 193 z "},"":{"ha":1389,"x_min":0,"x_max":1367,"o":"m 1367 521 q 1276 184 1367 339 q 1031 -61 1185 30 q 694 -152 876 -152 q 358 -61 513 -152 q 113 184 203 30 q 22 521 22 339 q 113 857 22 703 q 358 1103 203 1012 q 694 1194 513 1194 q 1031 1103 876 1194 q 1276 857 1185 1012 q 1367 521 1367 703 m 977 600 l 781 393 l 781 890 q 762 936 781 917 q 716 955 743 955 l 673 955 q 627 936 646 955 q 608 890 608 917 l 608 393 l 412 600 q 365 618 393 618 q 317 600 336 618 l 288 570 q 269 524 269 551 q 288 477 269 496 l 648 119 q 694 100 667 100 q 741 119 722 100 l 1101 477 q 1120 524 1120 496 q 1101 570 1120 551 l 1072 600 q 1024 618 1053 618 q 977 600 996 618 z "},"":{"ha":1389,"x_min":0,"x_max":1367,"o":"m 694 -152 q 358 -61 513 -152 q 113 184 203 30 q 22 521 22 339 q 113 857 22 703 q 358 1103 203 1012 q 694 1194 513 1194 q 1031 1103 876 1194 q 1276 857 1185 1012 q 1367 521 1367 703 q 1276 184 1367 339 q 1031 -61 1185 30 q 694 -152 876 -152 m 773 239 l 567 434 l 1063 434 q 1109 453 1090 434 q 1128 499 1128 472 l 1128 543 q 1109 589 1128 570 q 1063 608 1090 608 l 567 608 l 773 803 q 792 850 792 822 q 773 898 792 879 l 743 928 q 697 947 724 947 q 651 928 670 947 l 293 567 q 274 521 274 548 q 293 475 274 494 l 651 114 q 697 95 670 95 q 743 114 724 95 l 773 144 q 792 191 792 163 q 773 239 792 220 z "},"":{"ha":1389,"x_min":0,"x_max":1367,"o":"m 694 1194 q 1031 1103 876 1194 q 1276 857 1185 1012 q 1367 521 1367 703 q 1276 184 1367 339 q 1031 -61 1185 30 q 694 -152 876 -152 q 358 -61 513 -152 q 113 184 203 30 q 22 521 22 339 q 113 857 22 703 q 358 1103 203 1012 q 694 1194 513 1194 m 616 803 l 822 608 l 326 608 q 279 589 298 608 q 260 543 260 570 l 260 499 q 279 453 260 472 q 326 434 298 434 l 822 434 l 616 239 q 597 191 597 220 q 616 144 597 163 l 646 114 q 692 95 665 95 q 738 114 719 95 l 1096 475 q 1115 521 1115 494 q 1096 567 1115 548 l 738 928 q 692 947 719 947 q 646 928 665 947 l 616 898 q 597 850 597 879 q 616 803 597 822 z "},"":{"ha":1389,"x_min":0,"x_max":1367,"o":"m 22 521 q 113 857 22 703 q 358 1103 203 1012 q 694 1194 513 1194 q 1031 1103 876 1194 q 1276 857 1185 1012 q 1367 521 1367 703 q 1276 184 1367 339 q 1031 -61 1185 30 q 694 -152 876 -152 q 358 -61 513 -152 q 113 184 203 30 q 22 521 22 339 m 412 442 l 608 648 l 608 152 q 627 106 608 125 q 673 87 646 87 l 716 87 q 762 106 743 87 q 781 152 781 125 l 781 648 l 977 442 q 1024 423 996 423 q 1072 442 1053 423 l 1101 472 q 1120 518 1120 491 q 1101 564 1120 545 l 741 922 q 694 941 722 941 q 648 922 667 941 l 288 564 q 269 518 269 545 q 288 472 269 491 l 317 442 q 365 423 336 423 q 412 442 393 423 z "},"":{"ha":1215,"x_min":0,"x_max":1202,"o":"m 1120 613 l 1180 551 q 1199 505 1199 532 q 1180 458 1199 477 l 654 -68 q 608 -87 635 -87 q 562 -68 581 -87 l 35 458 q 16 505 16 477 q 35 551 16 532 l 95 613 q 141 631 114 632 q 187 610 168 629 l 499 285 l 499 1063 q 518 1109 499 1090 q 564 1128 537 1128 l 651 1128 q 697 1109 678 1128 q 716 1063 716 1090 l 716 285 l 1028 610 q 1074 631 1047 629 q 1120 613 1101 632 z "},"":{"ha":1215,"x_min":-3,"x_max":1215,"o":"m 700 8 l 637 -52 q 591 -71 618 -71 q 545 -52 564 -71 l 19 475 q 0 521 0 494 q 19 567 0 548 l 545 1093 q 591 1112 564 1112 q 637 1093 618 1112 l 700 1034 q 718 987 719 1015 q 697 941 716 960 l 372 629 l 1150 629 q 1196 610 1177 629 q 1215 564 1215 591 l 1215 477 q 1196 431 1215 450 q 1150 412 1177 412 l 372 412 l 697 100 q 718 54 716 81 q 700 8 719 27 z "},"":{"ha":1215,"x_min":0,"x_max":1218,"o":"m 518 1034 l 578 1093 q 624 1112 597 1112 q 670 1093 651 1112 l 1196 567 q 1215 521 1215 548 q 1196 475 1215 494 l 670 -52 q 624 -71 651 -71 q 578 -52 597 -71 l 518 8 q 498 54 496 27 q 518 100 499 81 l 844 412 l 65 412 q 19 431 38 412 q 0 477 0 450 l 0 564 q 19 610 0 591 q 65 629 38 629 l 844 629 l 518 941 q 498 987 499 960 q 518 1034 496 1015 z "},"":{"ha":1215,"x_min":0,"x_max":1202,"o":"m 95 431 l 35 491 q 16 537 16 510 q 35 583 16 564 l 562 1109 q 608 1128 581 1128 q 654 1109 635 1128 l 1180 583 q 1199 537 1199 564 q 1180 491 1199 510 l 1120 431 q 1074 411 1101 410 q 1028 431 1047 412 l 716 757 l 716 -22 q 697 -68 716 -49 q 651 -87 678 -87 l 564 -87 q 518 -68 537 -87 q 499 -22 499 -49 l 499 757 l 187 431 q 141 411 168 412 q 95 431 114 410 z "},"":{"ha":1389,"x_min":-3,"x_max":1392,"o":"m 1025 754 l 1025 629 l 363 629 l 363 754 q 345 800 363 781 q 298 819 326 819 q 252 800 271 819 l 19 567 q 0 521 0 548 q 19 475 0 494 l 252 241 q 298 222 271 222 q 345 241 326 222 q 363 288 363 260 l 363 412 l 1025 412 l 1025 288 q 1044 241 1025 260 q 1090 222 1063 222 q 1137 241 1118 222 l 1370 475 q 1389 521 1389 494 q 1370 567 1389 548 l 1137 800 q 1090 819 1118 819 q 1044 800 1063 819 q 1025 754 1025 781 z "},"":{"ha":694,"x_min":0,"x_max":648,"o":"m 581 190 l 456 190 l 456 852 l 581 852 q 627 871 608 852 q 646 917 646 890 q 627 963 646 944 l 393 1196 q 347 1215 374 1215 q 301 1196 320 1215 l 68 963 q 49 917 49 944 q 68 871 49 890 q 114 852 87 852 l 239 852 l 239 190 l 114 190 q 68 171 87 190 q 49 125 49 152 q 68 79 49 98 l 301 -155 q 347 -174 320 -174 q 393 -155 374 -174 l 627 79 q 646 125 646 98 q 627 171 646 152 q 581 190 608 190 z "},"":{"ha":1389,"x_min":-3,"x_max":1389,"o":"m 955 60 l 741 -155 q 694 -174 722 -174 q 648 -155 667 -174 l 434 60 q 415 107 415 81 q 434 152 415 133 q 480 171 453 171 l 618 171 l 618 445 l 345 445 l 345 307 q 326 260 345 279 q 281 241 307 241 q 233 260 255 241 l 19 475 q 0 521 0 494 q 19 567 0 548 l 233 781 q 281 802 255 803 q 326 783 307 800 q 345 735 345 765 l 345 597 l 618 597 l 618 871 l 480 871 q 433 890 450 871 q 414 935 415 909 q 434 982 412 960 l 648 1196 q 694 1215 667 1215 q 741 1196 722 1215 l 955 982 q 974 935 974 960 q 955 890 974 909 q 909 871 936 871 l 770 871 l 770 597 l 1044 597 l 1044 735 q 1063 781 1044 762 q 1108 800 1082 800 q 1156 781 1134 800 l 1370 567 q 1389 521 1389 548 q 1370 475 1389 494 l 1156 260 q 1108 240 1134 239 q 1063 259 1082 241 q 1044 307 1044 277 l 1044 445 l 770 445 l 770 171 l 909 171 q 956 152 939 171 q 975 107 974 133 q 955 60 977 81 z "},"":{"ha":1389,"x_min":-3,"x_max":1392,"o":"m 586 510 q 564 456 586 477 q 510 434 543 434 q 456 456 477 434 q 434 510 434 477 q 498 663 434 600 q 651 727 562 727 q 804 663 741 727 q 868 510 868 600 q 846 456 868 477 q 792 434 825 434 q 738 456 760 434 q 716 507 716 477 q 697 556 716 537 q 651 575 678 575 q 605 556 624 575 q 586 510 586 537 m 651 987 q 411 924 521 987 q 237 750 301 860 q 174 510 174 640 q 195 456 174 477 q 250 434 217 434 q 304 456 282 434 q 326 510 326 477 q 369 674 326 600 q 487 792 412 749 q 651 836 562 836 q 815 792 741 836 q 933 674 890 749 q 977 510 977 600 q 947 391 977 442 q 879 313 928 361 q 811 236 830 266 q 781 119 781 187 l 781 119 q 741 19 781 60 q 640 -22 700 -22 q 586 -43 608 -22 q 564 -98 564 -65 q 586 -152 564 -130 q 640 -174 608 -174 q 787 -134 719 -174 q 894 -27 854 -95 q 933 119 933 41 q 952 168 933 141 q 996 214 963 182 q 1082 323 1058 277 q 1128 510 1128 401 q 1065 750 1128 640 q 891 924 1001 860 q 651 987 781 987 m 434 347 q 373 321 399 347 q 347 260 347 296 q 373 199 347 225 q 434 174 399 174 q 495 199 469 174 q 521 260 521 225 q 495 321 521 296 q 434 347 469 347 m 87 0 q 26 -26 52 0 q 0 -87 0 -52 q 26 -148 0 -122 q 87 -174 52 -174 q 148 -148 122 -174 q 174 -87 174 -122 q 148 -26 174 -52 q 87 0 122 0 m 1389 510 q 1389 524 1389 515 q 1322 815 1386 675 q 1147 1058 1259 955 q 890 1210 1036 1161 q 831 1207 860 1221 q 793 1164 803 1194 q 798 1105 784 1134 q 841 1066 811 1077 q 1124 856 1015 1006 q 1237 521 1234 705 l 1237 510 q 1259 456 1237 477 q 1313 434 1280 434 q 1367 456 1345 434 q 1389 510 1389 477 m 415 24 l 198 241 l 106 149 l 323 -68 l 415 24 z "},"":{"ha":1389,"x_min":0,"x_max":1337,"o":"m 1297 309 l 911 521 l 1297 732 q 1328 772 1321 746 q 1321 822 1335 798 l 1270 914 q 1229 945 1256 939 q 1180 936 1202 952 l 803 708 l 811 1147 q 795 1196 814 1177 q 746 1215 776 1215 l 643 1215 q 594 1196 613 1215 q 578 1147 575 1177 l 586 708 l 209 936 q 160 945 187 952 q 119 914 133 939 l 68 822 q 61 772 54 798 q 92 732 68 746 l 477 521 l 92 309 q 61 270 68 296 q 68 220 54 244 l 119 127 q 160 96 133 103 q 209 106 187 90 l 586 334 l 578 -106 q 594 -155 575 -136 q 643 -174 613 -174 l 746 -174 q 795 -155 776 -174 q 811 -106 814 -136 l 803 334 l 1180 106 q 1229 96 1202 90 q 1270 127 1256 103 l 1321 220 q 1328 270 1335 244 q 1297 309 1321 296 z "},"":{"ha":1389,"x_min":0,"x_max":1367,"o":"m 694 1194 q 358 1103 513 1194 q 113 857 203 1012 q 22 521 22 703 q 113 184 22 339 q 358 -61 203 30 q 694 -152 513 -152 q 1061 -43 895 -152 q 1090 1 1085 -27 q 1077 54 1096 30 l 1050 87 q 1009 110 1034 106 q 963 100 985 114 q 694 22 841 22 q 445 90 559 22 q 263 271 331 157 q 195 521 195 385 q 263 770 195 656 q 445 952 331 884 q 696 1020 559 1020 q 947 968 833 1020 q 1126 822 1061 917 q 1194 586 1194 722 q 1153 437 1194 502 q 1036 358 1107 366 q 996 382 1004 361 q 998 439 990 399 l 1063 768 q 1050 823 1069 800 q 998 846 1031 846 l 876 846 q 852 837 863 846 q 841 814 841 827 l 841 814 q 678 873 792 873 q 491 821 578 873 q 354 674 404 768 q 304 461 304 581 q 374 251 304 328 q 564 174 445 174 q 675 203 618 174 q 768 279 732 233 q 844 198 784 217 q 960 187 876 187 l 960 187 q 1275 309 1166 187 q 1367 586 1367 415 q 1275 909 1367 768 q 1035 1118 1188 1042 q 694 1194 882 1194 m 635 369 q 564 397 591 369 q 537 477 537 426 q 589 624 537 564 q 697 675 635 675 q 768 646 743 675 q 792 562 792 616 q 768 458 792 507 q 707 393 743 418 q 635 369 670 369 z "},"":{"ha":1389,"x_min":0,"x_max":1389,"o":"m 442 567 l 467 486 l 396 486 l 420 567 l 431 610 l 442 567 m 892 654 l 854 654 l 854 388 l 892 388 q 987 422 955 388 q 1020 521 1020 456 q 986 620 1020 586 q 892 654 952 654 m 1389 911 l 1389 130 q 1351 38 1389 76 q 1259 0 1313 0 l 130 0 q 38 38 76 0 q 0 130 0 76 l 0 911 q 38 1004 0 966 q 130 1042 76 1042 l 1259 1042 q 1351 1004 1313 1042 q 1389 911 1389 966 m 665 304 l 510 760 q 480 781 505 781 l 382 781 q 353 760 361 781 l 198 304 q 202 274 193 288 q 228 260 212 260 l 307 260 q 327 267 317 260 q 339 285 336 274 l 361 366 l 502 366 l 524 285 q 556 260 532 260 l 635 260 q 661 274 651 260 q 665 304 670 288 m 1166 521 q 1095 712 1166 643 q 898 781 1023 781 l 743 781 q 720 772 730 781 q 711 749 711 762 l 711 293 q 720 270 711 279 q 743 260 730 260 l 898 260 q 1095 331 1023 260 q 1166 521 1166 401 z "},"":{"ha":1389,"x_min":0,"x_max":1389,"o":"m 33 453 l 553 19 q 612 0 578 -3 q 670 27 646 3 q 694 87 694 52 l 694 955 q 670 1015 694 990 q 612 1042 646 1039 q 553 1023 578 1044 l 33 589 q 0 521 0 562 q 30 453 0 480 l 33 453 m 727 453 l 1248 19 q 1306 0 1272 -3 q 1364 27 1340 3 q 1389 87 1389 52 l 1389 955 q 1364 1015 1389 990 q 1306 1042 1340 1039 q 1248 1023 1272 1044 l 727 589 q 694 521 694 562 q 727 453 694 480 z "},"":{"ha":1736,"x_min":-3,"x_max":1736,"o":"m 955 0 l 1411 0 q 1457 -19 1438 0 q 1476 -65 1476 -38 l 1476 -109 q 1457 -155 1476 -136 q 1411 -174 1438 -174 l 326 -174 q 279 -155 298 -174 q 260 -109 260 -136 l 260 -65 q 279 -19 260 -38 q 326 0 298 0 l 781 0 l 781 800 q 700 861 732 819 q 656 955 667 903 l 326 955 q 279 974 298 955 q 260 1020 260 993 l 260 1063 q 279 1109 260 1090 q 326 1128 298 1128 l 694 1128 q 770 1192 724 1169 q 868 1215 817 1215 q 966 1192 920 1215 q 1042 1128 1012 1169 l 1411 1128 q 1457 1109 1438 1128 q 1476 1063 1476 1090 l 1476 1020 q 1457 974 1476 993 q 1411 955 1438 955 l 1080 955 q 1036 861 1069 903 q 955 800 1004 819 l 955 0 m 1736 304 q 1736 307 1736 304 q 1723 361 1736 331 q 1630 545 1709 391 l 1506 798 q 1435 860 1481 844 q 1343 860 1389 876 q 1272 798 1297 844 l 1150 553 q 1055 359 1069 391 q 1042 307 1042 328 l 1042 304 q 1088 195 1042 244 q 1214 117 1134 146 q 1389 87 1294 87 q 1564 117 1484 87 q 1690 195 1644 146 q 1736 304 1736 244 l 1736 304 m 1389 738 l 1584 347 l 1194 347 l 1389 738 m 694 304 q 694 307 694 304 q 681 361 694 331 q 589 545 667 391 l 464 798 q 393 860 439 844 q 301 860 347 876 q 231 798 255 844 l 109 553 q 14 359 27 391 q 0 307 0 328 l 0 304 q 46 195 0 244 q 172 117 92 146 q 347 87 252 87 q 522 117 442 87 q 648 195 602 146 q 694 304 694 244 l 694 304 m 347 738 l 543 347 l 152 347 l 347 738 z "},"":{"ha":1389,"x_min":0,"x_max":1367,"o":"m 694 1194 q 358 1103 513 1194 q 113 857 203 1012 q 22 521 22 703 q 113 184 22 339 q 358 -61 203 30 q 694 -152 513 -152 q 1031 -61 876 -152 q 1276 184 1185 30 q 1367 521 1367 339 q 1276 857 1367 703 q 1031 1103 1185 1012 q 694 1194 876 1194 m 1047 873 q 1169 674 1134 787 q 1187 445 1204 562 q 1104 233 1169 328 l 407 930 q 618 1013 502 996 q 848 996 735 1031 q 1047 873 960 960 m 342 168 q 220 368 255 255 q 202 597 184 480 q 285 808 220 713 l 982 111 q 770 28 887 46 q 541 46 654 11 q 342 168 429 81 z "},"":{"ha":1736,"x_min":0,"x_max":1739,"o":"m 0 781 l 0 260 q 52 138 0 190 q 174 87 103 87 l 434 87 l 434 955 l 174 955 q 52 903 103 955 q 0 781 0 852 m 1563 955 l 1302 955 l 1302 87 l 1563 87 q 1685 138 1633 87 q 1736 260 1736 190 l 1736 781 q 1685 903 1736 852 q 1563 955 1633 955 m 521 87 l 1215 87 l 1215 955 l 521 955 l 521 87 m 998 716 q 1044 697 1025 716 q 1063 651 1063 678 q 1044 605 1063 624 q 998 586 1025 586 q 952 605 971 586 q 933 651 933 624 q 952 697 933 678 q 998 716 971 716 m 998 456 q 1044 437 1025 456 q 1063 391 1063 418 q 1044 345 1063 363 q 998 326 1025 326 q 952 345 971 326 q 933 391 933 363 q 952 437 933 418 q 998 456 971 456 m 738 716 q 784 697 765 716 q 803 651 803 678 q 784 605 803 624 q 738 586 765 586 q 692 605 711 586 q 673 651 673 624 q 692 697 673 678 q 738 716 711 716 m 738 456 q 784 437 765 456 q 803 391 803 418 q 784 345 803 363 q 738 326 765 326 q 692 345 711 326 q 673 391 673 363 q 692 437 673 418 q 738 456 711 456 z "},"":{"ha":1389,"x_min":0,"x_max":1389,"o":"m 0 0 l 0 1042 l 49 1042 l 49 0 l 0 0 m 73 0 l 73 1042 l 98 1042 l 98 0 l 73 0 m 146 0 l 146 1042 l 171 1042 l 171 0 l 146 0 m 269 0 l 269 1042 l 293 1042 l 293 0 l 269 0 m 366 0 l 366 1042 l 415 1042 l 415 0 l 366 0 m 488 0 l 488 1042 l 513 1042 l 513 0 l 488 0 m 537 0 l 537 1042 l 562 1042 l 562 0 l 537 0 m 586 0 l 586 1042 l 610 1042 l 610 0 l 586 0 m 681 0 l 681 1042 l 730 1042 l 730 0 l 681 0 m 803 0 l 803 1042 l 852 1042 l 852 0 l 803 0 m 901 0 l 901 1042 l 949 1042 l 949 0 l 901 0 m 998 0 l 998 1042 l 1047 1042 l 1047 0 l 998 0 m 1072 0 l 1072 1042 l 1120 1042 l 1120 0 l 1072 0 m 1194 0 l 1194 1042 l 1267 1042 l 1267 0 l 1194 0 m 1291 0 l 1291 1042 l 1316 1042 l 1316 0 l 1291 0 m 1340 0 l 1340 1042 l 1389 1042 l 1389 0 l 1340 0 z "},"":{"ha":1215,"x_min":0,"x_max":1215,"o":"m 43 857 l 1172 857 q 1203 869 1191 857 q 1215 901 1215 882 l 1215 1009 q 1203 1040 1215 1028 q 1172 1053 1191 1053 l 43 1053 q 12 1040 24 1053 q 0 1009 0 1028 l 0 901 q 12 869 0 882 q 43 857 24 857 m 43 423 l 1172 423 q 1203 435 1191 423 q 1215 467 1215 448 l 1215 575 q 1203 606 1215 594 q 1172 618 1191 618 l 43 618 q 12 606 24 618 q 0 575 0 594 l 0 467 q 12 435 0 448 q 43 423 24 423 m 43 -11 l 1172 -11 q 1203 1 1191 -11 q 1215 33 1215 14 l 1215 141 q 1203 172 1215 160 q 1172 184 1191 184 l 43 184 q 12 172 24 184 q 0 141 0 160 l 0 33 q 12 1 0 14 q 43 -11 24 -11 z "},"":{"ha":1345,"x_min":-3,"x_max":1345,"o":"m 1001 228 l 1077 266 q 1196 100 1123 174 q 1306 297 1267 190 q 1345 521 1345 404 q 1308 745 1345 637 q 1199 941 1270 852 q 1080 779 1123 868 l 1001 817 q 1139 1004 1053 920 q 926 1143 1047 1093 q 673 1194 806 1194 q 419 1143 540 1194 q 206 1004 298 1093 q 345 819 293 922 l 266 779 q 146 941 222 868 q 38 745 76 852 q 0 521 0 637 q 38 297 0 404 q 146 100 76 190 q 269 266 222 176 l 347 228 q 206 38 293 122 q 419 -102 298 -52 q 673 -152 540 -152 q 926 -102 806 -152 q 1139 38 1047 -52 q 998 228 1050 122 l 1001 228 m 380 315 l 298 342 q 326 529 328 434 q 296 705 323 621 l 380 732 q 412 532 410 635 q 380 315 415 420 m 968 732 l 1050 705 q 1020 529 1023 618 q 1047 339 1017 431 l 966 315 q 933 532 930 420 q 966 730 936 635 l 968 732 z "},"":{"ha":1345,"x_min":0,"x_max":1345,"o":"m 575 1188 q 244 1042 388 1161 l 456 833 q 575 1188 570 979 m 673 613 l 1101 1042 q 705 1194 930 1183 q 663 947 703 1063 q 548 738 624 830 l 673 613 m 152 949 q 5 618 33 806 q 363 741 214 624 l 152 949 m 890 396 q 1099 510 982 469 q 1345 553 1215 551 q 1194 949 1335 779 l 765 521 l 890 396 m 673 429 l 244 0 q 430 -109 328 -71 q 640 -152 532 -146 q 684 95 643 -22 q 798 304 724 212 l 673 429 m 1194 92 q 1340 423 1313 236 q 982 304 1131 418 l 1194 92 m 456 646 q 247 529 363 570 q 0 488 130 488 q 152 92 11 263 l 581 521 l 456 646 m 770 -146 q 1101 0 958 -119 l 892 212 q 770 -146 776 62 z "},"":{"ha":1389,"x_min":0,"x_max":1392,"o":"m 1324 521 l 217 521 l 217 911 q 243 972 217 947 q 304 998 269 998 q 377 958 353 998 q 347 842 342 906 q 396 732 353 779 q 388 711 388 724 q 396 689 388 697 l 429 656 q 450 648 437 648 q 475 656 464 648 l 732 914 q 741 939 741 925 q 732 960 741 952 l 700 993 q 678 1001 692 1001 q 656 993 665 1001 q 574 1036 621 1025 q 483 1036 526 1047 q 406 1103 453 1077 q 304 1128 358 1128 q 151 1065 214 1128 q 87 911 87 1001 l 87 521 l 65 521 q 19 502 38 521 q 0 456 0 483 l 0 412 q 19 366 0 385 q 65 347 38 347 l 87 347 l 87 260 q 110 153 87 203 q 174 65 133 103 l 174 -22 q 193 -68 174 -49 q 239 -87 212 -87 l 282 -87 q 328 -68 309 -87 q 347 -22 347 -49 l 347 0 l 1042 0 l 1042 -22 q 1061 -68 1042 -49 q 1107 -87 1080 -87 l 1150 -87 q 1196 -68 1177 -87 q 1215 -22 1215 -49 l 1215 65 q 1279 153 1256 103 q 1302 260 1302 203 l 1302 347 l 1324 347 q 1370 366 1351 347 q 1389 412 1389 385 l 1389 456 q 1370 502 1389 483 q 1324 521 1351 521 z "},"":{"ha":1736,"x_min":0,"x_max":1739,"o":"m 1476 781 l 1476 608 l 1563 608 l 1563 434 l 1476 434 l 1476 260 l 174 260 l 174 781 l 1476 781 m 1519 955 l 130 955 q 38 917 76 955 q 0 825 0 879 l 0 217 q 38 125 0 163 q 130 87 76 87 l 1519 87 q 1611 125 1573 87 q 1649 217 1649 163 l 1649 260 l 1671 260 q 1717 279 1698 260 q 1736 326 1736 298 l 1736 716 q 1717 762 1736 743 q 1671 781 1698 781 l 1649 781 l 1649 825 q 1611 917 1649 879 q 1519 955 1573 955 z "},"":{"ha":1736,"x_min":0,"x_max":1739,"o":"m 1476 781 l 1476 608 l 1563 608 l 1563 434 l 1476 434 l 1476 260 l 174 260 l 174 781 l 1476 781 m 1519 955 l 130 955 q 38 917 76 955 q 0 825 0 879 l 0 217 q 38 125 0 163 q 130 87 76 87 l 1519 87 q 1611 125 1573 87 q 1649 217 1649 163 l 1649 260 l 1671 260 q 1717 279 1698 260 q 1736 326 1736 298 l 1736 716 q 1717 762 1736 743 q 1671 781 1698 781 l 1649 781 l 1649 825 q 1611 917 1649 879 q 1519 955 1573 955 m 1389 694 l 260 694 l 260 347 l 1389 347 l 1389 694 z "},"":{"ha":1736,"x_min":0,"x_max":1739,"o":"m 1476 781 l 1476 608 l 1563 608 l 1563 434 l 1476 434 l 1476 260 l 174 260 l 174 781 l 1476 781 m 1519 955 l 130 955 q 38 917 76 955 q 0 825 0 879 l 0 217 q 38 125 0 163 q 130 87 76 87 l 1519 87 q 1611 125 1573 87 q 1649 217 1649 163 l 1649 260 l 1671 260 q 1717 279 1698 260 q 1736 326 1736 298 l 1736 716 q 1717 762 1736 743 q 1671 781 1698 781 l 1649 781 l 1649 825 q 1611 917 1649 879 q 1519 955 1573 955 m 868 694 l 260 694 l 260 347 l 868 347 l 868 694 z "},"":{"ha":1736,"x_min":0,"x_max":1739,"o":"m 1476 781 l 1476 608 l 1563 608 l 1563 434 l 1476 434 l 1476 260 l 174 260 l 174 781 l 1476 781 m 1519 955 l 130 955 q 38 917 76 955 q 0 825 0 879 l 0 217 q 38 125 0 163 q 130 87 76 87 l 1519 87 q 1611 125 1573 87 q 1649 217 1649 163 l 1649 260 l 1671 260 q 1717 279 1698 260 q 1736 326 1736 298 l 1736 716 q 1717 762 1736 743 q 1671 781 1698 781 l 1649 781 l 1649 825 q 1611 917 1649 879 q 1519 955 1573 955 m 608 694 l 260 694 l 260 347 l 608 347 l 608 694 z "},"":{"ha":1736,"x_min":0,"x_max":1739,"o":"m 1476 781 l 1476 608 l 1563 608 l 1563 434 l 1476 434 l 1476 260 l 174 260 l 174 781 l 1476 781 m 1519 955 l 130 955 q 38 917 76 955 q 0 825 0 879 l 0 217 q 38 125 0 163 q 130 87 76 87 l 1519 87 q 1611 125 1573 87 q 1649 217 1649 163 l 1649 260 l 1671 260 q 1717 279 1698 260 q 1736 326 1736 298 l 1736 716 q 1717 762 1736 743 q 1671 781 1698 781 l 1649 781 l 1649 825 q 1611 917 1649 879 q 1519 955 1573 955 m 1128 694 l 260 694 l 260 347 l 1128 347 l 1128 694 z "},"":{"ha":1563,"x_min":0,"x_max":1565,"o":"m 1497 434 q 1544 415 1525 434 q 1563 369 1563 396 l 1563 0 l 1302 0 l 1302 174 l 260 174 l 260 0 l 0 0 l 0 977 q 19 1023 0 1004 q 65 1042 38 1042 l 195 1042 q 241 1023 222 1042 q 260 977 260 1004 l 260 434 l 1497 434 m 521 955 q 368 891 431 955 q 304 738 304 827 q 368 585 304 648 q 521 521 431 521 q 674 585 610 521 q 738 738 738 648 q 674 891 738 827 q 521 955 610 955 m 1563 608 q 1487 792 1563 716 q 1302 868 1411 868 l 846 868 q 800 849 819 868 q 781 803 781 830 l 781 521 l 1563 521 l 1563 608 z "},"":{"ha":1215,"x_min":0,"x_max":1218,"o":"m 998 955 l 868 955 l 868 1063 q 849 1109 868 1090 q 803 1128 830 1128 l 65 1128 q 19 1109 38 1128 q 0 1063 0 1090 l 0 -22 q 19 -68 0 -49 q 65 -87 38 -87 l 803 -87 q 849 -68 830 -87 q 868 -22 868 -49 l 868 92 l 1088 190 q 1180 270 1145 217 q 1215 388 1215 323 l 1215 738 q 1152 891 1215 827 q 998 955 1088 955 m 1042 388 q 1017 350 1042 361 l 868 282 l 868 781 l 998 781 q 1029 769 1017 781 q 1042 738 1042 757 l 1042 388 m 564 174 q 533 186 545 174 q 521 217 521 198 l 521 825 q 533 856 521 844 q 564 868 545 868 q 595 856 583 868 q 608 825 608 844 l 608 217 q 595 186 608 198 q 564 174 583 174 m 304 174 q 273 186 285 174 q 260 217 260 198 l 260 825 q 273 856 260 844 q 304 868 285 868 q 335 856 323 868 q 347 825 347 844 l 347 217 q 335 186 347 198 q 304 174 323 174 z "},"":{"ha":1563,"x_min":-3,"x_max":1565,"o":"m 212 222 q 174 129 174 182 q 210 38 174 76 q 304 0 247 0 l 608 0 q 658 -123 608 -73 q 781 -174 708 -174 q 905 -123 854 -174 q 955 0 955 -73 l 1044 0 l 347 616 q 323 410 345 494 q 271 290 304 339 q 212 222 252 263 m 716 0 q 735 -46 716 -27 q 781 -65 754 -65 q 796 -72 789 -65 q 803 -87 803 -79 q 796 -102 803 -95 q 781 -109 789 -109 q 704 -77 735 -109 q 673 0 673 -46 l 716 0 m 1546 -119 l 1516 -152 q 1470 -174 1497 -171 q 1424 -157 1443 -176 l 22 1069 q 0 1112 3 1085 q 16 1161 -3 1139 l 46 1194 q 92 1215 65 1213 q 138 1199 119 1218 l 448 928 q 564 1027 496 987 q 711 1080 632 1066 q 694 1128 694 1101 q 720 1190 694 1164 q 781 1215 746 1215 q 842 1190 817 1215 q 868 1128 868 1164 q 852 1080 868 1101 q 1038 1002 955 1063 q 1168 849 1120 941 q 1215 651 1215 757 q 1237 423 1215 515 q 1289 296 1256 347 q 1351 222 1308 263 q 1386 109 1400 174 l 1541 -27 q 1563 -71 1560 -43 q 1546 -119 1565 -98 z "},"":{"ha":1215,"x_min":-3,"x_max":1218,"o":"m 1177 222 q 1115 296 1134 263 q 1063 423 1082 347 q 1042 651 1042 515 q 994 849 1042 757 q 864 1002 947 941 q 678 1080 781 1063 q 694 1128 694 1101 q 669 1190 694 1164 q 608 1215 643 1215 q 547 1190 572 1215 q 521 1128 521 1164 q 537 1080 521 1101 q 351 1002 434 1063 q 221 849 269 941 q 174 651 174 757 q 152 423 174 515 q 100 296 133 347 q 41 222 81 263 q 0 129 0 182 q 37 38 0 76 q 130 0 73 0 l 434 0 q 484 -123 434 -73 q 608 -174 534 -174 q 731 -123 681 -174 q 781 0 781 -73 l 1085 0 q 1179 38 1142 0 q 1215 129 1215 76 q 1177 222 1215 182 m 608 -65 q 623 -72 616 -65 q 629 -87 629 -79 q 623 -102 629 -95 q 608 -109 616 -109 q 530 -77 562 -109 q 499 0 499 -46 l 543 0 q 562 -46 543 -27 q 608 -65 581 -65 z "},"":{"ha":1736,"x_min":-3,"x_max":1739,"o":"m 1392 694 q 1264 673 1324 694 l 1053 1012 q 998 1042 1034 1042 l 825 1042 q 793 1029 806 1042 q 781 998 781 1017 l 781 955 q 793 924 781 936 q 825 911 806 911 l 963 911 l 1004 846 l 694 846 l 694 890 q 682 921 694 909 q 651 933 670 933 l 415 933 q 366 914 385 933 q 347 868 347 895 q 366 822 347 841 q 412 803 385 803 l 545 803 l 464 673 q 347 694 410 694 q 175 648 255 694 q 47 522 95 602 q 0 349 0 442 q 46 175 0 255 q 172 47 92 95 q 347 0 252 0 q 560 73 467 0 q 684 260 654 146 l 825 260 q 879 290 860 260 l 1112 667 l 1153 602 q 1072 487 1101 553 q 1042 347 1042 420 q 1089 175 1042 255 q 1215 47 1137 95 q 1386 0 1294 0 q 1558 45 1478 0 q 1686 168 1638 90 q 1736 342 1733 247 q 1691 518 1739 437 q 1564 647 1644 600 q 1392 694 1484 694 m 507 494 q 559 391 548 450 l 442 391 l 507 494 m 347 130 q 194 194 258 130 q 130 347 130 258 q 194 500 130 437 q 347 564 258 564 q 393 559 372 564 l 271 361 q 269 294 250 328 q 326 260 288 260 l 545 260 q 467 165 521 201 q 347 130 412 130 m 789 391 l 692 391 q 578 608 675 521 l 643 716 l 990 716 l 789 391 m 1378 130 q 1234 195 1294 136 q 1172 339 1175 255 q 1223 488 1169 423 l 1345 296 q 1371 275 1354 279 q 1405 279 1389 271 l 1440 304 q 1461 330 1457 312 q 1457 363 1465 347 l 1335 559 q 1389 564 1362 564 q 1542 500 1478 564 q 1606 346 1606 437 q 1538 190 1606 255 q 1378 130 1470 125 z "},"":{"ha":1389,"x_min":0,"x_max":1392,"o":"m 521 933 l 260 933 l 260 1063 q 279 1109 260 1090 q 326 1128 298 1128 l 456 1128 q 502 1109 483 1128 q 521 1063 521 1090 l 521 933 m 1128 1063 q 1109 1109 1128 1090 q 1063 1128 1090 1128 l 933 1128 q 887 1109 906 1128 q 868 1063 868 1090 l 868 933 l 1128 933 l 1128 1063 m 0 -22 q 19 -68 0 -49 q 65 -87 38 -87 l 391 -87 q 437 -68 418 -87 q 456 -22 456 -49 l 456 22 l 0 22 l 0 -22 m 239 868 q 193 849 212 868 q 174 803 174 830 q 149 640 174 716 q 98 507 136 591 q 30 339 49 404 q 0 87 0 228 l 456 87 l 456 369 q 475 415 456 396 q 521 434 494 434 l 521 868 l 239 868 m 933 -22 q 952 -68 933 -49 q 998 -87 971 -87 l 1324 -87 q 1370 -68 1351 -87 q 1389 -22 1389 -49 l 1389 22 l 933 22 l 933 -22 m 586 868 l 586 434 l 803 434 l 803 868 l 586 868 m 933 87 l 1389 87 q 1359 339 1389 228 q 1291 507 1340 404 q 1240 640 1253 591 q 1215 803 1215 716 q 1196 849 1215 830 q 1150 868 1177 868 l 868 868 l 868 434 q 914 415 895 434 q 933 369 933 396 l 933 87 z "},"":{"ha":1215,"x_min":-3,"x_max":1215,"o":"m 1215 174 q 1172 184 1194 174 q 1139 209 1161 193 q 1090 244 1109 233 q 1013 260 1055 260 q 936 244 971 260 q 887 209 917 233 q 852 184 865 193 q 811 174 833 174 q 768 184 789 174 q 732 209 757 190 q 684 244 705 233 q 608 260 651 260 q 532 244 564 260 q 483 209 513 233 q 448 184 458 190 q 406 174 429 174 q 363 184 382 174 q 328 209 350 193 q 279 244 298 233 q 203 260 247 260 q 125 244 160 260 q 76 209 106 233 q 43 184 54 193 q 0 174 22 174 l 0 391 q 38 483 0 445 q 130 521 76 521 l 174 521 l 174 911 l 347 911 l 347 521 l 521 521 l 521 911 l 694 911 l 694 521 l 868 521 l 868 911 l 1042 911 l 1042 521 l 1085 521 q 1177 483 1139 521 q 1215 391 1215 445 l 1215 174 m 1215 -174 l 0 -174 l 0 87 q 76 103 43 87 q 125 138 95 114 q 160 163 146 155 q 202 174 179 174 q 244 163 225 174 q 279 138 258 155 q 328 103 309 114 q 404 87 361 87 q 483 103 448 87 q 532 138 502 114 q 567 163 553 157 q 608 174 586 174 q 651 163 629 174 q 684 138 662 155 q 732 103 713 114 q 811 87 768 87 q 887 103 854 87 q 936 138 906 114 q 971 163 958 155 q 1013 174 990 174 q 1055 163 1036 174 q 1090 138 1066 157 q 1139 103 1118 114 q 1215 87 1172 87 l 1215 -174 m 260 955 q 199 981 225 955 q 174 1042 174 1006 q 184 1085 174 1069 q 214 1116 193 1099 q 244 1150 236 1134 q 260 1215 260 1175 q 317 1165 288 1215 q 347 1063 347 1115 q 323 983 347 1012 q 260 955 298 955 m 608 955 q 547 981 572 955 q 521 1042 521 1006 q 532 1085 521 1069 q 562 1116 540 1099 q 591 1150 583 1134 q 608 1215 608 1175 q 665 1165 635 1215 q 694 1063 694 1115 q 670 983 694 1012 q 608 955 646 955 m 955 955 q 894 981 920 955 q 868 1042 868 1006 q 879 1085 868 1069 q 909 1116 887 1099 q 939 1150 930 1134 q 955 1215 955 1175 q 1012 1165 982 1215 q 1042 1063 1042 1115 q 1017 983 1042 1012 q 955 955 993 955 z "},"":{"ha":1042,"x_min":0,"x_max":1044,"o":"m 1031 -171 q 1015 -174 1023 -176 q 1001 -163 1006 -171 l 662 396 q 697 423 684 404 l 1039 -141 q 1042 -157 1044 -149 q 1031 -171 1039 -165 m 388 363 l 298 119 l 396 -119 q 444 -167 410 -152 q 510 -168 477 -182 q 557 -121 543 -155 q 559 -54 572 -87 l 388 363 m 260 977 q 345 1012 309 977 q 380 1096 380 1047 q 345 1180 380 1145 q 260 1215 309 1215 q 176 1180 212 1215 q 141 1096 141 1145 q 176 1012 141 1047 q 260 977 212 977 m 681 518 l 355 930 q 304 955 336 955 l 304 955 l 217 955 q 165 930 184 955 l 0 716 l 0 458 q 19 410 0 429 q 65 391 38 391 q 111 410 92 391 q 130 456 130 429 l 130 673 l 174 727 l 174 347 l 27 -57 q 30 -125 14 -92 q 80 -170 46 -157 q 146 -165 114 -182 q 190 -117 179 -149 l 369 374 l 369 667 l 285 773 q 285 789 277 784 q 301 787 293 795 l 578 437 q 623 412 597 415 q 670 426 648 410 q 694 469 692 442 q 681 518 697 496 z "},"":{"ha":1042,"x_min":0,"x_max":1023,"o":"m 827 553 q 933 661 895 591 q 971 814 971 730 q 922 987 971 911 q 787 1096 873 1063 q 684 1123 738 1115 q 570 1128 637 1128 l 65 1128 q 34 1116 46 1128 q 22 1085 22 1104 l 22 996 q 34 964 22 977 q 65 952 46 952 l 155 952 l 155 87 l 65 87 q 34 75 46 87 q 22 43 22 62 l 22 -43 q 34 -75 22 -62 q 65 -87 46 -87 l 597 -87 q 779 -65 705 -87 q 952 56 884 -35 q 1020 266 1020 146 q 968 448 1020 372 q 827 553 917 524 m 385 941 l 570 941 q 670 922 632 941 q 720 871 703 906 q 738 789 738 836 q 700 677 738 719 q 594 635 662 635 l 385 635 l 385 941 m 692 114 q 605 100 659 100 l 385 100 l 385 450 l 616 450 q 741 404 694 450 q 787 279 787 358 q 761 176 787 222 q 692 114 735 130 z "},"":{"ha":868,"x_min":-5,"x_max":879,"o":"m 803 781 l 491 781 l 583 1134 q 572 1190 591 1164 q 521 1215 553 1215 l 152 1215 q 109 1199 127 1215 q 87 1158 90 1183 l 0 507 q 16 456 -3 477 q 65 434 35 434 l 388 434 l 263 -92 q 274 -149 255 -125 q 326 -174 293 -174 q 382 -141 363 -174 l 860 684 q 860 749 879 716 q 803 781 841 781 z "},"":{"ha":1389,"x_min":0,"x_max":1389,"o":"m 1196 977 l 1055 836 l 1126 762 q 1145 716 1145 743 q 1126 670 1145 689 l 1080 624 q 1128 391 1128 513 q 1053 109 1128 239 q 848 -98 977 -22 q 564 -174 719 -174 q 281 -98 410 -174 q 76 107 152 -22 q 0 391 0 236 q 76 674 0 545 q 281 879 152 803 q 564 955 410 955 q 798 906 686 955 l 844 952 q 890 971 863 971 q 936 952 917 971 l 1006 882 l 1147 1023 l 1196 977 m 1356 1053 l 1291 1053 q 1268 1043 1278 1053 q 1259 1020 1259 1034 q 1268 997 1259 1006 q 1291 987 1278 987 l 1356 987 q 1379 997 1370 987 q 1389 1020 1389 1006 q 1379 1043 1389 1034 q 1356 1053 1370 1053 m 1194 1215 q 1171 1206 1180 1215 q 1161 1183 1161 1196 l 1161 1118 q 1171 1095 1161 1104 q 1194 1085 1180 1085 q 1217 1095 1207 1085 q 1226 1118 1226 1104 l 1226 1183 q 1217 1206 1226 1196 q 1194 1215 1207 1215 m 1286 1066 l 1332 1112 q 1340 1135 1340 1123 q 1331 1158 1340 1147 q 1308 1169 1321 1169 q 1286 1158 1294 1169 l 1240 1112 q 1229 1089 1229 1101 q 1240 1066 1229 1077 q 1263 1055 1251 1055 q 1286 1066 1275 1055 m 1101 1066 q 1126 1055 1112 1055 q 1149 1066 1139 1055 q 1158 1089 1158 1077 q 1147 1112 1158 1101 l 1101 1158 q 1080 1169 1093 1169 q 1057 1158 1066 1169 q 1047 1135 1047 1147 q 1055 1112 1047 1123 l 1101 1066 m 1286 974 q 1261 985 1275 985 q 1238 974 1248 985 q 1229 951 1229 963 q 1240 928 1229 939 l 1286 882 q 1308 871 1294 871 q 1331 882 1321 871 q 1340 905 1340 892 q 1332 928 1340 917 l 1286 974 m 304 477 q 355 600 304 548 q 477 651 407 651 q 509 663 496 651 q 521 694 521 675 q 509 726 521 713 q 477 738 496 738 q 293 662 369 738 q 217 477 217 586 q 229 446 217 458 q 260 434 241 434 q 292 446 279 434 q 304 477 304 458 z "},"":{"ha":1215,"x_min":0,"x_max":1218,"o":"m 1215 239 l 1215 1150 q 1196 1196 1215 1177 q 1150 1215 1177 1215 l 260 1215 q 76 1139 152 1215 q 0 955 0 1063 l 0 87 q 76 -98 0 -22 q 260 -174 152 -174 l 1150 -174 q 1196 -155 1177 -174 q 1215 -109 1215 -136 l 1215 -65 q 1191 -14 1215 -35 q 1183 87 1183 16 q 1191 187 1183 157 q 1215 239 1215 206 m 347 852 q 353 863 347 857 q 363 868 358 868 l 939 868 q 949 863 944 868 q 955 852 955 857 l 955 798 q 949 787 955 792 q 939 781 944 781 l 363 781 q 353 787 358 781 q 347 798 347 792 l 347 852 m 347 678 q 353 689 347 684 q 363 694 358 694 l 939 694 q 949 689 944 694 q 955 678 955 684 l 955 624 q 949 613 955 618 q 939 608 944 608 l 363 608 q 353 613 358 608 q 347 624 347 618 l 347 678 m 1034 0 l 260 0 q 199 26 225 0 q 174 87 174 52 q 199 148 174 122 q 260 174 225 174 l 1034 174 q 1031 87 1031 138 q 1034 0 1031 35 z "},"":{"ha":1042,"x_min":0,"x_max":1042,"o":"m 0 -174 l 0 1085 q 38 1177 0 1139 q 130 1215 76 1215 l 911 1215 q 1004 1177 966 1215 q 1042 1085 1042 1139 l 1042 -174 l 521 130 l 0 -174 z "},"":{"ha":1345,"x_min":0,"x_max":1345,"o":"m 673 1194 q 336 1103 491 1194 q 91 857 182 1012 q 0 521 0 703 q 91 184 0 339 q 336 -61 182 30 q 673 -152 491 -152 q 1009 -61 854 -152 q 1255 184 1164 30 q 1345 521 1345 339 q 1255 857 1345 703 q 1009 1103 1164 1012 q 673 1194 854 1194 m 326 694 q 264 720 290 694 q 239 781 239 746 q 264 842 239 817 q 326 868 290 868 q 387 842 361 868 q 412 781 412 817 q 387 720 412 746 q 326 694 361 694 m 499 955 q 525 1016 499 990 q 586 1042 551 1042 q 647 1016 621 1042 q 673 955 673 990 q 647 894 673 920 q 586 868 621 868 q 525 894 551 868 q 499 955 499 920 m 629 564 q 568 590 594 564 q 543 651 543 616 q 568 712 543 686 q 629 738 594 738 q 690 712 665 738 q 716 651 716 686 q 690 590 716 616 q 629 564 665 564 z "},"":{"ha":1736,"x_min":-5,"x_max":1742,"o":"m 144 1104 l 5 825 q 3 787 -5 806 q 33 762 11 768 l 570 610 q 597 610 583 605 q 618 629 610 616 l 868 1042 l 190 1128 q 164 1124 176 1131 q 144 1104 152 1118 m 1731 825 l 1592 1104 q 1572 1124 1584 1118 q 1546 1128 1560 1131 l 868 1042 l 1118 629 q 1139 610 1126 616 q 1166 610 1153 605 l 1704 762 q 1733 787 1725 768 q 1731 825 1742 806 m 1156 521 q 1090 538 1120 521 q 1042 583 1061 556 l 868 873 l 694 583 q 646 538 675 556 q 581 521 616 521 q 545 526 562 521 l 174 632 l 174 149 q 193 96 174 119 q 239 65 212 73 l 825 -81 q 909 -81 868 -92 l 1497 65 q 1544 96 1525 73 q 1563 149 1563 119 l 1563 632 l 1191 526 q 1156 521 1175 521 z "},"":{"ha":1389,"x_min":0,"x_max":1389,"o":"m 1383 713 l 1245 1126 q 1198 1191 1232 1166 q 1120 1215 1164 1215 l 738 1215 l 738 694 l 1386 694 l 1383 713 m 651 1215 l 269 1215 q 191 1191 225 1215 q 144 1126 157 1166 l 8 713 l 3 694 l 651 694 l 651 1215 m 0 608 l 0 -43 q 38 -136 0 -98 q 130 -174 76 -174 l 1259 -174 q 1351 -136 1313 -174 q 1389 -43 1389 -98 l 1389 608 l 0 608 z "},"":{"ha":1563,"x_min":-3,"x_max":1563,"o":"m 1519 434 l 1302 434 l 1302 174 l 1215 231 l 1128 174 l 1128 434 l 911 434 q 880 422 892 434 q 868 391 868 410 l 868 -130 q 880 -161 868 -149 q 911 -174 892 -174 l 1519 -174 q 1550 -161 1538 -174 q 1563 -130 1563 -149 l 1563 391 q 1550 422 1563 410 q 1519 434 1538 434 m 477 608 l 1085 608 q 1116 620 1104 608 q 1128 651 1128 632 l 1128 1172 q 1116 1203 1128 1191 q 1085 1215 1104 1215 l 868 1215 l 868 955 l 781 1012 l 694 955 l 694 1215 l 477 1215 q 446 1203 458 1215 q 434 1172 434 1191 l 434 651 q 446 620 434 632 q 477 608 458 608 m 651 434 l 434 434 l 434 174 l 347 231 l 260 174 l 260 434 l 43 434 q 12 422 24 434 q 0 391 0 410 l 0 -130 q 12 -161 0 -149 q 43 -174 24 -174 l 651 -174 q 682 -161 670 -174 q 694 -130 694 -149 l 694 391 q 682 422 694 410 q 651 434 670 434 z "},"":{"ha":1736,"x_min":-3,"x_max":1736,"o":"m 347 521 q 297 397 347 448 q 174 347 247 347 q 50 397 100 347 q 0 521 0 448 q 50 644 0 594 q 174 694 100 694 q 297 644 247 694 q 347 521 347 594 m 174 174 q 113 148 138 174 q 87 87 87 122 q 113 26 87 52 q 174 0 138 0 q 235 26 209 0 q 260 87 260 52 q 235 148 260 122 q 174 174 209 174 m 174 1128 q 50 1078 100 1128 q 0 955 0 1028 q 50 831 0 882 q 174 781 100 781 q 297 831 247 781 q 347 955 347 882 q 297 1078 347 1028 q 174 1128 247 1128 m 608 608 q 547 582 572 608 q 521 521 521 556 q 547 460 521 486 q 608 434 572 434 q 669 460 643 434 q 694 521 694 486 q 669 582 694 556 q 608 608 643 608 m 608 174 q 547 148 572 174 q 521 87 521 122 q 547 26 521 52 q 608 0 572 0 q 669 26 643 0 q 694 87 694 52 q 669 148 694 122 q 608 174 643 174 m 608 1128 q 484 1078 534 1128 q 434 955 434 1028 q 484 831 434 882 q 608 781 534 781 q 731 831 681 781 q 781 955 781 882 q 731 1078 781 1028 q 608 1128 681 1128 m 1215 608 q 1154 582 1180 608 q 1128 521 1128 556 q 1154 460 1128 486 q 1215 434 1180 434 q 1276 460 1251 434 q 1302 521 1302 486 q 1276 582 1302 556 q 1215 608 1251 608 m 1215 174 q 1154 148 1180 174 q 1128 87 1128 122 q 1154 26 1128 52 q 1215 0 1180 0 q 1276 26 1251 0 q 1302 87 1302 52 q 1276 148 1302 122 q 1215 174 1251 174 m 1215 1128 q 1092 1078 1142 1128 q 1042 955 1042 1028 q 1092 831 1042 882 q 1215 781 1142 781 q 1339 831 1289 781 q 1389 955 1389 882 q 1339 1078 1389 1028 q 1215 1128 1289 1128 m 1649 608 q 1588 582 1614 608 q 1563 521 1563 556 q 1588 460 1563 486 q 1649 434 1614 434 q 1710 460 1685 434 q 1736 521 1736 486 q 1710 582 1736 556 q 1649 608 1685 608 m 1649 174 q 1588 148 1614 174 q 1563 87 1563 122 q 1588 26 1563 52 q 1649 0 1614 0 q 1710 26 1685 0 q 1736 87 1736 52 q 1710 148 1736 122 q 1649 174 1685 174 m 1649 1042 q 1588 1016 1614 1042 q 1563 955 1563 990 q 1588 894 1563 920 q 1649 868 1614 868 q 1710 894 1685 868 q 1736 955 1736 920 q 1710 1016 1736 990 q 1649 1042 1685 1042 z "},"":{"ha":1389,"x_min":0,"x_max":1389,"o":"m 1259 868 l 1042 868 l 1042 998 q 1004 1090 1042 1053 q 911 1128 966 1128 l 477 1128 q 385 1090 423 1128 q 347 998 347 1053 l 347 868 l 130 868 q 38 830 76 868 q 0 738 0 792 l 0 -43 q 38 -136 0 -98 q 130 -174 76 -174 l 1259 -174 q 1351 -136 1313 -174 q 1389 -43 1389 -98 l 1389 738 q 1351 830 1389 792 q 1259 868 1313 868 m 521 955 l 868 955 l 868 868 l 521 868 l 521 955 m 955 282 q 948 267 955 274 q 933 260 941 260 l 781 260 l 781 109 q 774 94 781 100 q 760 87 768 87 l 629 87 q 614 94 621 87 q 608 109 608 100 l 608 260 l 456 260 q 441 267 448 260 q 434 282 434 274 l 434 412 q 441 427 434 420 q 456 434 448 434 l 608 434 l 608 586 q 614 601 608 594 q 629 608 621 608 l 760 608 q 774 601 768 608 q 781 586 781 594 l 781 434 l 933 434 q 948 427 941 434 q 955 412 955 420 l 955 282 z "},"":{"ha":1389,"x_min":0,"x_max":1389,"o":"m 868 434 l 1389 434 l 1389 43 q 1351 -49 1389 -11 q 1259 -87 1313 -87 l 130 -87 q 38 -49 76 -87 q 0 43 0 -11 l 0 434 l 521 434 l 521 380 q 530 357 521 366 q 553 347 540 347 l 836 347 q 859 357 849 347 q 868 380 868 366 l 868 434 m 1389 738 l 1389 521 l 0 521 l 0 738 q 38 830 0 792 q 130 868 76 868 l 347 868 l 347 998 q 385 1090 347 1053 q 477 1128 423 1128 l 911 1128 q 1004 1090 966 1128 q 1042 998 1042 1053 l 1042 868 l 1259 868 q 1351 830 1313 868 q 1389 738 1389 792 m 868 955 l 521 955 l 521 868 l 868 868 l 868 955 z "},"":{"ha":1389,"x_min":-3,"x_max":1392,"o":"m 1389 431 q 1362 372 1389 396 q 1299 347 1335 347 l 1150 347 l 1150 304 q 1112 138 1150 217 l 1278 -24 q 1302 -87 1302 -52 q 1276 -148 1302 -122 q 1215 -174 1251 -174 q 1153 -149 1180 -174 l 1006 0 q 760 -87 898 -87 l 760 575 q 750 598 760 589 q 727 608 741 608 l 662 608 q 639 598 648 608 q 629 575 629 589 l 629 -87 q 382 0 491 -87 l 236 -149 q 174 -174 209 -174 q 113 -148 138 -174 q 87 -87 87 -122 q 111 -24 87 -52 l 277 138 q 239 304 239 217 l 239 347 l 90 347 q 27 372 54 347 q 0 433 0 396 q 26 495 0 469 q 87 521 52 521 l 239 521 l 239 681 l 111 806 q 87 868 87 833 q 113 929 87 903 q 174 955 138 955 q 236 930 209 955 l 382 781 l 1006 781 l 1153 930 q 1215 955 1180 955 q 1276 929 1251 955 q 1302 868 1302 903 q 1278 806 1302 833 l 1150 681 l 1150 521 l 1302 521 q 1363 495 1337 521 q 1389 431 1389 469 m 697 1215 q 545 1175 616 1215 q 434 1063 475 1134 q 393 911 393 993 l 1001 911 q 960 1063 1001 993 q 849 1175 920 1134 q 697 1215 779 1215 z "},"":{"ha":1215,"x_min":0,"x_max":1218,"o":"m 1183 -87 l 1128 -87 l 1128 1150 q 1109 1196 1128 1177 q 1063 1215 1090 1215 l 152 1215 q 106 1196 125 1215 q 87 1150 87 1177 l 87 -87 l 33 -87 q 9 -96 19 -87 q 0 -119 0 -106 l 0 -174 l 1215 -174 l 1215 -119 q 1206 -96 1215 -106 q 1183 -87 1196 -87 m 347 1009 q 357 1032 347 1023 q 380 1042 366 1042 l 488 1042 q 511 1032 502 1042 q 521 1009 521 1023 l 521 901 q 511 878 521 887 q 488 868 502 868 l 380 868 q 357 878 366 868 q 347 901 347 887 l 347 1009 m 347 749 q 357 772 347 762 q 380 781 366 781 l 488 781 q 511 772 502 781 q 521 749 521 762 l 521 640 q 511 617 521 627 q 488 608 502 608 l 380 608 q 357 617 366 608 q 347 640 347 627 l 347 749 m 488 347 l 380 347 q 357 357 366 347 q 347 380 347 366 l 347 488 q 357 511 347 502 q 380 521 366 521 l 488 521 q 511 511 502 521 q 521 488 521 502 l 521 380 q 511 357 521 366 q 488 347 502 347 m 694 -87 l 521 -87 l 521 141 q 530 164 521 155 q 553 174 540 174 l 662 174 q 685 164 675 174 q 694 141 694 155 l 694 -87 m 868 380 q 859 357 868 366 q 836 347 849 347 l 727 347 q 704 357 713 347 q 694 380 694 366 l 694 488 q 704 511 694 502 q 727 521 713 521 l 836 521 q 859 511 849 521 q 868 488 868 502 l 868 380 m 868 640 q 859 617 868 627 q 836 608 849 608 l 727 608 q 704 617 713 608 q 694 640 694 627 l 694 749 q 704 772 694 762 q 727 781 713 781 l 836 781 q 859 772 849 781 q 868 749 868 762 l 868 640 m 868 901 q 859 878 868 887 q 836 868 849 868 l 727 868 q 704 878 713 868 q 694 901 694 887 l 694 1009 q 704 1032 694 1023 q 727 1042 713 1042 l 836 1042 q 859 1032 849 1042 q 868 1009 868 1023 l 868 901 z "},"":{"ha":1563,"x_min":0,"x_max":1563,"o":"m 1563 608 q 1538 682 1563 648 q 1476 730 1514 716 l 1476 1042 q 1426 1165 1476 1115 q 1302 1215 1375 1215 l 1278 1194 q 1090 1044 1161 1093 q 860 920 977 963 q 564 868 722 868 l 130 868 q 38 830 76 868 q 0 738 0 792 l 0 477 q 38 385 0 423 q 130 347 76 347 l 247 347 q 233 127 217 241 q 285 -68 244 60 l 298 -106 q 326 -141 307 -130 q 449 -172 369 -168 q 581 -155 529 -176 q 620 -107 613 -141 q 600 -49 627 -73 q 545 27 559 -8 q 545 117 526 71 q 543 149 553 133 q 533 260 510 198 q 621 345 556 323 q 890 285 762 336 q 1104 163 996 241 q 1278 22 1166 117 l 1302 0 q 1426 50 1375 0 q 1476 174 1476 100 l 1476 486 q 1538 533 1514 499 q 1563 608 1563 567 m 1302 228 q 1044 404 1166 342 q 694 513 876 491 l 694 703 q 1044 811 876 724 q 1302 987 1166 873 l 1302 228 z "},"":{"ha":1389,"x_min":0,"x_max":1370,"o":"m 694 1020 q 945 954 830 1020 q 1127 772 1061 887 q 1194 521 1194 656 q 1127 270 1194 385 q 945 88 1061 155 q 694 22 830 22 q 444 88 559 22 q 262 270 328 155 q 195 521 195 385 q 262 772 195 656 q 444 954 328 887 q 694 1020 559 1020 m 694 1194 q 358 1103 513 1194 q 113 857 203 1012 q 22 521 22 703 q 113 184 22 339 q 358 -61 203 30 q 694 -152 513 -152 q 1031 -61 876 -152 q 1276 184 1185 30 q 1367 521 1367 339 q 1276 857 1367 703 q 1031 1103 1185 1012 q 694 1194 876 1194 m 694 694 q 817 643 765 694 q 868 521 868 591 q 817 399 868 450 q 694 347 765 347 q 572 399 624 347 q 521 521 521 450 q 572 643 521 591 q 694 694 624 694 m 694 868 q 519 822 600 868 q 393 696 439 776 q 347 521 347 616 q 393 346 347 426 q 519 220 439 266 q 694 174 600 174 q 869 220 789 174 q 996 346 949 266 q 1042 521 1042 426 q 996 696 1042 616 q 869 822 949 776 q 694 868 789 868 z "},"":{"ha":1042,"x_min":0,"x_max":1042,"o":"m 521 1215 q 146 787 288 1006 q 0 401 0 559 q 66 103 0 233 q 251 -100 133 -27 q 521 -174 369 -174 q 791 -100 673 -174 q 975 103 909 -27 q 1042 401 1042 233 q 895 787 1042 559 q 521 1215 751 1006 m 521 0 q 334 72 407 0 q 260 258 260 144 q 298 388 260 312 q 521 694 361 521 q 743 388 681 521 q 781 258 781 312 q 708 72 781 144 q 521 0 635 0 z "},"":{"ha":1389,"x_min":0,"x_max":1392,"o":"m 1389 803 l 1389 586 q 1370 540 1389 559 q 1324 521 1351 521 l 1302 521 l 1302 65 q 1283 19 1302 38 q 1237 0 1264 0 l 1215 0 l 1215 -109 q 1196 -155 1215 -136 q 1150 -174 1177 -174 l 1020 -174 q 974 -155 993 -174 q 955 -109 955 -136 l 955 0 l 434 0 l 434 -109 q 415 -155 434 -136 q 369 -174 396 -174 l 239 -174 q 193 -155 212 -174 q 174 -109 174 -136 l 174 0 l 152 0 q 106 19 125 0 q 87 65 87 38 l 87 521 l 65 521 q 19 540 38 521 q 0 586 0 559 l 0 803 q 19 849 0 830 q 65 868 38 868 l 87 868 l 87 998 q 168 1107 87 1058 q 389 1185 250 1156 q 694 1215 529 1215 q 1000 1185 860 1215 q 1221 1107 1139 1156 q 1302 998 1302 1058 l 1302 868 l 1324 868 q 1370 849 1351 868 q 1389 803 1389 830 m 304 347 q 227 316 258 347 q 195 239 195 285 q 227 161 195 193 q 304 130 258 130 q 381 161 350 130 q 412 239 412 193 q 381 316 412 285 q 304 347 350 347 m 1085 347 q 1008 316 1039 347 q 977 239 977 285 q 1008 161 977 193 q 1085 130 1039 130 q 1162 161 1131 130 q 1194 239 1194 193 q 1162 316 1194 285 q 1085 347 1131 347 m 1172 499 l 1172 890 q 1153 936 1172 917 q 1107 955 1134 955 l 282 955 q 236 936 255 955 q 217 890 217 917 l 217 499 q 236 453 217 472 q 282 434 255 434 l 1107 434 q 1153 453 1134 434 q 1172 499 1172 472 z "},"":{"ha":1215,"x_min":0,"x_max":1215,"o":"m 0 -43 l 0 1085 q 38 1177 0 1139 q 130 1215 76 1215 l 1085 1215 q 1177 1177 1139 1215 q 1215 1085 1215 1139 l 1215 -43 q 1177 -136 1215 -98 q 1085 -174 1139 -174 l 130 -174 q 38 -136 76 -174 q 0 -43 0 -98 m 1042 727 l 1042 1009 q 1032 1032 1042 1023 q 1009 1042 1023 1042 l 206 1042 q 183 1032 193 1042 q 174 1009 174 1023 l 174 727 q 183 704 174 713 q 206 694 193 694 l 1009 694 q 1032 704 1023 694 q 1042 727 1042 713 m 347 380 l 347 488 q 338 511 347 502 q 315 521 328 521 l 206 521 q 183 511 193 521 q 174 488 174 502 l 174 380 q 183 357 174 366 q 206 347 193 347 l 315 347 q 338 357 328 347 q 347 380 347 366 m 1042 33 l 1042 488 q 1032 511 1042 502 q 1009 521 1023 521 l 901 521 q 878 511 887 521 q 868 488 868 502 l 868 33 q 878 9 868 19 q 901 0 887 0 l 1009 0 q 1032 9 1023 0 q 1042 33 1042 19 m 347 33 l 347 141 q 338 164 347 155 q 315 174 328 174 l 206 174 q 183 164 193 174 q 174 141 174 155 l 174 33 q 183 9 174 19 q 206 0 193 0 l 315 0 q 338 9 328 0 q 347 33 347 19 m 694 380 l 694 488 q 685 511 694 502 q 662 521 675 521 l 553 521 q 530 511 540 521 q 521 488 521 502 l 521 380 q 530 357 521 366 q 553 347 540 347 l 662 347 q 685 357 675 347 q 694 380 694 366 m 694 33 l 694 141 q 685 164 694 155 q 662 174 675 174 l 553 174 q 530 164 540 174 q 521 141 521 155 l 521 33 q 530 9 521 19 q 553 0 540 0 l 662 0 q 685 9 675 0 q 694 33 694 19 z "},"":{"ha":1215,"x_min":0,"x_max":1218,"o":"m 1183 781 l 33 781 q 9 791 19 781 q 0 814 0 800 l 0 911 q 38 1004 0 966 q 130 1042 76 1042 l 260 1042 l 260 1183 q 270 1206 260 1196 q 293 1215 279 1215 l 401 1215 q 425 1206 415 1215 q 434 1183 434 1196 l 434 1042 l 781 1042 l 781 1183 q 791 1206 781 1196 q 814 1215 800 1215 l 922 1215 q 945 1206 936 1215 q 955 1183 955 1196 l 955 1042 l 1085 1042 q 1177 1004 1139 1042 q 1215 911 1215 966 l 1215 814 q 1206 791 1215 800 q 1183 781 1196 781 m 33 694 l 1183 694 q 1206 685 1196 694 q 1215 662 1215 675 l 1215 -43 q 1177 -136 1215 -98 q 1085 -174 1139 -174 l 130 -174 q 38 -136 76 -174 q 0 -43 0 -98 l 0 662 q 9 685 0 675 q 33 694 19 694 m 347 141 q 338 164 347 155 q 315 174 328 174 l 206 174 q 183 164 193 174 q 174 141 174 155 l 174 33 q 183 9 174 19 q 206 0 193 0 l 315 0 q 338 9 328 0 q 347 33 347 19 l 347 141 m 347 488 q 338 511 347 502 q 315 521 328 521 l 206 521 q 183 511 193 521 q 174 488 174 502 l 174 380 q 183 357 174 366 q 206 347 193 347 l 315 347 q 338 357 328 347 q 347 380 347 366 l 347 488 m 694 141 q 685 164 694 155 q 662 174 675 174 l 553 174 q 530 164 540 174 q 521 141 521 155 l 521 33 q 530 9 521 19 q 553 0 540 0 l 662 0 q 685 9 675 0 q 694 33 694 19 l 694 141 m 694 488 q 685 511 694 502 q 662 521 675 521 l 553 521 q 530 511 540 521 q 521 488 521 502 l 521 380 q 530 357 521 366 q 553 347 540 347 l 662 347 q 685 357 675 347 q 694 380 694 366 l 694 488 m 1042 141 q 1032 164 1042 155 q 1009 174 1023 174 l 901 174 q 878 164 887 174 q 868 141 868 155 l 868 33 q 878 9 868 19 q 901 0 887 0 l 1009 0 q 1032 9 1023 0 q 1042 33 1042 19 l 1042 141 m 1042 488 q 1032 511 1042 502 q 1009 521 1023 521 l 901 521 q 878 511 887 521 q 868 488 868 502 l 868 380 q 878 357 868 366 q 901 347 887 347 l 1009 347 q 1032 357 1023 347 q 1042 380 1042 366 l 1042 488 z "},"":{"ha":1215,"x_min":0,"x_max":1215,"o":"m 1183 781 l 33 781 q 9 791 19 781 q 0 814 0 800 l 0 911 q 38 1004 0 966 q 130 1042 76 1042 l 260 1042 l 260 1183 q 270 1206 260 1196 q 293 1215 279 1215 l 401 1215 q 425 1206 415 1215 q 434 1183 434 1196 l 434 1042 l 781 1042 l 781 1183 q 791 1206 781 1196 q 814 1215 800 1215 l 922 1215 q 945 1206 936 1215 q 955 1183 955 1196 l 955 1042 l 1085 1042 q 1177 1004 1139 1042 q 1215 911 1215 966 l 1215 814 q 1206 791 1215 800 q 1183 781 1196 781 m 33 694 l 1183 694 q 1206 685 1196 694 q 1215 662 1215 675 l 1215 -43 q 1177 -136 1215 -98 q 1085 -174 1139 -174 l 130 -174 q 38 -136 76 -174 q 0 -43 0 -98 l 0 662 q 9 685 0 675 q 33 694 19 694 m 936 434 l 860 510 q 838 521 852 521 q 814 513 825 521 l 526 225 l 401 353 q 380 361 393 361 q 355 353 366 361 l 279 277 q 269 252 269 266 q 279 231 269 239 l 502 3 q 526 -5 513 -5 q 548 3 540 -5 l 936 388 q 947 412 947 399 q 936 434 947 426 z "},"":{"ha":1215,"x_min":0,"x_max":1218,"o":"m 1183 781 l 33 781 q 9 791 19 781 q 0 814 0 800 l 0 911 q 38 1004 0 966 q 130 1042 76 1042 l 260 1042 l 260 1183 q 270 1206 260 1196 q 293 1215 279 1215 l 401 1215 q 425 1206 415 1215 q 434 1183 434 1196 l 434 1042 l 781 1042 l 781 1183 q 791 1206 781 1196 q 814 1215 800 1215 l 922 1215 q 945 1206 936 1215 q 955 1183 955 1196 l 955 1042 l 1085 1042 q 1177 1004 1139 1042 q 1215 911 1215 966 l 1215 814 q 1206 791 1215 800 q 1183 781 1196 781 m 33 694 l 1183 694 q 1206 685 1196 694 q 1215 662 1215 675 l 1215 -43 q 1177 -136 1215 -98 q 1085 -174 1139 -174 l 130 -174 q 38 -136 76 -174 q 0 -43 0 -98 l 0 662 q 9 685 0 675 q 33 694 19 694 m 857 174 q 880 183 871 174 q 890 206 890 193 l 890 315 q 880 338 890 328 q 857 347 871 347 l 358 347 q 335 338 345 347 q 326 315 326 328 l 326 206 q 335 183 326 193 q 358 174 345 174 l 857 174 z "},"":{"ha":1215,"x_min":0,"x_max":1218,"o":"m 1183 781 l 33 781 q 9 791 19 781 q 0 814 0 800 l 0 911 q 38 1004 0 966 q 130 1042 76 1042 l 260 1042 l 260 1183 q 270 1206 260 1196 q 293 1215 279 1215 l 401 1215 q 425 1206 415 1215 q 434 1183 434 1196 l 434 1042 l 781 1042 l 781 1183 q 791 1206 781 1196 q 814 1215 800 1215 l 922 1215 q 945 1206 936 1215 q 955 1183 955 1196 l 955 1042 l 1085 1042 q 1177 1004 1139 1042 q 1215 911 1215 966 l 1215 814 q 1206 791 1215 800 q 1183 781 1196 781 m 33 694 l 1183 694 q 1206 685 1196 694 q 1215 662 1215 675 l 1215 -43 q 1177 -136 1215 -98 q 1085 -174 1139 -174 l 130 -174 q 38 -136 76 -174 q 0 -43 0 -98 l 0 662 q 9 685 0 675 q 33 694 19 694 m 890 315 q 880 338 890 328 q 857 347 871 347 l 694 347 l 694 510 q 685 533 694 524 q 662 543 675 543 l 553 543 q 530 533 540 543 q 521 510 521 524 l 521 347 l 358 347 q 335 338 345 347 q 326 315 326 328 l 326 206 q 335 183 326 193 q 358 174 345 174 l 521 174 l 521 11 q 530 -12 521 -3 q 553 -22 540 -22 l 662 -22 q 685 -12 675 -22 q 694 11 694 -3 l 694 174 l 857 174 q 880 183 871 174 q 890 206 890 193 l 890 315 z "},"":{"ha":1215,"x_min":0,"x_max":1218,"o":"m 1183 781 l 33 781 q 9 791 19 781 q 0 814 0 800 l 0 911 q 38 1004 0 966 q 130 1042 76 1042 l 260 1042 l 260 1183 q 270 1206 260 1196 q 293 1215 279 1215 l 401 1215 q 425 1206 415 1215 q 434 1183 434 1196 l 434 1042 l 781 1042 l 781 1183 q 791 1206 781 1196 q 814 1215 800 1215 l 922 1215 q 945 1206 936 1215 q 955 1183 955 1196 l 955 1042 l 1085 1042 q 1177 1004 1139 1042 q 1215 911 1215 966 l 1215 814 q 1206 791 1215 800 q 1183 781 1196 781 m 33 694 l 1183 694 q 1206 685 1196 694 q 1215 662 1215 675 l 1215 -43 q 1177 -136 1215 -98 q 1085 -174 1139 -174 l 130 -174 q 38 -136 76 -174 q 0 -43 0 -98 l 0 662 q 9 685 0 675 q 33 694 19 694 m 730 260 l 860 391 q 871 415 871 401 q 860 437 871 429 l 784 513 q 762 524 776 524 q 738 513 749 524 l 608 382 l 477 513 q 453 524 467 524 q 431 513 439 524 l 355 437 q 345 415 345 429 q 355 391 345 401 l 486 260 l 355 130 q 345 106 345 119 q 355 84 345 92 l 431 8 q 453 -3 439 -3 q 477 8 467 -3 l 608 138 l 738 8 q 762 -3 749 -3 q 784 8 776 -3 l 860 84 q 871 106 871 92 q 860 130 871 119 l 730 260 z "},"":{"ha":1215,"x_min":0,"x_max":1215,"o":"m 33 694 l 1183 694 q 1206 685 1196 694 q 1215 662 1215 675 l 1215 -43 q 1177 -136 1215 -98 q 1085 -174 1139 -174 l 130 -174 q 38 -136 76 -174 q 0 -43 0 -98 l 0 662 q 9 685 0 675 q 33 694 19 694 m 1215 814 l 1215 911 q 1177 1004 1215 966 q 1085 1042 1139 1042 l 955 1042 l 955 1183 q 945 1206 955 1196 q 922 1215 936 1215 l 814 1215 q 791 1206 800 1215 q 781 1183 781 1196 l 781 1042 l 434 1042 l 434 1183 q 425 1206 434 1196 q 401 1215 415 1215 l 293 1215 q 270 1206 279 1215 q 260 1183 260 1196 l 260 1042 l 130 1042 q 38 1004 76 1042 q 0 911 0 966 l 0 814 q 9 791 0 800 q 33 781 19 781 l 1183 781 q 1206 791 1196 781 q 1215 814 1215 800 z "},"":{"ha":1389,"x_min":0,"x_max":1389,"o":"m 130 1128 q 38 1090 76 1128 q 0 998 0 1053 l 0 43 q 38 -49 0 -11 q 130 -87 76 -87 l 1259 -87 q 1351 -49 1313 -87 q 1389 43 1389 -11 l 1389 998 q 1351 1090 1389 1053 q 1259 1128 1313 1128 l 130 1128 m 130 1042 l 418 1042 q 429 1036 423 1042 q 434 1025 434 1031 l 434 971 q 429 960 434 966 q 418 955 423 955 l 103 955 q 92 960 98 955 q 87 971 87 966 l 87 998 q 99 1029 87 1017 q 130 1042 111 1042 m 1286 781 l 103 781 q 92 787 98 781 q 87 798 87 792 l 87 895 q 92 906 87 901 q 103 911 98 911 l 477 911 l 559 1034 q 572 1042 564 1042 l 1259 1042 q 1290 1029 1278 1042 q 1302 998 1302 1017 l 1302 798 q 1297 787 1302 792 q 1286 781 1291 781 m 694 65 q 530 109 605 65 q 412 227 456 152 q 369 391 369 301 q 412 555 369 480 q 530 673 456 629 q 694 716 605 716 q 859 673 784 716 q 977 555 933 629 q 1020 391 1020 480 q 977 227 1020 301 q 859 109 933 152 q 694 65 784 65 m 694 629 q 526 559 597 629 q 456 391 456 488 q 526 222 456 293 q 694 152 597 152 q 863 222 792 152 q 933 391 933 293 q 863 559 933 488 q 694 629 792 629 m 564 347 q 533 359 545 347 q 521 391 521 372 q 572 513 521 461 q 694 564 624 564 q 726 552 713 564 q 738 521 738 540 q 726 490 738 502 q 694 477 713 477 q 633 452 659 477 q 608 391 608 426 q 595 359 608 372 q 564 347 583 347 z "},"":{"ha":1389,"x_min":0,"x_max":1389,"o":"m 1389 825 l 1389 43 q 1351 -49 1389 -11 q 1259 -87 1313 -87 l 130 -87 q 38 -49 76 -87 q 0 43 0 -11 l 0 825 q 38 917 0 879 q 130 955 76 955 l 369 955 l 401 1044 q 450 1105 418 1082 q 524 1128 483 1128 l 865 1128 q 939 1105 906 1128 q 987 1044 971 1082 l 1020 955 l 1259 955 q 1351 917 1313 955 q 1389 825 1389 879 m 1020 434 q 977 598 1020 524 q 859 716 933 673 q 694 760 784 760 q 530 716 605 760 q 412 598 456 673 q 369 434 369 524 q 412 270 369 345 q 530 152 456 195 q 694 109 605 109 q 859 152 784 109 q 977 270 933 195 q 1020 434 1020 345 m 933 434 q 863 266 933 336 q 694 195 792 195 q 526 266 597 195 q 456 434 456 336 q 526 602 456 532 q 694 673 597 673 q 863 602 792 673 q 933 434 933 532 z "},"":{"ha":1563,"x_min":0,"x_max":1571,"o":"m 1506 401 l 1150 909 q 1039 1008 1107 974 q 895 1042 971 1042 q 719 986 798 1042 q 605 838 640 930 q 513 1044 600 960 q 304 1128 426 1128 q 152 1088 222 1128 q 41 977 81 1047 q 0 825 0 906 l 0 217 q 41 65 0 136 q 152 -46 81 -5 q 304 -87 222 -87 q 456 -46 385 -87 q 567 65 526 -5 q 608 217 608 136 l 608 621 q 643 553 624 581 l 998 46 q 1109 -53 1042 -19 q 1253 -87 1177 -87 q 1430 -30 1351 -87 q 1534 94 1500 19 q 1561 250 1568 168 q 1506 401 1554 331 m 434 521 l 174 521 l 174 825 q 212 917 174 879 q 304 955 250 955 q 396 917 358 955 q 434 825 434 879 l 434 521 m 963 399 l 784 654 q 761 755 751 700 q 819 844 770 811 q 895 868 852 868 q 960 853 930 868 q 1009 811 990 838 l 1185 556 l 963 399 z "},"":{"ha":1389,"x_min":-5,"x_max":1394,"o":"m 1356 760 l 1207 760 l 1185 817 q 1058 979 1147 917 q 860 1042 968 1042 l 529 1042 q 331 979 420 1042 q 203 817 241 917 l 182 760 l 33 760 q 7 746 16 760 q 3 716 -3 732 l 24 651 q 54 629 30 629 l 133 629 l 133 629 q 68 566 92 605 q 43 477 43 526 l 43 347 q 87 233 43 282 l 87 65 q 106 19 87 38 q 152 0 125 0 l 282 0 q 328 19 309 0 q 347 65 347 38 l 347 174 l 1042 174 l 1042 65 q 1061 19 1042 38 q 1107 0 1080 0 l 1237 0 q 1283 19 1264 0 q 1302 65 1302 38 l 1302 233 q 1345 347 1345 282 l 1345 477 q 1321 566 1345 526 q 1256 629 1297 605 l 1256 629 l 1335 629 q 1364 651 1359 629 l 1386 716 q 1382 746 1392 732 q 1356 760 1373 760 m 366 754 q 430 837 385 806 q 529 868 475 868 l 860 868 q 959 837 914 868 q 1023 754 1004 806 l 1063 651 l 326 651 l 366 754 m 239 326 q 178 351 203 326 q 152 412 152 377 q 178 473 152 448 q 239 499 203 499 q 321 452 274 499 q 369 369 369 404 q 328 331 369 339 q 250 326 304 326 l 239 326 m 1150 326 q 1139 326 1147 326 q 1061 331 1085 326 q 1020 369 1020 339 q 1067 452 1020 404 q 1150 499 1115 499 q 1211 473 1185 499 q 1237 412 1237 448 q 1211 351 1237 377 q 1150 326 1185 326 z "},"":{"ha":868,"x_min":0,"x_max":849,"o":"m 84 694 l 784 694 q 833 661 819 694 q 822 602 846 627 l 472 252 q 434 236 456 236 q 396 252 412 236 l 46 602 q 35 661 22 627 q 84 694 49 694 z "},"":{"ha":521,"x_min":0,"x_max":524,"o":"m 521 871 l 521 171 q 487 122 521 136 q 429 133 453 109 l 79 483 q 62 521 62 499 q 79 559 62 543 l 429 909 q 487 920 453 933 q 521 871 521 906 z "},"":{"ha":521,"x_min":0,"x_max":458,"o":"m 0 171 l 0 871 q 34 920 0 906 q 92 909 68 933 l 442 559 q 458 521 458 543 q 442 483 458 499 l 92 133 q 34 122 68 109 q 0 171 0 136 z "},"":{"ha":1215,"x_min":0,"x_max":1215,"o":"m 1215 998 l 1215 43 q 1177 -49 1215 -11 q 1085 -87 1139 -87 l 130 -87 q 38 -49 76 -87 q 0 43 0 -11 l 0 998 q 38 1090 0 1053 q 130 1128 76 1128 l 1085 1128 q 1177 1090 1139 1128 q 1215 998 1215 1053 m 252 618 l 586 285 q 608 274 594 274 q 632 285 621 274 l 966 618 q 971 652 979 632 q 941 673 963 673 l 274 673 q 244 652 252 673 q 252 618 236 632 z "},"":{"ha":1215,"x_min":0,"x_max":1215,"o":"m 1085 -87 l 130 -87 q 38 -49 76 -87 q 0 43 0 -11 l 0 998 q 38 1090 0 1053 q 130 1128 76 1128 l 1085 1128 q 1177 1090 1139 1128 q 1215 998 1215 1053 l 1215 43 q 1177 -49 1215 -11 q 1085 -87 1139 -87 m 705 879 l 369 543 q 361 521 361 534 q 369 499 361 507 l 705 163 q 739 157 719 149 q 760 187 760 165 l 760 854 q 739 884 760 876 q 705 879 719 892 z "},"":{"ha":1215,"x_min":0,"x_max":1215,"o":"m 130 1128 l 1085 1128 q 1177 1090 1139 1128 q 1215 998 1215 1053 l 1215 43 q 1177 -49 1215 -11 q 1085 -87 1139 -87 l 130 -87 q 38 -49 76 -87 q 0 43 0 -11 l 0 998 q 38 1090 0 1053 q 130 1128 76 1128 m 510 163 l 846 499 q 854 521 854 507 q 846 543 854 534 l 510 879 q 476 884 496 892 q 456 854 456 876 l 456 187 q 476 157 456 165 q 510 163 496 149 z "},"":{"ha":1215,"x_min":0,"x_max":1215,"o":"m 0 43 l 0 998 q 38 1090 0 1053 q 130 1128 76 1128 l 1085 1128 q 1177 1090 1139 1128 q 1215 998 1215 1053 l 1215 43 q 1177 -49 1215 -11 q 1085 -87 1139 -87 l 130 -87 q 38 -49 76 -87 q 0 43 0 -11 m 966 423 l 629 760 q 608 768 621 768 q 586 760 594 768 l 250 423 q 244 389 236 410 q 274 369 252 369 l 941 369 q 971 389 963 369 q 966 423 979 410 z "},"":{"ha":868,"x_min":0,"x_max":849,"o":"m 784 260 l 84 260 q 35 294 49 260 q 46 353 22 328 l 396 703 q 434 719 412 719 q 472 703 456 719 l 822 353 q 833 294 846 328 q 784 260 819 260 z "},"":{"ha":1563,"x_min":0,"x_max":1568,"o":"m 1370 347 l 575 347 l 591 260 l 1321 260 q 1370 236 1351 260 q 1383 182 1389 212 l 1367 114 q 1431 58 1408 95 q 1454 -22 1454 22 q 1409 -129 1454 -84 q 1302 -174 1364 -174 q 1196 -130 1240 -174 q 1150 -23 1153 -87 q 1196 87 1147 41 l 627 87 q 673 -22 673 43 q 625 -132 673 -87 q 513 -174 578 -176 q 414 -129 456 -171 q 369 -30 372 -87 q 388 52 366 14 q 445 111 410 90 l 255 1042 l 65 1042 q 19 1061 38 1042 q 0 1107 0 1080 l 0 1150 q 19 1196 0 1177 q 65 1215 38 1215 l 345 1215 q 384 1200 366 1215 q 407 1164 401 1185 l 431 1042 l 1497 1042 q 1549 1017 1530 1042 q 1560 963 1568 993 l 1432 399 q 1409 361 1427 374 q 1370 347 1392 347 m 1093 694 l 977 694 l 977 857 q 967 880 977 871 q 944 890 958 890 l 879 890 q 856 880 865 890 q 846 857 846 871 l 846 694 l 730 694 q 700 674 708 694 q 705 640 692 654 l 890 456 q 911 448 898 448 q 933 456 925 448 l 1118 640 q 1123 674 1131 654 q 1093 694 1115 694 z "},"":{"ha":1563,"x_min":0,"x_max":1568,"o":"m 1370 347 l 575 347 l 591 260 l 1321 260 q 1370 236 1351 260 q 1383 182 1389 212 l 1367 114 q 1431 58 1408 95 q 1454 -22 1454 22 q 1409 -129 1454 -84 q 1302 -174 1364 -174 q 1196 -130 1240 -174 q 1150 -23 1153 -87 q 1196 87 1147 41 l 627 87 q 673 -22 673 43 q 625 -132 673 -87 q 513 -174 578 -176 q 414 -129 456 -171 q 369 -30 372 -87 q 388 52 366 14 q 445 111 410 90 l 255 1042 l 65 1042 q 19 1061 38 1042 q 0 1107 0 1080 l 0 1150 q 19 1196 0 1177 q 65 1215 38 1215 l 345 1215 q 384 1200 366 1215 q 407 1164 401 1185 l 431 1042 l 1497 1042 q 1549 1017 1530 1042 q 1560 963 1568 993 l 1432 399 q 1409 361 1427 374 q 1370 347 1392 347 m 1107 760 l 977 760 l 977 868 q 964 899 977 887 q 933 911 952 911 l 890 911 q 859 899 871 911 q 846 868 846 887 l 846 760 l 716 760 q 685 747 697 760 q 673 716 673 735 l 673 673 q 685 642 673 654 q 716 629 697 629 l 846 629 l 846 521 q 859 490 846 502 q 890 477 871 477 l 933 477 q 964 490 952 477 q 977 521 977 502 l 977 629 l 1107 629 q 1138 642 1126 629 q 1150 673 1150 654 l 1150 716 q 1138 747 1150 735 q 1107 760 1126 760 z "},"":{"ha":1389,"x_min":-8,"x_max":1397,"o":"m 1245 521 l 1370 643 q 1386 707 1397 670 q 1340 751 1375 743 l 1169 795 l 1218 963 q 1202 1028 1229 1001 q 1137 1044 1175 1055 l 968 996 l 925 1166 q 880 1213 917 1202 q 817 1196 844 1223 l 694 1069 l 572 1196 q 510 1214 548 1223 q 464 1166 472 1204 l 420 996 l 252 1044 q 187 1028 214 1055 q 171 963 160 1001 l 220 795 l 49 751 q 3 707 14 743 q 19 643 -8 670 l 144 521 l 19 399 q 3 335 -8 372 q 49 290 14 298 l 220 247 l 171 79 q 187 14 160 41 q 252 -3 214 -14 l 420 46 l 464 -125 q 509 -172 472 -163 q 572 -155 545 -182 l 694 -30 l 817 -155 q 879 -172 841 -182 q 925 -125 917 -163 l 968 46 l 1137 -3 q 1202 14 1175 -14 q 1218 79 1229 41 l 1169 247 l 1340 290 q 1386 335 1375 298 q 1370 399 1397 372 l 1245 521 z "},"":{"ha":1389,"x_min":0,"x_max":1389,"o":"m 1356 174 q 1379 164 1370 174 q 1389 141 1389 155 l 1389 33 q 1379 9 1389 19 q 1356 0 1370 0 l 33 0 q 9 9 19 0 q 0 33 0 19 l 0 1009 q 9 1032 0 1023 q 33 1042 19 1042 l 141 1042 q 164 1032 155 1042 q 174 1009 174 1023 l 174 174 l 1356 174 m 1012 784 l 781 629 l 551 939 q 522 951 540 952 q 496 936 505 949 l 260 543 l 260 260 l 1302 260 l 1058 770 q 1038 788 1053 784 q 1012 781 1023 792 l 1012 784 z "},"":{"ha":1389,"x_min":0,"x_max":1389,"o":"m 1356 174 q 1379 164 1370 174 q 1389 141 1389 155 l 1389 33 q 1379 9 1389 19 q 1356 0 1370 0 l 33 0 q 9 9 19 0 q 0 33 0 19 l 0 1009 q 9 1032 0 1023 q 33 1042 19 1042 l 141 1042 q 164 1032 155 1042 q 174 1009 174 1023 l 174 174 l 1356 174 m 521 293 l 521 488 q 511 511 521 502 q 488 521 502 521 l 380 521 q 357 511 366 521 q 347 488 347 502 l 347 293 q 357 270 347 279 q 380 260 366 260 l 488 260 q 511 270 502 260 q 521 293 521 279 m 1042 293 l 1042 662 q 1032 685 1042 675 q 1009 694 1023 694 l 901 694 q 878 685 887 694 q 868 662 868 675 l 868 293 q 878 270 868 279 q 901 260 887 260 l 1009 260 q 1032 270 1023 260 q 1042 293 1042 279 m 781 293 l 781 836 q 772 859 781 849 q 749 868 762 868 l 640 868 q 617 859 627 868 q 608 836 608 849 l 608 293 q 617 270 608 279 q 640 260 627 260 l 749 260 q 772 270 762 260 q 781 293 781 279 m 1302 293 l 1302 922 q 1293 945 1302 936 q 1270 955 1283 955 l 1161 955 q 1138 945 1147 955 q 1128 922 1128 936 l 1128 293 q 1138 270 1128 279 q 1161 260 1147 260 l 1270 260 q 1293 270 1283 260 q 1302 293 1302 279 z "},"":{"ha":1389,"x_min":0,"x_max":1389,"o":"m 1356 174 q 1379 164 1370 174 q 1389 141 1389 155 l 1389 33 q 1379 9 1389 19 q 1356 0 1370 0 l 33 0 q 9 9 19 0 q 0 33 0 19 l 0 1009 q 9 1032 0 1023 q 33 1042 19 1042 l 141 1042 q 164 1032 155 1042 q 174 1009 174 1023 l 174 174 l 1356 174 m 1237 955 l 933 955 q 887 936 906 955 q 868 890 868 917 q 887 844 868 863 l 977 754 l 781 556 l 629 708 q 608 716 621 716 q 583 708 594 716 l 260 388 q 252 366 252 380 q 260 342 252 353 l 339 263 q 361 252 347 252 q 385 263 374 252 l 608 486 l 757 334 q 781 326 768 326 q 803 334 795 326 l 1101 629 l 1191 540 q 1237 521 1210 521 q 1283 540 1264 521 q 1302 586 1302 559 l 1302 890 q 1283 936 1302 917 q 1237 955 1264 955 z "},"":{"ha":1563,"x_min":-3,"x_max":1533,"o":"m 781 1183 l 781 564 l 1400 564 q 1423 575 1413 564 q 1432 600 1432 586 q 1340 901 1424 762 q 1118 1123 1256 1039 q 817 1215 979 1207 q 792 1206 803 1215 q 781 1183 781 1196 m 1500 434 q 1523 423 1514 434 q 1533 399 1533 412 q 1485 187 1527 290 q 1367 0 1443 84 q 1343 -12 1356 -11 q 1318 -3 1329 -14 l 882 434 l 1500 434 m 1088 41 q 1097 16 1099 30 q 1088 -5 1096 3 q 886 -130 998 -87 q 651 -174 773 -174 q 326 -85 475 -174 q 88 152 176 3 q 0 475 0 301 q 83 795 0 648 q 307 1029 165 941 q 616 1128 448 1118 q 640 1119 629 1128 q 651 1096 651 1109 l 651 477 l 1088 41 z "},"":{"ha":1389,"x_min":0,"x_max":1370,"o":"m 1367 521 q 1276 184 1367 339 q 1031 -61 1185 30 q 694 -152 876 -152 q 358 -61 513 -152 q 113 184 203 30 q 22 521 22 339 q 113 857 22 703 q 358 1103 203 1012 q 694 1194 513 1194 q 1031 1103 876 1194 q 1276 857 1185 1012 q 1367 521 1367 703 m 616 165 l 1115 665 q 1128 694 1128 675 q 1115 724 1128 713 l 1055 787 q 1024 800 1042 800 q 993 787 1006 800 l 586 380 l 396 570 q 365 583 382 583 q 334 570 347 583 l 274 507 q 260 477 260 496 q 274 448 260 458 l 556 165 q 586 152 567 152 q 616 165 605 152 z "},"":{"ha":1215,"x_min":0,"x_max":1215,"o":"m 1085 -87 l 130 -87 q 38 -49 76 -87 q 0 43 0 -11 l 0 998 q 38 1090 0 1053 q 130 1128 76 1128 l 1085 1128 q 1177 1090 1139 1128 q 1215 998 1215 1053 l 1215 43 q 1177 -49 1215 -11 q 1085 -87 1139 -87 m 529 179 l 1028 678 q 1042 709 1042 692 q 1028 741 1042 727 l 968 800 q 937 814 955 814 q 906 800 920 814 l 499 393 l 309 583 q 278 597 296 597 q 247 583 260 597 l 187 524 q 174 492 174 510 q 187 461 174 475 l 469 179 q 499 165 480 165 q 529 179 518 165 z "},"":{"ha":1389,"x_min":0,"x_max":1389,"o":"m 472 24 l 19 475 q 0 524 0 494 q 19 572 0 553 l 119 670 q 167 692 138 692 q 217 670 195 692 l 521 366 l 1172 1017 q 1222 1039 1194 1039 q 1270 1017 1251 1039 l 1370 920 q 1389 871 1389 901 q 1370 822 1389 841 l 570 24 q 521 3 551 3 q 472 24 491 3 z "},"":{"ha":868,"x_min":0,"x_max":868,"o":"m 334 1004 q 281 1043 301 1015 q 260 1107 260 1072 q 292 1184 260 1153 q 369 1215 323 1215 l 499 1215 q 575 1184 543 1215 q 608 1107 608 1153 q 587 1043 608 1072 q 534 1004 567 1015 q 719 781 632 936 l 393 456 q 388 444 388 450 q 393 431 388 437 l 431 393 q 444 388 437 388 q 456 393 450 388 l 762 700 q 841 391 841 529 q 798 231 841 288 q 684 157 762 179 l 684 0 l 184 0 l 184 157 q 71 231 106 179 q 27 391 27 288 q 73 621 27 494 q 189 846 117 741 q 334 1004 260 952 m 868 -141 l 868 -76 q 859 -53 868 -62 q 836 -43 849 -43 l 33 -43 q 9 -53 19 -43 q 0 -76 0 -62 l 0 -141 q 9 -164 0 -155 q 33 -174 19 -174 l 836 -174 q 859 -164 849 -174 q 868 -141 868 -155 z "},"":{"ha":1389,"x_min":0,"x_max":1389,"o":"m 694 521 l 694 347 l 521 347 l 521 521 l 694 521 m 694 1215 l 521 1215 l 521 1042 l 694 1042 l 694 1215 m 694 521 l 868 521 l 868 694 l 694 694 l 694 521 m 1042 1215 l 868 1215 l 868 1042 l 1042 1042 l 1042 1215 m 1042 -174 l 1215 -174 l 1215 0 l 1042 0 l 1042 -174 m 1389 0 l 1389 174 l 1215 174 l 1215 0 l 1389 0 m 347 -174 l 521 -174 l 521 0 l 347 0 l 347 -174 m 347 1215 l 174 1215 l 174 1042 l 347 1042 l 347 1215 m 1389 694 l 1389 868 l 1215 868 l 1215 694 l 1389 694 m 1389 347 l 1389 521 l 1215 521 l 1215 347 l 1389 347 m 0 -174 l 174 -174 l 174 0 l 0 0 l 0 -174 m 0 1042 l 0 868 l 174 868 l 174 1042 l 0 1042 m 0 694 l 0 521 l 174 521 l 174 694 l 0 694 m 0 347 l 0 174 l 174 174 l 174 347 l 0 347 m 694 -174 l 868 -174 l 868 0 l 694 0 l 694 -174 m 521 174 l 521 0 l 694 0 l 694 174 l 521 174 m 694 694 l 694 868 l 521 868 l 521 694 l 694 694 m 174 174 l 174 0 l 347 0 l 347 174 l 174 174 m 347 521 l 174 521 l 174 347 l 347 347 l 347 521 m 1042 174 l 1215 174 l 1215 347 l 1042 347 l 1042 174 m 1389 1215 l 1215 1215 l 1215 1042 l 1389 1042 l 1389 1215 m 1042 521 l 1215 521 l 1215 694 l 1042 694 l 1042 521 m 1042 1042 l 1042 868 l 1215 868 l 1215 1042 l 1042 1042 m 868 174 l 868 0 l 1042 0 l 1042 174 l 868 174 m 347 347 l 347 174 l 521 174 l 521 347 l 347 347 m 694 347 l 694 174 l 868 174 l 868 347 l 694 347 m 521 694 l 347 694 l 347 521 l 521 521 l 521 694 m 347 868 l 174 868 l 174 694 l 347 694 l 347 868 m 868 347 l 1042 347 l 1042 521 l 868 521 l 868 347 m 521 868 l 521 1042 l 347 1042 l 347 868 l 521 868 m 868 868 l 868 1042 l 694 1042 l 694 868 l 868 868 m 868 694 l 1042 694 l 1042 868 l 868 868 l 868 694 z "},"":{"ha":1215,"x_min":-14,"x_max":1229,"o":"m 1128 -76 l 1128 -141 q 1119 -164 1128 -155 q 1096 -174 1109 -174 l 119 -174 q 96 -164 106 -174 q 87 -141 87 -155 l 87 -76 q 96 -53 87 -62 q 119 -43 106 -43 l 1096 -43 q 1119 -53 1109 -43 q 1128 -76 1128 -62 m 1107 803 l 673 803 l 673 933 l 808 933 q 819 939 814 933 q 825 949 825 944 l 825 1047 q 819 1058 825 1053 q 808 1063 814 1063 l 673 1063 l 673 1199 q 667 1210 673 1204 q 656 1215 662 1215 l 559 1215 q 548 1210 553 1215 q 543 1199 543 1204 l 543 1063 l 407 1063 q 396 1058 401 1063 q 391 1047 391 1053 l 391 949 q 396 939 391 944 q 407 933 401 933 l 543 933 l 543 803 l 109 803 q 19 757 52 803 q 5 659 -14 711 l 239 0 l 977 0 l 1210 659 q 1196 757 1229 711 q 1107 803 1164 803 z "},"":{"ha":1042,"x_min":-3,"x_max":1042,"o":"m 955 608 l 955 0 l 87 0 l 87 127 q 119 240 87 187 q 206 320 152 293 l 361 399 q 415 446 396 415 q 434 515 434 477 l 434 651 l 374 621 q 339 578 347 608 l 307 450 q 288 429 304 434 l 209 396 q 182 396 195 391 l 19 469 q 0 499 0 477 l 0 928 q 19 974 0 955 l 43 998 l 5 1074 q 0 1097 0 1085 q 9 1119 0 1109 q 33 1128 19 1128 l 434 1128 q 694 1058 575 1128 q 884 868 814 987 q 955 608 955 749 m 1009 -43 l 33 -43 q 9 -53 19 -43 q 0 -76 0 -62 l 0 -141 q 9 -164 0 -155 q 33 -174 19 -174 l 1009 -174 q 1032 -164 1023 -174 q 1042 -141 1042 -155 l 1042 -76 q 1032 -53 1042 -62 q 1009 -43 1023 -43 m 141 868 q 103 852 119 868 q 87 814 87 836 q 103 776 87 792 q 141 760 119 760 q 179 776 163 760 q 195 814 195 792 q 179 852 195 836 q 141 868 163 868 z "},"":{"ha":868,"x_min":0,"x_max":825,"o":"m 716 0 l 152 0 l 176 24 q 233 103 209 57 q 290 250 269 168 q 315 477 315 353 l 228 477 q 205 487 214 477 q 195 510 195 496 l 195 575 q 205 598 195 589 q 228 608 214 608 l 336 608 q 241 690 277 635 q 206 814 206 746 q 273 975 206 909 q 434 1042 339 1042 q 595 975 529 1042 q 662 814 662 909 q 627 690 662 746 q 532 608 591 635 l 640 608 q 663 598 654 608 q 673 575 673 589 l 673 510 q 663 487 673 496 q 640 477 654 477 l 553 477 q 597 193 553 317 q 673 43 627 106 q 716 0 697 14 l 716 0 m 792 -43 l 76 -43 q 53 -53 62 -43 q 43 -76 43 -62 l 43 -141 q 53 -164 43 -155 q 76 -174 62 -174 l 792 -174 q 815 -164 806 -174 q 825 -141 825 -155 l 825 -76 q 815 -53 825 -62 q 792 -43 806 -43 z "},"":{"ha":1389,"x_min":0,"x_max":1375,"o":"m 1183 -174 l 206 -174 q 183 -164 193 -174 q 174 -141 174 -155 l 174 -76 q 183 -53 174 -62 q 206 -43 193 -43 l 1183 -43 q 1206 -53 1196 -43 q 1215 -76 1215 -62 l 1215 -141 q 1206 -164 1215 -155 q 1183 -174 1196 -174 m 694 1215 q 586 1171 629 1215 q 543 1063 543 1126 q 586 956 543 1001 q 693 911 629 911 q 802 956 757 911 q 846 1063 846 1001 q 802 1171 846 1126 q 694 1215 757 1215 m 1248 795 q 1223 799 1237 803 q 1204 784 1210 795 q 1085 681 1147 681 q 1015 719 1031 681 q 998 836 1001 749 q 989 859 998 849 q 966 868 979 868 l 854 868 q 825 846 833 868 q 772 764 806 792 q 694 735 738 735 q 617 764 651 735 q 564 846 583 792 q 534 868 556 868 l 423 868 q 400 859 410 868 q 391 836 391 849 q 374 719 388 749 q 304 681 358 681 q 233 713 266 681 q 184 784 212 735 q 164 799 176 795 q 141 795 152 803 l 33 741 q 18 722 22 732 q 19 697 14 711 l 304 0 l 1085 0 l 1370 697 q 1371 722 1375 711 q 1356 741 1367 732 l 1248 795 z "},"":{"ha":1042,"x_min":0,"x_max":1042,"o":"m 220 632 q 130 0 217 298 l 911 0 q 822 632 825 298 l 944 746 q 955 770 955 757 l 955 1096 q 945 1119 955 1109 q 922 1128 936 1128 l 814 1128 q 791 1119 800 1128 q 781 1096 781 1109 l 781 977 l 651 977 l 651 1096 q 642 1119 651 1109 q 618 1128 632 1128 l 423 1128 q 400 1119 410 1128 q 391 1096 391 1109 l 391 977 l 260 977 l 260 1096 q 251 1119 260 1109 q 228 1128 241 1128 l 119 1128 q 96 1119 106 1128 q 87 1096 87 1109 l 87 770 q 98 746 87 757 l 220 632 m 434 521 q 460 582 434 556 q 521 608 486 608 q 582 582 556 608 q 608 521 608 556 l 608 347 l 434 347 l 434 521 m 1042 -76 l 1042 -141 q 1032 -164 1042 -155 q 1009 -174 1023 -174 l 33 -174 q 9 -164 19 -174 q 0 -141 0 -155 l 0 -76 q 9 -53 0 -62 q 33 -43 19 -43 l 1009 -43 q 1032 -53 1023 -43 q 1042 -76 1042 -62 z "},"":{"ha":1389,"x_min":0,"x_max":1375,"o":"m 543 624 q 553 620 548 624 q 559 608 559 616 l 559 553 q 553 541 559 545 q 543 537 548 537 l 472 537 l 472 513 q 477 336 472 404 q 518 119 488 212 l 176 119 q 217 336 206 214 q 222 513 222 407 l 222 537 l 152 537 q 141 541 146 537 q 136 553 136 545 l 136 608 q 141 620 136 616 q 152 624 146 624 l 543 624 m 114 903 l 206 646 l 488 646 l 581 903 q 578 933 589 920 q 551 947 567 947 l 412 947 l 412 1028 l 472 1028 q 483 1034 477 1028 q 488 1044 488 1039 l 488 1107 q 483 1118 488 1112 q 472 1123 477 1123 l 393 1123 l 393 1199 q 389 1210 393 1204 q 377 1215 385 1215 l 317 1215 q 305 1210 309 1215 q 301 1199 301 1204 l 301 1123 l 222 1123 q 212 1118 217 1123 q 206 1107 206 1112 l 206 1044 q 212 1034 206 1039 q 222 1028 217 1028 l 282 1028 l 282 947 l 144 947 q 117 933 127 947 q 114 903 106 920 m 605 8 l 605 84 q 600 95 605 90 q 589 100 594 100 l 106 100 q 95 95 100 100 q 90 84 90 90 l 90 8 l 30 -30 q 22 -43 22 -35 l 22 -157 q 27 -168 22 -163 q 38 -174 33 -174 l 656 -174 q 667 -168 662 -174 q 673 -157 673 -163 l 673 -43 q 665 -30 673 -35 l 605 8 m 849 399 l 917 353 q 884 43 917 184 l 1286 43 q 1253 353 1253 184 l 1321 399 q 1324 407 1324 401 l 1324 597 q 1321 605 1324 602 q 1316 608 1318 608 l 1240 608 q 1229 597 1229 608 l 1229 513 l 1166 513 l 1166 597 q 1164 605 1166 602 q 1156 608 1161 608 l 1015 608 q 1004 597 1004 608 l 1004 513 l 941 513 l 941 597 q 939 605 941 602 q 930 608 936 608 l 854 608 q 849 605 852 608 q 846 597 846 602 l 846 407 q 849 399 846 401 m 1044 258 q 1057 286 1044 274 q 1085 298 1069 298 q 1114 286 1101 298 q 1126 258 1126 274 l 1126 176 l 1044 176 l 1044 258 m 1370 -60 l 1332 -30 l 1332 11 q 1329 19 1332 16 q 1321 22 1326 22 l 849 22 q 841 19 844 22 q 838 11 838 16 l 838 -30 l 800 -60 q 798 -68 798 -62 l 798 -163 q 800 -171 798 -168 q 808 -174 803 -174 l 1362 -174 q 1370 -171 1367 -174 q 1373 -163 1373 -168 l 1373 -68 q 1370 -60 1373 -62 z "},"":{"ha":1389,"x_min":0,"x_max":1367,"o":"m 1367 521 q 1276 184 1367 339 q 1031 -61 1185 30 q 694 -152 876 -152 q 358 -61 513 -152 q 113 184 203 30 q 22 521 22 339 q 113 857 22 703 q 358 1103 203 1012 q 694 1194 513 1194 q 1031 1103 876 1194 q 1276 857 1185 1012 q 1367 521 1367 703 m 741 212 l 1109 581 q 1128 627 1128 600 q 1109 673 1128 654 l 1063 719 q 1016 738 1042 738 q 971 719 990 738 l 694 442 l 418 719 q 372 738 399 738 q 328 716 345 738 l 282 673 q 260 625 260 651 q 282 581 260 600 l 648 212 q 694 193 667 193 q 741 212 722 193 z "},"":{"ha":1389,"x_min":0,"x_max":1367,"o":"m 694 -152 q 358 -61 513 -152 q 113 184 203 30 q 22 521 22 339 q 113 857 22 703 q 358 1103 203 1012 q 694 1194 513 1194 q 1031 1103 876 1194 q 1276 857 1185 1012 q 1367 521 1367 703 q 1276 184 1367 339 q 1031 -61 1185 30 q 694 -152 876 -152 m 385 475 l 754 109 q 800 87 773 87 q 846 106 827 87 l 892 155 q 911 199 911 174 q 890 244 911 225 l 616 521 l 892 798 q 911 844 911 817 q 890 887 911 871 l 846 936 q 799 955 825 955 q 754 936 773 955 l 385 567 q 366 521 366 548 q 385 475 366 494 z "},"":{"ha":1389,"x_min":0,"x_max":1367,"o":"m 694 1194 q 1031 1103 876 1194 q 1276 857 1185 1012 q 1367 521 1367 703 q 1276 184 1367 339 q 1031 -61 1185 30 q 694 -152 876 -152 q 358 -61 513 -152 q 113 184 203 30 q 22 521 22 339 q 113 857 22 703 q 358 1103 203 1012 q 694 1194 513 1194 m 1004 567 l 635 936 q 589 955 616 955 q 545 936 562 955 l 499 890 q 477 842 477 868 q 499 798 477 817 l 773 521 l 499 244 q 477 198 477 225 q 499 152 477 171 l 545 109 q 590 87 564 87 q 635 106 616 87 l 1004 475 q 1023 521 1023 494 q 1004 567 1023 548 z "},"":{"ha":1389,"x_min":0,"x_max":1367,"o":"m 22 521 q 113 857 22 703 q 358 1103 203 1012 q 694 1194 513 1194 q 1031 1103 876 1194 q 1276 857 1185 1012 q 1367 521 1367 703 q 1276 184 1367 339 q 1031 -61 1185 30 q 694 -152 876 -152 q 358 -61 513 -152 q 113 184 203 30 q 22 521 22 339 m 648 830 l 282 461 q 260 415 260 442 q 282 372 260 388 l 328 326 q 373 304 347 304 q 418 326 399 304 l 694 600 l 971 326 q 1017 304 990 304 q 1063 326 1044 304 l 1109 372 q 1128 416 1128 391 q 1109 461 1128 442 l 741 830 q 694 849 722 849 q 648 830 667 849 z "},"":{"ha":1215,"x_min":0,"x_max":1202,"o":"m 562 182 l 35 708 q 16 754 16 727 q 35 800 16 781 l 95 860 q 141 880 114 879 q 187 863 168 882 l 608 442 l 1028 863 q 1074 880 1047 882 q 1120 860 1101 879 l 1180 800 q 1199 754 1199 781 q 1180 708 1199 727 l 654 182 q 608 160 635 160 q 562 182 581 160 z "},"":{"ha":868,"x_min":0,"x_max":795,"o":"m 95 567 l 621 1093 q 667 1112 640 1112 q 713 1093 694 1112 l 773 1034 q 793 987 792 1015 q 776 941 795 960 l 355 521 l 776 100 q 793 54 795 81 q 773 8 792 27 l 713 -52 q 667 -71 694 -71 q 621 -52 640 -71 l 95 475 q 73 521 73 494 q 95 567 73 548 z "},"":{"ha":868,"x_min":0,"x_max":795,"o":"m 773 475 l 247 -52 q 201 -71 228 -71 q 155 -52 174 -71 l 95 8 q 75 54 76 27 q 92 100 73 81 l 513 521 l 92 941 q 75 987 73 960 q 95 1034 76 1015 l 155 1093 q 201 1112 174 1112 q 247 1093 228 1112 l 773 567 q 795 521 795 548 q 773 475 795 494 z "},"":{"ha":1215,"x_min":0,"x_max":1202,"o":"m 654 860 l 1180 334 q 1199 288 1199 315 q 1180 241 1199 260 l 1120 182 q 1074 161 1101 163 q 1028 179 1047 160 l 608 600 l 187 179 q 141 161 168 160 q 95 182 114 163 l 35 241 q 16 288 16 260 q 35 334 16 315 l 562 860 q 608 882 581 882 q 654 860 635 882 z "},"":{"ha":1042,"x_min":0,"x_max":1042,"o":"m 326 1020 q 382 1158 326 1101 q 521 1215 439 1215 q 659 1158 602 1215 q 716 1020 716 1101 q 659 882 716 939 q 521 825 602 825 q 382 882 439 825 q 326 1020 326 939 m 1017 1017 q 955 1042 990 1042 q 892 1017 920 1042 l 659 781 l 382 781 l 149 1017 q 87 1042 122 1042 q 26 1016 52 1042 q 0 955 0 990 q 24 892 0 920 l 282 637 l 282 -87 q 308 -148 282 -122 q 369 -174 334 -174 l 412 -174 q 473 -148 448 -174 q 499 -87 499 -122 l 499 217 l 543 217 l 543 -87 q 568 -148 543 -122 q 629 -174 594 -174 l 673 -174 q 734 -148 708 -174 q 760 -87 760 -122 l 760 637 l 1017 892 q 1042 955 1042 920 q 1017 1017 1042 990 z "},"":{"ha":1389,"x_min":0,"x_max":1370,"o":"m 781 1109 l 781 1063 q 795 1024 781 1042 q 830 1001 808 1006 q 1090 825 987 958 q 1194 521 1194 692 q 1127 270 1194 385 q 945 88 1061 155 q 694 22 830 22 q 444 88 559 22 q 262 270 328 155 q 195 521 195 385 q 298 825 195 692 q 559 1001 401 958 q 594 1024 581 1006 q 608 1063 608 1042 l 608 1109 q 582 1161 608 1142 q 526 1172 556 1180 q 267 1039 382 1134 q 87 808 152 944 q 22 518 22 673 q 113 180 22 334 q 358 -62 203 27 q 696 -152 513 -152 q 1032 -61 879 -152 q 1276 184 1185 30 q 1367 521 1367 339 q 1302 811 1367 675 q 1122 1042 1237 947 q 863 1172 1006 1137 q 806 1161 830 1180 q 781 1109 781 1142 z "},"":{"ha":1389,"x_min":0,"x_max":1367,"o":"m 694 1194 q 358 1103 513 1194 q 113 857 203 1012 q 22 521 22 703 q 113 184 22 339 q 358 -61 203 30 q 694 -152 513 -152 q 1031 -61 876 -152 q 1276 184 1185 30 q 1367 521 1367 339 q 1276 857 1367 703 q 1031 1103 1185 1012 q 694 1194 876 1194 z "},"":{"ha":1042,"x_min":0,"x_max":1042,"o":"m 911 1042 l 694 1042 q 643 1164 694 1112 q 521 1215 591 1215 q 399 1164 450 1215 q 347 1042 347 1112 l 130 1042 q 38 1004 76 1042 q 0 911 0 966 l 0 -43 q 38 -136 0 -98 q 130 -174 76 -174 l 911 -174 q 1004 -136 966 -174 q 1042 -43 1042 -98 l 1042 911 q 1004 1004 1042 966 q 911 1042 966 1042 m 521 1107 q 567 1088 548 1107 q 586 1042 586 1069 q 567 996 586 1015 q 521 977 548 977 q 475 996 494 977 q 456 1042 456 1015 q 475 1088 456 1069 q 521 1107 494 1107 m 849 477 l 461 92 q 439 84 453 84 q 415 95 426 84 l 193 320 q 182 342 182 328 q 193 366 182 355 l 269 442 q 293 452 279 453 q 315 442 307 450 l 439 317 l 727 602 q 751 610 738 610 q 773 602 765 610 l 849 524 q 860 502 860 515 q 849 477 860 488 z "},"":{"ha":1042,"x_min":0,"x_max":1042,"o":"m 911 1042 l 694 1042 q 643 1164 694 1112 q 521 1215 591 1215 q 399 1164 450 1215 q 347 1042 347 1112 l 130 1042 q 38 1004 76 1042 q 0 911 0 966 l 0 -43 q 38 -136 0 -98 q 130 -174 76 -174 l 911 -174 q 1004 -136 966 -174 q 1042 -43 1042 -98 l 1042 911 q 1004 1004 1042 966 q 911 1042 966 1042 m 260 65 q 214 84 233 65 q 195 130 195 103 q 214 176 195 157 q 260 195 233 195 q 307 176 288 195 q 326 130 326 157 q 307 84 326 103 q 260 65 288 65 m 260 326 q 214 345 233 326 q 195 391 195 363 q 214 437 195 418 q 260 456 233 456 q 307 437 288 456 q 326 391 326 418 q 307 345 326 363 q 260 326 288 326 m 260 586 q 214 605 233 586 q 195 651 195 624 q 214 697 195 678 q 260 716 233 716 q 307 697 288 716 q 326 651 326 678 q 307 605 326 624 q 260 586 288 586 m 521 1107 q 567 1088 548 1107 q 586 1042 586 1069 q 567 996 586 1015 q 521 977 548 977 q 475 996 494 977 q 456 1042 456 1015 q 475 1088 456 1069 q 521 1107 494 1107 m 868 109 q 861 94 868 100 q 846 87 854 87 l 456 87 q 441 94 448 87 q 434 109 434 100 l 434 152 q 441 167 434 160 q 456 174 448 174 l 846 174 q 861 167 854 174 q 868 152 868 160 l 868 109 m 868 369 q 861 354 868 361 q 846 347 854 347 l 456 347 q 441 354 448 347 q 434 369 434 361 l 434 412 q 441 427 434 420 q 456 434 448 434 l 846 434 q 861 427 854 434 q 868 412 868 420 l 868 369 m 868 629 q 861 614 868 621 q 846 608 854 608 l 456 608 q 441 614 448 608 q 434 629 434 621 l 434 673 q 441 688 434 681 q 456 694 448 694 l 846 694 q 861 688 854 694 q 868 673 868 681 l 868 629 z "},"":{"ha":1042,"x_min":0,"x_max":1042,"o":"m 1042 911 l 1042 -43 q 1004 -136 1042 -98 q 911 -174 966 -174 l 130 -174 q 38 -136 76 -174 q 0 -43 0 -98 l 0 911 q 38 1004 0 966 q 130 1042 76 1042 l 347 1042 q 399 1164 347 1112 q 521 1215 450 1215 q 643 1164 591 1215 q 694 1042 694 1112 l 911 1042 q 1004 1004 966 1042 q 1042 911 1042 966 m 521 1107 q 475 1088 494 1107 q 456 1042 456 1069 q 475 996 456 1015 q 521 977 494 977 q 567 996 548 977 q 586 1042 586 1015 q 567 1088 586 1069 q 521 1107 548 1107 m 781 798 l 781 852 q 776 863 781 857 q 765 868 770 868 l 277 868 q 266 863 271 868 q 260 852 260 857 l 260 798 q 266 787 260 792 q 277 781 271 781 l 765 781 q 776 787 770 781 q 781 798 781 792 z "},"":{"ha":1389,"x_min":0,"x_max":1367,"o":"m 694 1194 q 358 1103 513 1194 q 113 857 203 1012 q 22 521 22 703 q 113 184 22 339 q 358 -61 203 30 q 694 -152 513 -152 q 1031 -61 876 -152 q 1276 184 1185 30 q 1367 521 1367 339 q 1276 857 1367 703 q 1031 1103 1185 1012 q 694 1194 876 1194 m 849 244 l 610 418 q 597 445 597 429 l 597 901 q 606 924 597 914 q 629 933 616 933 l 760 933 q 783 924 773 933 q 792 901 792 914 l 792 526 l 966 401 q 978 380 977 393 q 971 355 979 366 l 895 252 q 873 239 887 241 q 849 244 860 236 z "},"":{"ha":1389,"x_min":0,"x_max":1389,"o":"m 1259 1215 q 1351 1177 1313 1215 q 1389 1085 1389 1139 l 1389 304 q 1351 212 1389 250 q 1259 174 1313 174 l 477 174 q 385 212 423 174 q 347 304 347 250 l 347 1085 q 385 1177 347 1139 q 477 1215 423 1215 l 1259 1215 m 477 87 q 324 151 388 87 q 260 304 260 214 l 260 868 l 130 868 q 38 830 76 868 q 0 738 0 792 l 0 -43 q 38 -136 0 -98 q 130 -174 76 -174 l 911 -174 q 1004 -136 966 -174 q 1042 -43 1042 -98 l 1042 87 l 477 87 z "},"":{"ha":1389,"x_min":0,"x_max":1389,"o":"m 1259 1042 l 130 1042 q 38 1004 76 1042 q 0 911 0 966 l 0 130 q 38 38 0 76 q 130 0 76 0 l 1259 0 q 1351 38 1313 0 q 1389 130 1389 76 l 1389 911 q 1351 1004 1389 966 q 1259 1042 1313 1042 m 591 434 q 605 439 597 439 q 616 431 613 439 l 670 358 q 667 336 678 347 q 536 262 616 279 q 378 269 456 244 q 252 355 301 293 q 201 521 201 423 q 290 716 201 646 q 486 780 372 781 q 667 711 600 779 q 670 694 675 703 l 624 613 q 612 604 618 605 q 597 608 605 602 q 484 652 545 651 q 382 618 423 654 q 342 521 342 583 q 381 419 342 458 q 479 382 420 380 q 591 434 537 385 m 1109 434 q 1122 439 1115 439 q 1134 431 1128 439 l 1185 358 q 1185 336 1194 347 q 1051 262 1131 279 q 894 269 971 244 q 768 355 817 293 q 716 521 716 423 q 806 716 716 646 q 1001 780 887 781 q 1185 711 1115 779 q 1185 694 1191 703 l 1139 613 q 1128 604 1137 605 q 1115 608 1120 602 q 1000 652 1061 651 q 898 618 939 654 q 857 521 857 583 q 897 419 857 458 q 996 382 936 380 q 1109 434 1055 385 z "},"":{"ha":1736,"x_min":0,"x_max":1736,"o":"m 1736 260 q 1690 85 1736 165 q 1564 -41 1644 5 q 1389 -87 1484 -87 l 391 -87 q 195 -34 285 -87 q 53 109 106 19 q 0 304 0 198 q 73 530 0 429 q 260 673 146 632 l 260 694 q 319 911 260 811 q 477 1070 377 1012 q 696 1128 578 1128 q 914 1069 814 1128 q 1072 911 1015 1009 q 1215 955 1137 955 q 1400 879 1324 955 q 1476 694 1476 803 q 1459 600 1476 646 q 1657 480 1579 575 q 1736 260 1736 385 m 1066 434 l 890 434 l 890 738 q 878 769 890 757 q 846 781 865 781 l 716 781 q 685 769 697 781 q 673 738 673 757 l 673 434 l 496 434 q 456 407 467 434 q 464 361 445 380 l 751 73 q 781 62 762 62 q 811 73 800 62 l 1099 361 q 1107 407 1118 380 q 1066 434 1096 434 z "},"":{"ha":1736,"x_min":0,"x_max":1736,"o":"m 1736 260 q 1690 85 1736 165 q 1564 -41 1644 5 q 1389 -87 1484 -87 l 391 -87 q 195 -34 285 -87 q 53 109 106 19 q 0 304 0 198 q 73 530 0 429 q 260 673 146 632 l 260 694 q 319 911 260 811 q 477 1070 377 1012 q 696 1128 578 1128 q 914 1069 814 1128 q 1072 911 1015 1009 q 1215 955 1137 955 q 1400 879 1324 955 q 1476 694 1476 803 q 1459 600 1476 646 q 1657 480 1579 575 q 1736 260 1736 385 m 1099 507 l 811 795 q 781 806 800 806 q 751 795 762 806 l 464 507 q 456 461 445 488 q 496 434 467 434 l 673 434 l 673 130 q 685 99 673 111 q 716 87 697 87 l 846 87 q 878 99 865 87 q 890 130 890 111 l 890 434 l 1066 434 q 1107 461 1096 434 q 1099 507 1118 488 z "},"":{"ha":1736,"x_min":-3,"x_max":1736,"o":"m 1459 600 q 1476 694 1476 646 q 1400 879 1476 803 q 1215 955 1324 955 q 1072 911 1137 955 q 914 1069 1015 1009 q 696 1128 814 1128 q 477 1070 578 1128 q 319 911 377 1012 q 260 694 260 811 l 260 673 q 73 530 146 632 q 0 304 0 429 q 53 109 0 198 q 195 -34 106 19 q 391 -87 285 -87 l 1389 -87 q 1564 -41 1484 -87 q 1690 85 1644 5 q 1736 260 1736 165 q 1657 480 1736 385 q 1459 600 1579 575 z "},"":{"ha":1042,"x_min":-3,"x_max":1042,"o":"m 1042 825 q 978 978 1042 914 q 825 1042 914 1042 q 671 978 735 1042 q 608 825 608 914 q 651 694 608 751 q 765 616 694 637 q 734 515 762 551 q 640 464 705 480 q 502 448 600 456 q 388 431 426 439 q 282 401 326 420 l 282 792 q 392 868 350 811 q 434 998 434 925 q 370 1152 434 1088 q 217 1215 307 1215 q 64 1152 127 1215 q 0 998 0 1088 q 42 868 0 925 q 152 792 84 811 l 152 250 q 42 174 84 231 q 0 43 0 117 q 64 -110 0 -46 q 217 -174 127 -174 q 370 -110 307 -174 q 434 43 434 -46 q 396 167 434 111 q 296 247 358 222 q 336 282 309 269 q 415 307 363 296 q 513 317 445 309 l 515 317 q 689 345 632 328 q 836 434 784 372 q 895 618 892 505 q 1001 697 960 640 q 1042 825 1042 754 m 217 1042 q 248 1029 236 1042 q 260 998 260 1017 q 248 967 260 979 q 217 955 236 955 q 186 967 198 955 q 174 998 174 979 q 186 1029 174 1017 q 217 1042 198 1042 m 217 0 q 186 12 198 0 q 174 43 174 24 q 186 75 174 62 q 217 87 198 87 q 248 75 236 87 q 260 43 260 62 q 248 12 260 24 q 217 0 236 0 m 825 868 q 856 856 844 868 q 868 825 868 844 q 856 793 868 806 q 825 781 844 781 q 793 793 806 781 q 781 825 781 806 q 793 856 781 844 q 825 868 806 868 z "},"":{"ha":1736,"x_min":-3,"x_max":1739,"o":"m 757 -171 l 591 -125 q 571 -109 578 -119 q 570 -84 564 -98 l 939 1191 q 955 1211 944 1204 q 979 1215 966 1218 l 1145 1166 q 1165 1150 1158 1161 q 1166 1126 1172 1139 l 798 -149 q 781 -170 792 -163 q 757 -171 770 -176 m 448 133 l 564 258 q 574 282 575 269 q 564 304 572 296 l 317 521 l 564 738 q 574 760 572 746 q 564 784 575 773 l 448 909 q 426 920 439 920 q 401 911 412 920 l 11 545 q 0 521 0 534 q 11 496 0 507 l 401 130 q 426 122 412 122 q 448 133 439 122 m 1335 130 l 1725 496 q 1736 521 1736 507 q 1725 545 1736 534 l 1335 911 q 1312 920 1324 920 q 1289 909 1299 920 l 1172 784 q 1162 760 1161 773 q 1172 738 1164 746 l 1419 521 l 1172 304 q 1162 282 1164 296 q 1172 258 1161 269 l 1289 133 q 1310 122 1297 122 q 1335 130 1324 122 z "},"":{"ha":1736,"x_min":-5,"x_max":1736,"o":"m 521 174 l 1042 174 q 1226 250 1150 174 q 1302 434 1302 326 l 1389 434 q 1564 480 1484 434 q 1690 606 1644 526 q 1736 781 1736 686 q 1690 956 1736 876 q 1564 1082 1644 1036 q 1389 1128 1484 1128 l 326 1128 q 279 1109 298 1128 q 260 1063 260 1090 l 260 434 q 336 250 260 326 q 521 174 412 174 m 1389 955 q 1511 903 1459 955 q 1563 781 1563 852 q 1511 659 1563 711 q 1389 608 1459 608 l 1302 608 l 1302 955 l 1389 955 m 1519 -87 l 130 -87 q 52 -60 87 -87 q 8 -1 22 -35 q 1 60 -5 33 q 33 87 8 87 l 1617 87 q 1648 60 1641 87 q 1641 -1 1655 33 q 1598 -60 1628 -35 q 1519 -87 1563 -87 z "},"":{"ha":1389,"x_min":0,"x_max":1343,"o":"m 1207 426 l 1321 358 q 1336 342 1332 353 q 1337 320 1340 331 q 1188 65 1291 176 q 1169 54 1180 57 q 1147 57 1158 52 l 1034 125 q 868 30 960 62 l 868 -103 q 861 -123 868 -114 q 844 -136 854 -133 q 545 -136 694 -168 q 528 -123 534 -133 q 521 -103 521 -114 l 521 30 q 355 125 429 62 l 241 57 q 220 54 231 52 q 201 65 209 57 q 52 320 98 176 q 53 342 49 331 q 68 358 57 353 l 182 426 q 182 616 165 521 l 68 684 q 53 700 57 689 q 52 722 49 711 q 201 977 98 865 q 220 987 209 985 q 241 985 231 990 l 355 917 q 521 1012 429 979 l 521 1145 q 528 1165 521 1156 q 545 1177 534 1175 q 844 1177 694 1210 q 861 1165 854 1175 q 868 1145 868 1156 l 868 1012 q 1034 917 960 979 l 1147 985 q 1169 987 1158 990 q 1188 977 1180 985 q 1337 722 1291 865 q 1336 700 1340 711 q 1321 684 1332 689 l 1207 616 q 1207 426 1223 521 m 911 521 q 848 674 911 610 q 694 738 784 738 q 541 674 605 738 q 477 521 477 610 q 541 368 477 431 q 694 304 605 304 q 848 368 784 304 q 911 521 911 431 z "},"":{"ha":1736,"x_min":-5,"x_max":1742,"o":"m 1389 697 l 1367 659 q 1350 644 1362 648 q 1326 643 1337 640 q 1240 694 1278 662 q 1227 715 1229 703 q 1232 738 1226 727 l 1253 776 q 1210 849 1226 808 l 1166 849 q 1143 857 1153 849 q 1134 879 1134 865 q 1131 979 1123 928 q 1143 998 1134 990 q 1166 1006 1153 1006 l 1210 1006 q 1253 1082 1226 1047 l 1232 1120 q 1227 1143 1226 1131 q 1240 1164 1229 1156 q 1326 1213 1278 1194 q 1350 1214 1337 1218 q 1367 1199 1362 1210 l 1389 1158 q 1476 1158 1432 1166 l 1497 1199 q 1515 1214 1503 1210 q 1538 1213 1527 1218 q 1625 1164 1587 1196 q 1637 1143 1636 1156 q 1633 1120 1638 1131 l 1611 1082 q 1655 1006 1638 1047 l 1698 1006 q 1721 998 1712 1006 q 1731 979 1731 990 q 1731 879 1742 928 q 1721 857 1731 865 q 1698 849 1712 849 l 1655 849 q 1611 776 1638 808 l 1633 738 q 1637 715 1638 727 q 1625 694 1636 703 q 1538 643 1587 662 q 1515 644 1527 640 q 1497 659 1503 648 l 1476 697 q 1389 697 1432 689 m 1362 857 q 1461 834 1411 819 q 1526 899 1511 849 q 1503 1001 1541 949 q 1404 1023 1454 1039 q 1339 956 1354 1006 q 1362 857 1324 906 m 1047 439 l 1139 393 q 1169 359 1161 382 q 1166 315 1177 336 q 1053 136 1142 244 q 1013 115 1036 119 q 971 122 990 111 l 892 168 q 743 81 825 111 l 743 -11 q 727 -52 743 -33 q 689 -73 711 -71 q 483 -73 586 -92 q 444 -52 458 -71 q 429 -11 429 -33 l 429 81 q 279 168 345 111 l 201 122 q 156 115 179 111 q 119 136 133 119 q 5 315 33 241 q 3 359 -5 336 q 33 393 11 382 l 122 439 q 122 610 106 526 l 33 656 q 3 692 11 670 q 5 735 -5 713 q 119 914 33 808 q 156 937 133 933 q 201 928 179 941 l 279 884 q 429 968 347 941 l 429 1061 q 444 1103 429 1085 q 483 1123 458 1120 q 689 1126 586 1142 q 727 1103 711 1120 q 743 1061 743 1085 l 743 968 q 892 884 825 939 l 971 928 q 1013 937 990 941 q 1053 914 1036 933 q 1166 735 1139 811 q 1168 692 1175 713 q 1139 656 1161 670 l 1047 610 q 1047 439 1063 526 m 730 382 q 781 537 787 456 q 724 663 776 610 q 597 722 673 716 q 442 667 515 727 q 391 513 385 594 q 446 387 393 439 q 572 331 499 334 q 730 382 654 326 m 1389 -114 l 1367 -152 q 1350 -167 1362 -163 q 1326 -168 1337 -171 q 1240 -117 1278 -149 q 1227 -96 1229 -109 q 1232 -73 1226 -84 l 1253 -35 q 1210 38 1226 -3 l 1166 38 q 1143 46 1153 38 q 1134 68 1134 54 q 1131 168 1123 117 q 1143 187 1134 179 q 1166 195 1153 195 l 1210 195 q 1253 271 1226 236 l 1232 309 q 1227 332 1226 320 q 1240 353 1229 345 q 1326 401 1278 385 q 1350 403 1337 407 q 1367 388 1362 399 l 1389 350 q 1476 347 1432 355 l 1497 388 q 1515 403 1503 399 q 1538 401 1527 407 q 1625 353 1587 385 q 1637 332 1636 345 q 1633 309 1638 320 l 1611 271 q 1655 195 1638 236 l 1698 195 q 1721 187 1712 195 q 1731 168 1731 179 q 1731 68 1742 117 q 1721 46 1731 54 q 1698 38 1712 38 l 1655 38 q 1611 -35 1638 -3 l 1633 -73 q 1637 -96 1638 -84 q 1625 -117 1636 -109 q 1538 -168 1587 -149 q 1515 -167 1527 -171 q 1497 -152 1503 -163 l 1476 -114 q 1389 -114 1432 -122 m 1362 46 q 1461 24 1411 8 q 1526 90 1511 41 q 1503 190 1541 138 q 1404 212 1454 228 q 1339 145 1354 195 q 1362 46 1324 95 z "},"":{"ha":1389,"x_min":0,"x_max":1389,"o":"m 1259 1128 l 130 1128 q 38 1090 76 1128 q 0 998 0 1053 l 0 43 q 38 -49 0 -11 q 130 -87 76 -87 l 1259 -87 q 1351 -49 1313 -87 q 1389 43 1389 -11 l 1389 998 q 1351 1090 1389 1053 q 1259 1128 1313 1128 m 608 87 l 174 87 l 174 781 l 608 781 l 608 87 m 1215 87 l 781 87 l 781 781 l 1215 781 l 1215 87 z "},"":{"ha":1389,"x_min":0,"x_max":1389,"o":"m 1215 1215 l 174 1215 q 52 1164 103 1215 q 0 1042 0 1112 l 0 260 q 52 138 0 190 q 174 87 103 87 l 434 87 l 434 -141 q 452 -170 434 -160 q 486 -168 469 -179 l 825 87 l 1215 87 q 1337 138 1286 87 q 1389 260 1389 190 l 1389 1042 q 1337 1164 1389 1112 q 1215 1215 1286 1215 z "},"":{"ha":1389,"x_min":-5,"x_max":1392,"o":"m 694 1128 q 346 1053 505 1128 q 94 848 187 977 q 0 564 0 719 q 41 374 0 464 q 155 209 81 285 q 68 30 133 125 q 5 -49 30 -24 q 3 -73 -3 -60 q 22 -87 8 -87 q 255 -38 141 -87 q 404 52 334 -3 q 694 0 543 0 q 1043 76 884 0 q 1295 281 1202 152 q 1389 564 1389 410 q 1295 848 1389 719 q 1043 1053 1202 977 q 694 1128 884 1128 m 347 477 q 286 503 312 477 q 260 564 260 529 q 286 625 260 600 q 347 651 312 651 q 408 625 382 651 q 434 564 434 600 q 408 503 434 529 q 347 477 382 477 m 694 477 q 633 503 659 477 q 608 564 608 529 q 633 625 608 600 q 694 651 659 651 q 755 625 730 651 q 781 564 781 600 q 755 503 781 529 q 694 477 730 477 m 1042 477 q 981 503 1006 477 q 955 564 955 529 q 981 625 955 600 q 1042 651 1006 651 q 1103 625 1077 651 q 1128 564 1128 600 q 1103 503 1128 529 q 1042 477 1077 477 z "},"":{"ha":1736,"x_min":-3,"x_max":1739,"o":"m 174 564 q 214 374 174 464 q 328 209 255 285 q 244 35 307 127 q 179 -49 214 -14 l 179 -52 q 176 -73 171 -60 q 195 -87 182 -87 q 429 -38 315 -87 q 578 52 507 -3 q 868 0 716 0 q 1080 27 977 0 l 198 711 q 174 564 174 635 m 1720 -27 l 1408 212 q 1522 377 1481 288 q 1563 564 1563 467 q 1469 848 1563 719 q 1217 1053 1375 977 q 868 1128 1058 1128 q 620 1090 738 1128 q 410 985 502 1053 l 125 1207 q 91 1215 109 1218 q 62 1199 73 1213 l 8 1131 q 0 1097 -3 1115 q 16 1069 3 1080 l 1614 -163 q 1645 -174 1628 -176 q 1674 -157 1663 -171 l 1728 -87 q 1736 -56 1739 -73 q 1720 -27 1733 -38 z "},"":{"ha":1389,"x_min":-5,"x_max":1392,"o":"m 694 1128 q 346 1053 505 1128 q 94 848 187 977 q 0 564 0 719 q 41 374 0 464 q 155 209 81 285 q 68 30 133 125 q 5 -49 30 -24 q 3 -73 -3 -60 q 22 -87 8 -87 q 255 -38 141 -87 q 404 52 334 -3 q 694 0 543 0 q 1043 76 884 0 q 1295 281 1202 152 q 1389 564 1389 410 q 1295 848 1389 719 q 1043 1053 1202 977 q 694 1128 884 1128 z "},"":{"ha":1563,"x_min":-5,"x_max":1568,"o":"m 1128 694 q 1053 911 1128 811 q 848 1070 977 1012 q 564 1128 719 1128 q 281 1070 410 1128 q 76 911 152 1012 q 0 694 0 811 q 103 445 0 556 q 41 342 81 393 q 8 298 19 309 q 3 274 -3 288 q 22 260 8 260 q 263 328 146 260 q 564 260 401 260 q 848 319 719 260 q 1053 477 977 377 q 1128 694 1128 578 m 1459 98 q 1563 345 1563 209 q 1465 590 1563 480 q 1213 749 1367 700 q 1215 694 1215 724 q 1127 434 1215 553 q 890 244 1039 315 q 564 174 741 174 q 477 179 526 174 q 684 -14 543 60 q 998 -87 825 -87 q 1299 -19 1161 -87 q 1541 -87 1416 -87 q 1560 -73 1554 -87 q 1554 -49 1565 -60 q 1522 -8 1544 -38 q 1459 98 1481 46 z "},"":{"ha":1389,"x_min":0,"x_max":1370,"o":"m 1367 521 q 1276 184 1367 339 q 1031 -61 1185 30 q 694 -152 876 -152 q 358 -61 513 -152 q 113 184 203 30 q 22 521 22 339 q 113 857 22 703 q 358 1103 203 1012 q 694 1194 513 1194 q 1031 1103 876 1194 q 1276 857 1185 1012 q 1367 521 1367 703 m 833 887 l 556 621 q 537 591 543 610 l 448 217 q 457 164 439 187 q 503 137 475 141 q 556 155 532 133 l 833 420 q 852 450 846 431 l 941 825 q 932 878 949 854 q 886 905 914 901 q 833 887 857 909 m 694 608 q 633 582 659 608 q 608 521 608 556 q 633 460 608 486 q 694 434 659 434 q 755 460 730 434 q 781 521 781 486 q 755 582 781 556 q 694 608 730 608 z "},"":{"ha":1215,"x_min":0,"x_max":1218,"o":"m 1183 694 l 846 694 q 800 713 819 694 q 781 760 781 732 l 781 1096 q 791 1119 781 1109 q 814 1128 800 1128 l 922 1128 q 945 1119 936 1128 q 955 1096 955 1109 l 955 868 l 1183 868 q 1206 859 1196 868 q 1215 836 1215 849 l 1215 727 q 1206 704 1215 713 q 1183 694 1196 694 m 434 760 l 434 1096 q 425 1119 434 1109 q 401 1128 415 1128 l 293 1128 q 270 1119 279 1128 q 260 1096 260 1109 l 260 868 l 33 868 q 9 859 19 868 q 0 836 0 849 l 0 727 q 9 704 0 713 q 33 694 19 694 l 369 694 q 415 713 396 694 q 434 760 434 732 m 434 -54 l 434 282 q 415 328 434 309 q 369 347 396 347 l 33 347 q 9 338 19 347 q 0 315 0 328 l 0 206 q 9 183 0 193 q 33 174 19 174 l 260 174 l 260 -54 q 270 -77 260 -68 q 293 -87 279 -87 l 401 -87 q 425 -77 415 -87 q 434 -54 434 -68 m 955 -54 l 955 174 l 1183 174 q 1206 183 1196 174 q 1215 206 1215 193 l 1215 315 q 1206 338 1215 328 q 1183 347 1196 347 l 846 347 q 800 328 819 347 q 781 282 781 309 l 781 -54 q 791 -77 781 -68 q 814 -87 800 -87 l 922 -87 q 945 -77 936 -87 q 955 -54 955 -68 z "},"":{"ha":1215,"x_min":0,"x_max":1218,"o":"m 868 0 l 868 -109 q 849 -155 868 -136 q 803 -174 830 -174 l 65 -174 q 19 -155 38 -174 q 0 -109 0 -136 l 0 890 q 19 936 0 917 q 65 955 38 955 l 260 955 l 260 152 q 305 45 260 90 q 412 0 350 0 l 868 0 m 868 933 l 868 1215 l 412 1215 q 366 1196 385 1215 q 347 1150 347 1177 l 347 152 q 366 106 347 125 q 412 87 385 87 l 1150 87 q 1196 106 1177 87 q 1215 152 1215 125 l 1215 868 l 933 868 q 887 887 906 868 q 868 933 868 906 m 1196 1017 l 1017 1196 q 971 1215 998 1215 l 955 1215 l 955 955 l 1215 955 l 1215 971 q 1196 1017 1215 998 z "},"":{"ha":1389,"x_min":0,"x_max":1370,"o":"m 694 1194 q 358 1103 513 1194 q 113 857 203 1012 q 22 521 22 703 q 113 184 22 339 q 358 -61 203 30 q 694 -152 513 -152 q 1031 -61 876 -152 q 1276 184 1185 30 q 1367 521 1367 339 q 1276 857 1367 703 q 1031 1103 1185 1012 q 694 1194 876 1194 m 1012 252 q 933 190 985 220 q 713 130 833 130 q 513 182 602 130 q 373 323 423 233 q 323 522 323 412 q 374 722 323 632 q 514 861 426 811 q 715 911 602 911 q 920 863 827 911 q 993 808 968 836 q 1001 788 1001 800 q 996 768 1001 776 l 936 673 q 913 659 928 662 q 887 667 898 656 q 838 700 868 684 q 719 732 779 732 q 572 674 627 732 q 518 528 518 616 q 570 377 518 439 q 719 309 624 309 q 846 347 784 309 q 898 388 879 369 q 922 397 906 399 q 947 385 939 396 l 1015 293 q 1020 273 1020 285 q 1012 252 1020 260 z "},"":{"ha":1736,"x_min":0,"x_max":1739,"o":"m 434 608 l 434 434 l 1302 434 l 1302 608 q 1354 730 1302 678 q 1476 781 1405 781 l 1563 781 q 1487 966 1563 890 q 1302 1042 1411 1042 l 434 1042 q 250 966 326 1042 q 174 781 174 890 l 260 781 q 382 730 331 781 q 434 608 434 678 m 1563 694 l 1476 694 q 1415 669 1440 694 q 1389 608 1389 643 l 1389 347 l 347 347 l 347 608 q 321 669 347 643 q 260 694 296 694 l 174 694 q 52 643 103 694 q 0 521 0 591 q 23 434 0 475 q 87 372 46 393 l 87 43 q 99 12 87 24 q 130 0 111 0 l 304 0 q 335 12 323 0 q 347 43 347 24 l 347 87 l 1389 87 l 1389 43 q 1401 12 1389 24 q 1432 0 1413 0 l 1606 0 q 1637 12 1625 0 q 1649 43 1649 24 l 1649 372 q 1713 434 1690 393 q 1736 521 1736 475 q 1685 643 1736 591 q 1563 694 1633 694 z "},"":{"ha":1563,"x_min":0,"x_max":1563,"o":"m 0 43 q 38 -49 0 -11 q 130 -87 76 -87 l 1432 -87 q 1525 -49 1487 -87 q 1563 43 1563 -11 l 1563 521 l 0 521 l 0 43 m 521 228 q 530 251 521 241 q 553 260 540 260 l 922 260 q 945 251 936 260 q 955 228 955 241 l 955 119 q 945 96 955 106 q 922 87 936 87 l 553 87 q 530 96 540 87 q 521 119 521 106 l 521 228 m 174 228 q 183 251 174 241 q 206 260 193 260 l 401 260 q 425 251 415 260 q 434 228 434 241 l 434 119 q 425 96 434 106 q 401 87 415 87 l 206 87 q 183 96 193 87 q 174 119 174 106 l 174 228 m 1563 998 l 1563 868 l 0 868 l 0 998 q 38 1090 0 1053 q 130 1128 76 1128 l 1432 1128 q 1525 1090 1487 1128 q 1563 998 1563 1053 z "},"":{"ha":1389,"x_min":0,"x_max":1392,"o":"m 1324 260 l 1215 260 l 1215 920 l 1370 1074 q 1389 1120 1389 1093 q 1370 1166 1389 1147 l 1340 1196 q 1294 1215 1321 1215 q 1248 1196 1267 1215 l 1093 1042 l 434 1042 l 434 1150 q 415 1196 434 1177 q 369 1215 396 1215 l 239 1215 q 193 1196 212 1215 q 174 1150 174 1177 l 174 1042 l 65 1042 q 19 1023 38 1042 q 0 977 0 1004 l 0 846 q 19 800 0 819 q 65 781 38 781 l 174 781 l 174 65 q 193 19 174 38 q 239 0 212 0 l 955 0 l 955 -109 q 974 -155 955 -136 q 1020 -174 993 -174 l 1150 -174 q 1196 -155 1177 -174 q 1215 -109 1215 -136 l 1215 0 l 1324 0 q 1370 19 1351 0 q 1389 65 1389 38 l 1389 195 q 1370 241 1389 222 q 1324 260 1351 260 m 833 781 l 434 382 l 434 781 l 833 781 m 556 260 l 955 659 l 955 260 l 556 260 z "},"":{"ha":1389,"x_min":0,"x_max":1389,"o":"m 1356 608 l 1275 608 q 1108 935 1245 798 q 781 1101 971 1072 l 781 1183 q 772 1206 781 1196 q 749 1215 762 1215 l 640 1215 q 617 1206 627 1215 q 608 1183 608 1196 l 608 1101 q 281 935 418 1072 q 114 608 144 798 l 33 608 q 9 598 19 608 q 0 575 0 589 l 0 467 q 9 444 0 453 q 33 434 19 434 l 114 434 q 281 107 144 244 q 608 -60 418 -30 l 608 -141 q 617 -164 608 -155 q 640 -174 627 -174 l 749 -174 q 772 -164 762 -174 q 781 -141 781 -155 l 781 -60 q 1108 107 971 -30 q 1275 434 1245 244 l 1356 434 q 1379 444 1370 434 q 1389 467 1389 453 l 1389 575 q 1379 598 1389 589 q 1356 608 1370 608 m 781 117 l 781 228 q 772 251 781 241 q 749 260 762 260 l 640 260 q 617 251 627 260 q 608 228 608 241 l 608 117 q 403 229 488 144 q 290 434 317 315 l 401 434 q 425 444 415 434 q 434 467 434 453 l 434 575 q 425 598 434 589 q 401 608 415 608 l 290 608 q 403 812 317 727 q 608 925 488 898 l 608 814 q 617 791 608 800 q 640 781 627 781 l 749 781 q 772 791 762 781 q 781 814 781 800 l 781 925 q 986 812 901 898 q 1099 608 1072 727 l 987 608 q 964 598 974 608 q 955 575 955 589 l 955 467 q 964 444 955 453 q 987 434 974 434 l 1099 434 q 986 229 1072 315 q 781 117 901 144 m 781 521 q 755 460 781 486 q 694 434 730 434 q 633 460 659 434 q 608 521 608 486 q 633 582 608 556 q 694 608 659 608 q 755 582 730 608 q 781 521 781 556 z "},"":{"ha":1389,"x_min":-3,"x_max":1389,"o":"m 648 1199 l 84 987 q 23 939 46 971 q 0 865 0 906 l 0 255 q 19 186 0 217 q 73 138 38 155 l 637 -144 q 694 -157 665 -157 q 751 -144 724 -157 l 1316 138 q 1370 186 1351 155 q 1389 255 1389 217 l 1389 865 q 1366 939 1389 906 q 1305 987 1343 971 l 741 1199 q 648 1199 694 1215 m 694 1031 l 1215 836 l 1215 833 l 694 621 l 174 833 l 174 836 l 694 1031 m 781 65 l 781 469 l 1215 646 l 1215 282 l 781 65 z "},"":{"ha":1389,"x_min":0,"x_max":1389,"o":"m 1326 537 l 1063 635 l 1063 930 q 1046 985 1063 960 q 1001 1020 1028 1009 l 730 1123 q 659 1123 694 1137 l 388 1020 q 343 985 361 1009 q 326 930 326 960 l 326 635 l 62 537 q 18 500 35 526 q 0 445 0 475 l 0 146 q 15 95 0 119 q 54 60 30 71 l 326 -76 q 412 -76 369 -98 l 694 65 l 977 -76 q 1063 -76 1020 -98 l 1335 60 q 1374 95 1359 71 q 1389 146 1389 119 l 1389 445 q 1371 500 1389 475 q 1326 537 1354 526 m 971 632 l 741 545 l 741 732 l 971 833 l 971 632 m 418 933 l 694 1036 l 971 933 l 971 930 l 694 819 l 418 930 l 418 933 m 646 144 l 415 27 l 415 241 l 646 347 l 646 144 m 646 448 l 369 334 l 92 448 l 92 448 l 369 553 l 646 448 l 646 448 m 1297 144 l 1066 27 l 1066 241 l 1297 347 l 1297 144 m 1297 448 l 1020 334 l 743 448 l 743 448 l 1020 553 l 1297 448 l 1297 448 z "},"":{"ha":1215,"x_min":0,"x_max":1218,"o":"m 1204 71 q 1215 46 1215 60 q 1204 24 1215 33 q 1044 -43 1139 -43 q 884 24 949 -43 l 570 336 l 502 269 q 521 174 521 222 q 445 -11 521 65 q 260 -87 369 -87 q 76 -11 152 -87 q 0 174 0 65 q 76 358 0 282 q 260 434 152 434 q 296 431 279 434 l 385 521 l 296 610 q 260 608 279 608 q 76 684 152 608 q 0 868 0 760 q 76 1053 0 977 q 260 1128 152 1128 q 445 1053 369 1128 q 521 868 521 977 q 502 773 521 819 l 570 705 l 884 1017 q 1044 1085 949 1085 q 1204 1017 1139 1085 q 1215 996 1215 1009 q 1204 971 1215 982 l 754 521 l 1204 71 m 260 955 q 199 929 225 955 q 174 868 174 903 q 199 807 174 833 q 260 781 225 781 q 321 807 296 781 q 347 868 347 833 q 321 929 347 903 q 260 955 296 955 m 260 260 q 199 235 225 260 q 174 174 174 209 q 199 113 174 138 q 260 87 225 87 q 321 113 296 87 q 347 174 347 138 q 321 235 347 209 q 260 260 296 260 m 564 553 q 541 544 551 553 q 532 521 532 534 q 541 498 532 507 q 564 488 551 488 q 587 498 578 488 q 597 521 597 507 q 587 544 597 534 q 564 553 578 553 z "},"":{"ha":1215,"x_min":0,"x_max":1215,"o":"m 1215 1017 l 1215 892 q 1134 793 1215 838 q 913 722 1053 749 q 608 694 773 694 q 302 722 442 694 q 81 793 163 749 q 0 892 0 838 l 0 1017 q 81 1116 0 1072 q 302 1188 163 1161 q 608 1215 442 1215 q 913 1188 773 1215 q 1134 1116 1053 1161 q 1215 1017 1215 1072 m 1215 738 l 1215 458 q 1134 359 1215 404 q 913 288 1053 315 q 608 260 773 260 q 302 288 442 260 q 81 359 163 315 q 0 458 0 404 l 0 738 q 263 637 95 673 q 608 605 420 605 q 952 637 795 605 q 1215 738 1120 673 m 1215 304 l 1215 24 q 1134 -75 1215 -30 q 913 -146 1053 -119 q 608 -174 773 -174 q 302 -146 442 -174 q 81 -75 163 -119 q 0 24 0 -30 l 0 304 q 263 203 95 239 q 608 171 420 171 q 952 203 795 171 q 1215 304 1120 239 z "},"":{"ha":1389,"x_min":0,"x_max":1392,"o":"m 586 510 q 564 456 586 477 q 510 434 543 434 q 456 456 477 434 q 434 510 434 477 q 498 663 434 600 q 651 727 562 727 q 804 663 741 727 q 868 510 868 600 q 846 456 868 477 q 792 434 825 434 q 738 456 760 434 q 716 507 716 477 q 697 556 716 537 q 651 575 678 575 q 605 556 624 575 q 586 510 586 537 m 651 987 q 411 924 521 987 q 237 750 301 860 q 174 510 174 640 q 195 456 174 477 q 250 434 217 434 q 304 456 282 434 q 326 510 326 477 q 369 674 326 600 q 487 792 412 749 q 651 836 562 836 q 815 792 741 836 q 933 674 890 749 q 977 510 977 600 q 947 391 977 442 q 879 313 928 361 q 811 236 830 266 q 781 119 781 187 l 781 119 q 741 19 781 60 q 640 -22 700 -22 q 586 -43 608 -22 q 564 -98 564 -65 q 586 -152 564 -130 q 640 -174 608 -174 q 787 -134 719 -174 q 894 -27 854 -95 q 933 119 933 41 q 952 168 933 141 q 996 214 963 182 q 1082 323 1058 277 q 1128 510 1128 401 q 1065 750 1128 640 q 891 924 1001 860 q 651 987 781 987 m 1378 1128 l 1302 1204 q 1280 1215 1294 1215 q 1256 1204 1267 1215 l 1020 968 q 1012 947 1012 960 q 1020 922 1012 933 l 1096 846 q 1120 838 1107 838 q 1142 846 1134 838 l 1378 1082 q 1389 1107 1389 1093 q 1378 1128 1389 1120 m 458 361 q 435 372 448 372 q 412 361 423 372 l 11 -41 q 0 -65 0 -52 q 11 -87 0 -79 l 87 -163 q 109 -174 95 -174 q 133 -163 122 -174 l 534 239 q 545 262 545 250 q 534 285 545 274 l 458 361 z "},"":{"ha":1563,"x_min":0,"x_max":1563,"o":"m 1432 1215 l 130 1215 q 38 1177 76 1215 q 0 1085 0 1139 l 0 217 q 38 125 0 163 q 130 87 76 87 l 651 87 l 608 -43 l 412 -43 q 366 -62 385 -43 q 347 -109 347 -81 q 366 -155 347 -136 q 412 -174 385 -174 l 1150 -174 q 1196 -155 1177 -174 q 1215 -109 1215 -136 q 1196 -62 1215 -81 q 1150 -43 1177 -43 l 955 -43 l 911 87 l 1432 87 q 1525 125 1487 87 q 1563 217 1563 163 l 1563 1085 q 1525 1177 1563 1139 q 1432 1215 1487 1215 m 1389 260 l 174 260 l 174 1042 l 1389 1042 l 1389 260 z "},"":{"ha":1736,"x_min":-3,"x_max":1739,"o":"m 1345 521 q 1377 533 1364 521 q 1389 564 1389 545 q 1377 595 1389 583 q 1345 608 1364 608 q 1314 595 1326 608 q 1302 564 1302 583 q 1314 533 1302 545 q 1345 521 1326 521 m 868 738 q 1036 808 966 738 q 1107 977 1107 879 q 1036 1145 1107 1074 q 868 1215 966 1215 q 700 1145 770 1215 q 629 977 629 1074 q 700 808 629 879 q 868 738 770 738 m 163 228 q 216 191 182 198 q 279 201 250 184 q 564 334 412 282 l 564 87 l 1172 87 l 1172 334 q 1457 201 1321 282 q 1520 191 1487 184 q 1573 228 1554 198 l 1622 301 q 1636 365 1641 328 q 1595 423 1630 401 q 1457 496 1533 461 q 1355 434 1419 437 q 1248 477 1291 431 q 1218 591 1204 524 q 868 651 1031 651 q 434 564 667 651 q 399 473 434 510 q 312 434 363 437 q 220 467 260 431 q 141 423 171 439 q 102 365 109 401 q 114 301 95 328 l 163 228 m 998 282 q 1044 263 1025 282 q 1063 217 1063 244 q 1044 171 1063 190 q 998 152 1025 152 q 952 171 971 152 q 933 217 933 190 q 952 263 933 244 q 998 282 971 282 m 738 543 q 784 524 765 543 q 803 477 803 505 q 784 431 803 450 q 738 412 765 412 q 692 431 711 412 q 673 477 673 450 q 692 524 673 505 q 738 543 711 543 m 304 521 q 335 533 323 521 q 347 564 347 545 q 335 595 347 583 q 304 608 323 608 q 273 595 285 608 q 260 564 260 583 q 273 533 260 545 q 304 521 285 521 m 1693 0 l 43 0 q 12 -12 24 0 q 0 -43 0 -24 l 0 -130 q 12 -161 0 -149 q 43 -174 24 -174 l 1693 -174 q 1724 -161 1712 -174 q 1736 -130 1736 -149 l 1736 -43 q 1724 -12 1736 -24 q 1693 0 1712 0 z "},"":{"ha":1215,"x_min":-3,"x_max":1218,"o":"m 0 -125 q 11 -159 -3 -144 q 43 -174 24 -174 l 130 -174 q 159 -163 146 -174 q 174 -136 171 -152 q 184 -87 179 -111 l 1031 -87 q 1040 -136 1039 -119 q 1054 -163 1042 -152 q 1082 -174 1066 -174 l 1172 -174 q 1204 -159 1191 -174 q 1215 -125 1218 -144 q 1145 114 1199 -5 q 892 439 1058 298 q 732 342 819 388 q 768 315 746 334 l 779 304 l 434 304 q 646 442 526 382 q 1101 844 949 594 q 1215 1166 1194 1001 q 1204 1200 1218 1185 q 1172 1215 1191 1215 l 1085 1215 q 1055 1204 1069 1215 q 1042 1177 1042 1194 q 1031 1128 1036 1156 l 184 1128 q 174 1177 179 1156 q 160 1204 174 1194 q 130 1215 146 1215 l 43 1215 q 11 1200 24 1215 q 0 1166 -3 1185 q 92 887 16 1025 q 434 521 206 670 q 92 155 206 372 q 0 -125 16 16 m 608 618 q 434 738 510 673 l 781 738 q 608 618 705 673 m 963 955 q 906 868 939 911 l 309 868 q 252 955 277 911 l 963 955 m 252 87 q 309 174 277 130 l 903 174 q 960 87 939 130 l 252 87 z "},"":{"ha":781,"x_min":-8,"x_max":795,"o":"m 567 583 l 274 667 q 233 697 250 675 q 217 743 217 719 q 240 802 217 779 q 296 825 263 825 l 477 825 q 570 795 529 825 q 598 789 583 787 q 624 800 613 792 l 716 895 q 730 928 732 909 q 711 960 727 947 q 477 1042 608 1042 l 477 1172 q 465 1203 477 1191 q 434 1215 453 1215 l 347 1215 q 316 1203 328 1215 q 304 1172 304 1191 l 304 1042 l 298 1042 q 141 997 212 1042 q 33 878 71 952 q 0 716 -5 803 q 73 553 11 624 q 228 456 136 483 l 507 374 q 548 345 532 366 q 564 298 564 323 q 541 240 564 263 q 486 217 518 217 l 304 217 q 212 244 252 217 q 183 252 198 255 q 157 241 168 250 l 65 149 q 52 114 49 133 q 68 81 54 95 q 304 0 174 0 l 304 -130 q 316 -161 304 -149 q 347 -174 328 -174 l 434 -174 q 465 -161 453 -174 q 477 -130 477 -149 l 477 0 q 654 56 575 3 q 765 198 732 109 q 774 359 792 279 q 701 499 757 439 q 567 583 646 559 z "},"":{"ha":1736,"x_min":-3,"x_max":1739,"o":"m 564 347 l 1606 347 q 1637 359 1625 347 q 1649 391 1649 372 l 1649 1085 q 1637 1116 1649 1104 q 1606 1128 1625 1128 l 1215 1128 l 1215 781 l 1085 868 l 955 781 l 955 1128 l 564 1128 q 533 1116 545 1128 q 521 1085 521 1104 l 521 391 q 533 359 521 372 q 564 347 545 347 m 1693 174 l 347 174 l 347 1172 q 335 1203 347 1191 q 304 1215 323 1215 l 43 1215 q 12 1203 24 1215 q 0 1172 0 1191 l 0 1085 q 12 1054 0 1066 q 43 1042 24 1042 l 174 1042 l 174 43 q 186 12 174 24 q 217 0 198 0 l 442 0 q 434 -43 434 -22 q 472 -136 434 -98 q 564 -174 510 -174 q 656 -136 618 -174 q 694 -43 694 -98 q 686 0 694 -24 l 1223 0 q 1215 -43 1215 -22 q 1253 -136 1215 -98 q 1345 -174 1291 -174 q 1438 -136 1400 -174 q 1476 -43 1476 -98 q 1468 0 1476 -24 l 1693 0 q 1724 12 1712 0 q 1736 43 1736 24 l 1736 130 q 1724 161 1736 149 q 1693 174 1712 174 z "},"":{"ha":1563,"x_min":-3,"x_max":1568,"o":"m 798 461 q 933 396 871 442 l 1370 540 q 1394 562 1386 545 q 1397 597 1402 578 l 1234 1088 q 1213 1112 1229 1104 q 1180 1115 1196 1120 l 1015 1061 l 1104 789 l 939 735 l 849 1004 l 681 949 q 656 928 665 944 q 654 895 648 911 l 798 461 m 1560 331 l 1533 412 q 1511 437 1527 429 q 1478 439 1495 445 l 898 247 q 811 319 863 293 q 700 347 760 345 l 429 1156 q 397 1199 420 1183 q 347 1215 374 1215 l 43 1215 q 12 1203 24 1215 q 0 1172 0 1191 l 0 1085 q 12 1054 0 1066 q 43 1042 24 1042 l 285 1042 l 534 290 q 453 183 480 247 q 437 46 426 119 q 509 -95 450 -35 q 647 -170 567 -155 q 798 -153 727 -184 q 910 -58 868 -122 q 955 81 952 5 l 1533 274 q 1557 297 1549 282 q 1560 331 1565 312 m 694 -43 q 602 -5 640 -43 q 564 87 564 33 q 602 179 564 141 q 694 217 640 217 q 787 179 749 217 q 825 87 825 141 q 787 -5 825 33 q 694 -43 749 -43 z "},"":{"ha":1389,"x_min":0,"x_max":1392,"o":"m 694 87 q 978 163 849 87 q 1183 368 1107 239 q 1259 651 1259 496 q 1183 935 1259 806 q 978 1139 1107 1063 q 694 1215 849 1215 q 411 1139 540 1215 q 206 935 282 1063 q 130 651 130 806 q 206 368 130 496 q 411 163 282 239 q 694 87 540 87 m 635 952 l 635 996 q 648 1028 635 1015 q 678 1042 662 1042 l 711 1042 q 741 1028 727 1042 q 754 996 754 1015 l 754 949 q 871 909 819 947 q 883 886 882 901 q 873 863 884 871 l 830 819 q 792 818 814 803 q 743 830 770 833 l 637 830 q 608 818 621 833 q 594 784 594 803 q 604 751 594 765 q 627 735 613 738 l 795 684 q 882 623 849 667 q 914 521 914 578 q 868 401 914 450 q 754 350 822 353 l 754 307 q 741 274 754 288 q 708 260 727 260 l 678 260 q 647 274 659 260 q 635 307 635 288 l 635 353 q 518 393 570 355 q 505 416 505 401 q 515 439 505 431 l 559 483 q 597 486 575 499 q 646 472 618 472 l 751 472 q 781 486 768 472 q 795 518 795 499 q 785 551 795 537 q 762 567 776 564 l 591 618 q 507 680 540 635 q 475 781 475 724 q 521 901 475 852 q 635 952 567 949 m 1302 260 l 1215 260 q 1017 87 1134 155 l 1188 87 q 1207 80 1199 87 q 1215 65 1215 73 l 1215 22 q 1207 7 1215 14 q 1188 0 1199 0 l 201 0 q 182 7 190 0 q 174 22 174 14 l 174 65 q 182 80 174 73 q 201 87 190 87 l 372 87 q 174 260 255 155 l 87 260 q 26 235 52 260 q 0 174 0 209 l 0 -87 q 26 -148 0 -122 q 87 -174 52 -174 l 1302 -174 q 1363 -148 1337 -174 q 1389 -87 1389 -122 l 1389 174 q 1363 235 1389 209 q 1302 260 1337 260 z "},"":{"ha":1389,"x_min":0,"x_max":1370,"o":"m 694 1194 q 358 1103 513 1194 q 113 857 203 1012 q 22 521 22 703 q 113 184 22 339 q 358 -61 203 30 q 694 -152 513 -152 q 1031 -61 876 -152 q 1276 184 1185 30 q 1367 521 1367 339 q 1276 857 1367 703 q 1031 1103 1185 1012 q 694 1194 876 1194 m 911 521 q 848 368 911 431 q 694 304 784 304 q 541 368 605 304 q 477 521 477 431 q 541 674 477 610 q 694 738 605 738 q 848 674 784 738 q 911 521 911 610 z "},"":{"ha":1389,"x_min":-5,"x_max":1389,"o":"m 781 762 l 781 838 q 635 1177 662 990 q 604 1213 629 1204 q 559 1199 578 1221 q 426 966 472 1099 q 587 836 496 887 q 781 762 678 784 m 1085 1042 q 932 978 996 1042 q 868 825 868 914 l 868 665 q 487 795 656 675 q 236 1101 317 914 q 197 1128 225 1128 q 157 1104 168 1128 q 87 789 87 955 q 149 515 87 651 q 317 285 212 388 q 423 198 363 241 l 33 100 q 3 73 11 95 q 8 33 -5 52 q 138 -95 57 -43 q 423 -174 255 -165 q 483 -152 456 -174 l 659 0 l 868 0 q 1085 58 985 0 q 1244 216 1185 117 q 1302 434 1302 315 l 1302 868 l 1389 1042 l 1085 1042 m 1085 781 q 1054 793 1066 781 q 1042 823 1042 806 q 1054 854 1042 841 q 1085 868 1066 868 q 1116 856 1104 868 q 1128 825 1128 844 q 1116 793 1128 806 q 1085 781 1104 781 z "},"":{"ha":1389,"x_min":0,"x_max":1389,"o":"m 586 1215 l 803 1215 q 849 1196 830 1215 q 868 1150 868 1177 l 868 694 l 1107 694 q 1156 661 1142 694 q 1145 602 1169 627 l 732 190 q 694 174 716 174 q 656 190 673 174 l 244 602 q 233 661 220 627 q 282 694 247 694 l 521 694 l 521 1150 q 540 1196 521 1177 q 586 1215 559 1215 m 1389 195 l 1389 -109 q 1370 -155 1389 -136 q 1324 -174 1351 -174 l 65 -174 q 19 -155 38 -174 q 0 -109 0 -136 l 0 195 q 19 241 0 222 q 65 260 38 260 l 464 260 l 597 127 q 694 87 637 87 q 792 127 751 87 l 925 260 l 1324 260 q 1370 241 1351 260 q 1389 195 1389 222 m 1053 -43 q 1036 -5 1053 -22 q 998 11 1020 11 q 960 -5 977 11 q 944 -43 944 -22 q 960 -81 944 -65 q 998 -98 977 -98 q 1036 -81 1020 -98 q 1053 -43 1053 -65 m 1226 -43 q 1210 -5 1226 -22 q 1172 11 1194 11 q 1134 -5 1150 11 q 1118 -43 1118 -22 q 1134 -81 1118 -65 q 1172 -98 1150 -98 q 1210 -81 1194 -98 q 1226 -43 1226 -65 z "},"":{"ha":1563,"x_min":0,"x_max":1565,"o":"m 1093 990 l 1337 746 q 1345 727 1345 738 q 1337 708 1345 716 l 743 114 l 494 87 q 449 102 467 84 q 434 146 431 119 l 461 396 l 1055 990 q 1074 998 1063 998 q 1093 990 1085 998 m 1533 1053 l 1400 1185 q 1324 1215 1367 1215 q 1251 1185 1280 1215 l 1153 1088 q 1145 1069 1145 1080 q 1153 1050 1145 1058 l 1397 806 q 1416 798 1405 798 q 1435 806 1427 798 l 1533 903 q 1563 977 1563 933 q 1533 1053 1563 1020 m 1042 277 l 1042 0 l 174 0 l 174 868 l 798 868 q 819 876 811 868 l 928 987 q 936 1021 944 1001 q 906 1042 928 1042 l 130 1042 q 38 1004 76 1042 q 0 911 0 966 l 0 -43 q 38 -136 0 -98 q 130 -174 76 -174 l 1085 -174 q 1177 -136 1139 -174 q 1215 -43 1215 -98 l 1215 385 q 1195 415 1215 407 q 1161 407 1175 423 l 1053 298 q 1042 277 1042 290 z "},"":{"ha":1215,"x_min":-3,"x_max":1218,"o":"m 1215 174 l 1215 0 q 1190 -61 1215 -35 q 1128 -87 1164 -87 l 87 -87 q 26 -61 52 -87 q 0 0 0 -35 l 0 174 q 26 235 0 209 q 87 260 52 260 l 1128 260 q 1190 235 1164 260 q 1215 174 1215 209 m 130 347 l 1085 347 q 1176 384 1139 347 q 1215 473 1213 420 q 1180 564 1218 526 l 703 1085 q 608 1128 665 1128 q 513 1085 551 1128 l 35 564 q 0 473 -3 526 q 39 384 3 420 q 130 347 76 347 z "},"":{"ha":1389,"x_min":0,"x_max":1367,"o":"m 890 521 q 833 382 890 439 q 694 326 776 326 q 556 382 613 326 q 499 521 499 439 q 556 659 499 602 q 694 716 613 716 q 833 659 776 716 q 890 521 890 602 m 1172 716 q 1034 659 1090 716 q 977 521 977 602 q 1034 382 977 439 q 1172 326 1090 326 q 1310 382 1253 326 q 1367 521 1367 439 q 1310 659 1367 602 q 1172 716 1253 716 m 217 716 q 79 659 136 716 q 22 521 22 602 q 79 382 22 439 q 217 326 136 326 q 355 382 298 326 q 412 521 412 439 q 355 659 412 602 q 217 716 298 716 z "},"":{"ha":521,"x_min":0,"x_max":456,"o":"m 260 716 q 399 659 342 716 q 456 521 456 602 q 399 382 456 439 q 260 326 342 326 q 122 382 179 326 q 65 521 65 439 q 122 659 65 602 q 260 716 179 716 m 65 998 q 122 860 65 917 q 260 803 179 803 q 399 860 342 803 q 456 998 456 917 q 399 1137 456 1080 q 260 1194 342 1194 q 122 1137 179 1194 q 65 998 65 1080 m 65 43 q 122 -95 65 -38 q 260 -152 179 -152 q 399 -95 342 -152 q 456 43 456 -38 q 399 182 456 125 q 260 239 342 239 q 122 182 179 239 q 65 43 65 125 z "},"":{"ha":1389,"x_min":0,"x_max":1389,"o":"m 1389 -43 q 1351 -136 1389 -98 q 1259 -174 1313 -174 l 130 -174 q 38 -136 76 -174 q 0 -43 0 -98 l 0 670 q 49 773 0 735 q 496 1104 160 860 l 521 1123 q 608 1183 575 1166 q 694 1215 659 1215 q 781 1183 730 1215 q 868 1123 814 1166 l 892 1104 q 1340 773 1229 860 q 1389 670 1389 735 l 1389 -43 m 1210 491 q 1196 499 1204 496 q 1180 496 1188 502 l 868 266 q 781 206 814 222 q 694 174 730 174 q 608 206 659 174 q 521 266 575 222 l 209 496 q 193 499 201 502 q 179 491 184 496 l 155 453 q 151 438 149 448 q 157 423 152 429 l 472 195 q 575 125 534 146 q 694 87 640 87 q 814 125 749 87 q 917 195 854 146 l 1232 423 q 1238 438 1237 429 q 1234 453 1240 448 l 1210 491 z "},"":{"ha":1215,"x_min":0,"x_max":1215,"o":"m 1085 1128 l 130 1128 q 38 1090 76 1128 q 0 998 0 1053 l 0 43 q 38 -49 0 -11 q 130 -87 76 -87 l 1085 -87 q 1177 -49 1139 -87 q 1215 43 1215 -11 l 1215 998 q 1177 1090 1215 1053 q 1085 1128 1139 1128 m 483 505 q 198 716 271 656 l 174 735 l 174 803 q 193 849 174 830 q 239 868 212 868 l 977 868 q 1023 849 1004 868 q 1042 803 1042 830 l 1042 735 l 1017 716 q 732 505 944 656 l 716 491 q 608 434 640 434 q 499 491 575 434 l 483 505 m 1042 624 l 1042 239 q 1023 193 1042 212 q 977 174 1004 174 l 239 174 q 193 193 212 174 q 174 239 174 212 l 174 624 q 431 434 233 578 l 450 420 q 521 372 494 388 q 608 347 567 347 q 694 372 648 347 q 765 420 722 388 l 784 434 q 1042 624 982 578 z "},"":{"ha":1389,"x_min":0,"x_max":1389,"o":"m 1362 697 q 1379 700 1370 705 q 1389 684 1389 694 l 1389 130 q 1351 38 1389 76 q 1259 0 1313 0 l 130 0 q 38 38 76 0 q 0 130 0 76 l 0 684 q 9 699 0 694 q 27 697 19 703 q 445 391 117 629 l 472 366 q 575 296 537 317 q 694 260 640 260 q 814 298 749 260 q 917 369 854 320 l 944 391 q 1362 697 1264 621 m 694 347 q 781 380 730 347 q 865 439 811 396 l 892 458 q 1351 798 1234 705 l 1364 808 q 1389 860 1389 827 l 1389 911 q 1351 1004 1389 966 q 1259 1042 1313 1042 l 130 1042 q 38 1004 76 1042 q 0 911 0 966 l 0 860 q 24 808 0 827 l 43 795 q 496 458 163 703 l 524 439 q 608 380 578 396 q 694 347 659 347 z "},"":{"ha":1389,"x_min":-3,"x_max":1389,"o":"m 1351 472 q 1389 564 1389 510 q 1351 656 1389 618 l 917 1090 q 825 1128 879 1128 q 732 1090 770 1128 l 38 396 q 0 304 0 358 q 38 212 0 250 l 298 -49 q 391 -87 336 -87 l 1356 -87 q 1379 -77 1370 -87 q 1389 -54 1389 -68 l 1389 54 q 1379 77 1389 68 q 1356 87 1370 87 l 966 87 l 1351 472 m 529 643 l 903 269 l 719 87 l 410 87 l 193 304 l 529 643 z "},"":{"ha":868,"x_min":0,"x_max":871,"o":"m 844 92 q 829 114 841 106 q 803 119 817 122 q 681 103 741 103 q 479 167 567 103 q 350 336 391 231 l 659 336 q 680 343 670 336 q 692 361 689 350 l 708 437 q 701 465 711 453 q 675 477 692 477 l 312 477 q 312 591 307 540 l 711 591 q 731 600 722 591 q 743 618 741 608 l 760 697 q 753 726 762 713 q 727 738 743 738 l 353 738 q 480 887 396 833 q 673 941 564 941 q 776 930 719 941 q 798 935 787 928 q 814 955 808 941 l 846 1074 q 841 1100 849 1088 q 819 1115 833 1112 q 678 1128 746 1128 q 332 1020 483 1128 q 122 738 182 911 l 33 738 q 9 728 19 738 q 0 705 0 719 l 0 624 q 9 601 0 610 q 33 591 19 591 l 92 591 q 90 477 87 532 l 33 477 q 9 468 19 477 q 0 445 0 458 l 0 369 q 9 346 0 355 q 33 336 19 336 l 114 336 q 315 33 165 146 q 678 -87 469 -87 q 844 -65 762 -87 q 861 -52 854 -62 q 868 -27 868 -41 l 844 92 z "},"":{"ha":1389,"x_min":0,"x_max":1392,"o":"m 0 760 l 0 803 q 19 849 0 830 q 65 868 38 868 l 1042 868 l 1042 998 q 1061 1044 1042 1025 q 1107 1063 1080 1063 q 1153 1044 1134 1063 l 1370 827 q 1389 781 1389 808 q 1370 735 1389 754 l 1153 518 q 1107 499 1134 499 q 1061 518 1080 499 q 1042 564 1042 537 l 1042 694 l 65 694 q 19 713 38 694 q 0 760 0 732 m 1324 347 l 347 347 l 347 477 q 328 524 347 505 q 282 543 309 543 q 236 524 255 543 l 19 307 q 0 260 0 288 q 19 214 0 233 l 236 -3 q 282 -22 255 -22 q 328 -3 309 -22 q 347 43 347 16 l 347 174 l 1324 174 q 1370 193 1351 174 q 1389 239 1389 212 l 1389 282 q 1370 328 1389 309 q 1324 347 1351 347 z "},"":{"ha":1389,"x_min":0,"x_max":1367,"o":"m 1367 521 q 1276 184 1367 339 q 1031 -61 1185 30 q 694 -152 876 -152 q 358 -61 513 -152 q 113 184 203 30 q 22 521 22 339 q 113 857 22 703 q 358 1103 203 1012 q 694 1194 513 1194 q 1031 1103 876 1194 q 1276 857 1185 1012 q 1367 521 1367 703 m 694 385 q 606 349 643 385 q 570 260 570 312 q 606 172 570 209 q 694 136 643 136 q 783 172 746 136 q 819 260 819 209 q 783 349 819 312 q 694 385 746 385 m 575 833 l 597 464 q 606 444 597 453 q 629 434 616 434 l 760 434 q 783 444 773 434 q 792 464 792 453 l 814 833 q 804 859 814 849 q 781 868 795 868 l 608 868 q 585 859 594 868 q 575 833 575 849 z "},"":{"ha":1563,"x_min":-8,"x_max":1571,"o":"m 1546 22 q 1560 -66 1568 -22 q 1516 -142 1552 -111 q 1432 -174 1481 -174 l 130 -174 q 46 -142 81 -174 q 3 -66 11 -111 q 16 22 -5 -22 l 667 1150 q 736 1208 692 1194 q 826 1208 781 1223 q 895 1150 871 1194 l 1546 22 m 781 255 q 693 218 730 255 q 656 130 656 182 q 693 42 656 79 q 781 5 730 5 q 869 42 833 5 q 906 130 906 79 q 869 218 906 182 q 781 255 833 255 m 662 703 l 684 334 q 693 313 684 323 q 716 304 703 304 l 846 304 q 869 313 860 304 q 879 334 879 323 l 901 703 q 891 728 901 719 q 868 738 882 738 l 694 738 q 671 728 681 738 q 662 703 662 719 z "},"":{"ha":521,"x_min":0,"x_max":477,"o":"m 477 43 q 414 -110 477 -46 q 260 -174 350 -174 q 107 -110 171 -174 q 43 43 43 -46 q 107 197 43 133 q 260 260 171 260 q 414 197 350 260 q 477 43 477 133 m 68 1147 l 106 410 q 125 365 106 382 q 171 347 144 347 l 350 347 q 396 365 377 347 q 415 410 415 382 l 453 1147 q 434 1195 453 1175 q 388 1215 415 1215 l 133 1215 q 87 1195 106 1215 q 68 1147 68 1175 z "},"":{"ha":1215,"x_min":0,"x_max":1218,"o":"m 1215 282 l 1215 -22 q 1196 -68 1215 -49 q 1150 -87 1177 -87 l 846 -87 q 800 -68 819 -87 q 781 -22 781 -49 q 800 24 781 5 l 898 122 l 608 412 l 317 122 l 415 24 q 434 -22 434 5 q 415 -68 434 -49 q 369 -87 396 -87 l 65 -87 q 19 -68 38 -87 q 0 -22 0 -49 l 0 282 q 19 328 0 309 q 65 347 38 347 q 111 328 92 347 l 209 231 l 502 521 l 209 811 l 111 713 q 65 694 92 694 q 19 713 38 694 q 0 760 0 732 l 0 1063 q 19 1109 0 1090 q 65 1128 38 1128 l 369 1128 q 415 1109 396 1128 q 434 1063 434 1090 q 415 1017 434 1036 l 317 920 l 608 629 l 898 920 l 800 1017 q 781 1063 781 1036 q 800 1109 781 1090 q 846 1128 819 1128 l 1150 1128 q 1196 1109 1177 1128 q 1215 1063 1215 1090 l 1215 760 q 1196 713 1215 732 q 1150 694 1177 694 q 1104 713 1123 694 l 1006 811 l 716 521 l 1006 231 l 1104 328 q 1150 347 1123 347 q 1196 328 1177 347 q 1215 282 1215 309 z "},"":{"ha":1215,"x_min":0,"x_max":1215,"o":"m 0 727 l 0 1063 q 19 1109 0 1090 q 65 1128 38 1128 l 401 1128 q 425 1119 415 1128 q 434 1096 434 1109 l 434 987 q 425 964 434 974 q 401 955 415 955 l 174 955 l 174 727 q 164 704 174 713 q 141 694 155 694 l 33 694 q 9 704 19 694 q 0 727 0 713 m 781 1096 l 781 987 q 791 964 781 974 q 814 955 800 955 l 1042 955 l 1042 727 q 1051 704 1042 713 q 1074 694 1061 694 l 1183 694 q 1206 704 1196 694 q 1215 727 1215 713 l 1215 1063 q 1196 1109 1215 1090 q 1150 1128 1177 1128 l 814 1128 q 791 1119 800 1128 q 781 1096 781 1109 m 1183 347 l 1074 347 q 1051 338 1061 347 q 1042 315 1042 328 l 1042 87 l 814 87 q 791 77 800 87 q 781 54 781 68 l 781 -54 q 791 -77 781 -68 q 814 -87 800 -87 l 1150 -87 q 1196 -68 1177 -87 q 1215 -22 1215 -49 l 1215 315 q 1206 338 1215 328 q 1183 347 1196 347 m 434 -54 l 434 54 q 425 77 434 68 q 401 87 415 87 l 174 87 l 174 315 q 164 338 174 328 q 141 347 155 347 l 33 347 q 9 338 19 347 q 0 315 0 328 l 0 -22 q 19 -68 0 -49 q 65 -87 38 -87 l 401 -87 q 425 -77 415 -87 q 434 -54 434 -68 z "},"":{"ha":1563,"x_min":0,"x_max":1565,"o":"m 1563 1150 l 1563 803 q 1544 757 1563 776 q 1497 738 1525 738 q 1451 757 1470 738 l 1354 854 l 694 193 q 648 174 675 174 q 602 193 621 174 l 540 255 q 521 301 521 274 q 540 347 521 328 l 1202 1006 l 1104 1104 q 1085 1150 1085 1123 q 1104 1196 1085 1177 q 1150 1215 1123 1215 l 1497 1215 q 1544 1196 1525 1215 q 1563 1150 1563 1177 m 1104 480 l 1061 437 q 1042 391 1042 418 l 1042 0 l 174 0 l 174 868 l 890 868 q 936 887 917 868 l 979 930 q 998 977 998 949 q 979 1023 998 1004 q 933 1042 960 1042 l 130 1042 q 38 1004 76 1042 q 0 911 0 966 l 0 -43 q 38 -136 0 -98 q 130 -174 76 -174 l 1085 -174 q 1177 -136 1139 -174 q 1215 -43 1215 -98 l 1215 434 q 1196 481 1215 464 q 1150 500 1177 499 q 1104 480 1123 502 z "},"":{"ha":1215,"x_min":0,"x_max":1215,"o":"m 1215 998 l 1215 43 q 1177 -49 1215 -11 q 1085 -87 1139 -87 l 130 -87 q 38 -49 76 -87 q 0 43 0 -11 l 0 998 q 38 1090 0 1053 q 130 1128 76 1128 l 1085 1128 q 1177 1090 1139 1128 q 1215 998 1215 1053 m 977 955 l 673 955 q 627 936 646 955 q 608 890 608 917 q 627 844 608 863 l 713 757 l 184 228 q 174 203 174 217 q 184 182 174 190 l 269 98 q 290 87 277 87 q 315 98 304 87 l 844 627 l 930 540 q 977 521 949 521 q 1023 540 1004 521 q 1042 586 1042 559 l 1042 890 q 1023 936 1042 917 q 977 955 1004 955 z "},"":{"ha":1389,"x_min":0,"x_max":1397,"o":"m 480 654 l 106 279 q 87 233 87 260 l 87 65 l 0 -87 l 87 -174 l 239 -87 l 407 -87 q 453 -68 434 -87 l 827 307 l 480 654 m 1093 572 l 1139 526 q 1158 480 1158 507 q 1139 434 1158 453 l 1028 323 q 982 304 1009 304 q 936 323 955 304 l 496 762 q 477 808 477 781 q 496 854 477 836 l 608 966 q 654 985 627 985 q 700 966 681 985 l 746 920 l 971 1142 q 1143 1215 1042 1215 q 1318 1142 1245 1215 q 1389 952 1394 1053 q 1318 795 1383 863 l 1093 572 z "},"":{"ha":1563,"x_min":-3,"x_max":1563,"o":"m 779 152 l 865 24 q 781 22 825 22 q 336 141 540 22 q 19 456 136 258 q 0 521 0 486 q 19 586 0 556 q 279 865 117 754 l 434 643 q 412 521 412 583 q 461 336 412 420 q 594 202 510 252 q 779 152 678 152 m 1544 456 q 1386 258 1481 345 q 1177 114 1291 171 l 1291 -46 q 1301 -95 1305 -68 q 1275 -136 1297 -122 l 1240 -163 q 1191 -172 1218 -176 q 1147 -146 1164 -168 l 271 1088 q 262 1137 258 1109 q 288 1177 266 1164 l 323 1204 q 372 1214 345 1218 q 415 1188 399 1210 l 553 990 q 781 1020 665 1020 q 1226 901 1023 1020 q 1544 586 1427 784 q 1563 521 1563 556 q 1544 456 1563 486 m 1150 521 q 1100 705 1150 621 q 966 840 1050 789 q 781 890 882 890 q 643 863 711 890 l 697 789 q 806 802 749 806 q 914 770 863 798 l 914 770 q 831 736 865 770 q 798 654 798 703 q 831 571 798 605 q 914 537 865 537 q 997 571 963 537 q 1031 654 1031 605 l 1031 654 q 1063 502 1069 583 q 1009 353 1058 420 l 1061 279 q 1150 521 1150 382 m 711 247 l 499 548 q 551 358 491 442 q 711 247 610 274 z "},"":{"ha":1563,"x_min":-3,"x_max":1565,"o":"m 1544 586 q 1226 901 1427 784 q 781 1020 1023 1020 q 336 901 540 1020 q 19 586 136 784 q 0 521 0 556 q 19 456 0 486 q 336 141 136 258 q 781 22 540 22 q 1226 141 1023 22 q 1544 456 1427 258 q 1563 521 1563 486 q 1544 586 1563 556 m 781 152 q 597 202 681 152 q 463 336 513 252 q 412 521 412 420 q 463 705 412 621 q 597 840 513 789 q 781 890 681 890 q 966 840 882 890 q 1100 705 1050 789 q 1150 521 1150 621 q 1100 336 1150 420 q 966 202 1050 252 q 781 152 882 152 m 1063 521 q 981 321 1063 404 q 781 239 898 239 q 582 321 665 239 q 499 521 499 404 q 532 654 499 591 l 532 654 q 566 571 532 605 q 648 537 600 537 q 731 571 697 537 q 765 654 765 605 q 731 736 765 703 q 648 770 697 770 l 648 770 q 781 803 711 803 q 981 720 898 803 q 1063 521 1063 637 z "},"":{"ha":1389,"x_min":0,"x_max":1389,"o":"m 0 33 l 0 1009 q 9 1032 0 1023 q 33 1042 19 1042 l 141 1042 q 164 1032 155 1042 q 174 1009 174 1023 l 174 597 l 640 1023 q 699 1042 665 1044 q 757 1015 732 1039 q 781 955 781 990 l 781 597 l 1248 1023 q 1306 1042 1272 1044 q 1364 1015 1340 1039 q 1389 955 1389 990 l 1389 87 q 1364 27 1389 52 q 1306 0 1340 3 q 1248 19 1272 -3 l 781 442 l 781 87 q 757 27 781 52 q 699 0 732 3 q 640 19 665 -3 l 174 442 l 174 33 q 164 9 174 19 q 141 0 155 0 l 33 0 q 9 9 19 0 q 0 33 0 19 z "},"":{"ha":1389,"x_min":0,"x_max":1389,"o":"m 1389 1009 l 1389 33 q 1379 9 1389 19 q 1356 0 1370 0 l 1248 0 q 1225 9 1234 0 q 1215 33 1215 19 l 1215 445 l 751 19 q 690 0 724 -3 q 632 27 656 3 q 608 87 608 52 l 608 445 l 144 19 q 83 0 117 -3 q 24 27 49 3 q 0 87 0 52 l 0 955 q 24 1015 0 990 q 83 1042 49 1039 q 144 1023 117 1044 l 608 600 l 608 955 q 632 1015 608 990 q 690 1042 656 1039 q 749 1023 724 1044 l 1215 600 l 1215 1009 q 1225 1032 1215 1023 q 1248 1042 1234 1042 l 1356 1042 q 1379 1032 1370 1042 q 1389 1009 1389 1023 z "},"":{"ha":1389,"x_min":0,"x_max":1392,"o":"m 347 825 l 347 -43 q 309 -136 347 -98 q 217 -174 271 -174 l 130 -174 q 38 -136 76 -174 q 0 -43 0 -98 l 0 825 q 38 917 0 879 q 130 955 76 955 l 217 955 q 309 917 271 955 q 347 825 347 879 m 1389 651 l 1389 -43 q 1351 -136 1389 -98 q 1259 -174 1313 -174 l 521 -174 q 429 -136 467 -174 q 391 -43 391 -98 l 391 1107 q 422 1184 391 1153 q 499 1215 453 1215 l 1061 1215 q 1139 1183 1107 1215 l 1270 1053 q 1302 974 1302 1020 l 1302 773 q 1364 726 1340 760 q 1389 651 1389 692 m 521 694 l 1172 694 l 1172 955 l 1107 955 q 1061 974 1080 955 q 1042 1020 1042 993 l 1042 1085 l 521 1085 l 521 694 m 781 141 q 772 164 781 155 q 749 174 762 174 l 640 174 q 617 164 627 174 q 608 141 608 155 l 608 33 q 617 9 608 19 q 640 0 627 0 l 749 0 q 772 9 762 0 q 781 33 781 19 l 781 141 m 781 488 q 772 511 781 502 q 749 521 762 521 l 640 521 q 617 511 627 521 q 608 488 608 502 l 608 380 q 617 357 608 366 q 640 347 627 347 l 749 347 q 772 357 762 347 q 781 380 781 366 l 781 488 m 1128 141 q 1119 164 1128 155 q 1096 174 1109 174 l 987 174 q 964 164 974 174 q 955 141 955 155 l 955 33 q 964 9 955 19 q 987 0 974 0 l 1096 0 q 1119 9 1109 0 q 1128 33 1128 19 l 1128 141 m 1128 488 q 1119 511 1128 502 q 1096 521 1109 521 l 987 521 q 964 511 974 521 q 955 488 955 502 l 955 380 q 964 357 955 366 q 987 347 974 347 l 1096 347 q 1119 357 1109 347 q 1128 380 1128 366 l 1128 488 z "},"":{"ha":694,"x_min":0,"x_max":681,"o":"m 347 1215 q 471 1165 420 1215 q 521 1042 521 1115 q 471 918 521 968 q 347 868 420 868 q 224 918 274 868 q 174 1042 174 968 q 224 1165 174 1115 q 347 1215 274 1215 m 670 255 l 540 776 q 517 811 534 798 q 477 825 499 825 l 448 825 q 347 803 399 803 q 247 825 296 803 l 217 825 q 178 811 195 825 q 155 776 160 798 l 24 255 q 35 198 16 222 q 87 174 54 174 l 239 174 l 239 -109 q 258 -155 239 -136 q 304 -174 277 -174 l 391 -174 q 437 -155 418 -174 q 456 -109 456 -136 l 456 174 l 608 174 q 659 198 640 174 q 670 255 678 222 z "},"":{"ha":1736,"x_min":0,"x_max":1736,"o":"m 1476 608 l 1128 651 l 998 694 l 933 694 l 616 1096 l 724 1096 q 764 1100 746 1096 q 781 1112 781 1104 q 764 1124 781 1120 q 724 1128 746 1128 l 412 1128 l 412 1096 l 456 1096 l 456 651 l 326 651 l 144 868 l 52 868 l 22 838 l 22 651 l 43 651 l 43 608 l 174 608 l 174 600 l 0 578 l 0 464 l 174 442 l 174 434 l 43 434 l 43 391 l 22 391 l 22 203 l 52 174 l 144 174 l 326 391 l 456 391 l 456 -54 l 412 -54 l 412 -87 l 724 -87 q 764 -83 746 -87 q 781 -71 781 -79 q 764 -58 781 -62 q 724 -54 746 -54 l 616 -54 l 933 347 l 998 347 l 1128 391 l 1476 434 q 1660 480 1598 461 q 1725 505 1712 494 q 1736 521 1736 510 q 1725 537 1736 532 q 1660 562 1712 548 q 1476 608 1598 581 z "},"":{"ha":1042,"x_min":0,"x_max":1042,"o":"m 608 846 l 608 1215 l 65 1215 q 19 1196 38 1215 q 0 1150 0 1177 l 0 -109 q 19 -155 0 -136 q 65 -174 38 -174 l 977 -174 q 1023 -155 1004 -174 q 1042 -109 1042 -136 l 1042 781 l 673 781 q 627 800 646 781 q 608 846 608 819 m 781 206 q 772 183 781 193 q 749 174 762 174 l 293 174 q 270 183 279 174 q 260 206 260 193 l 260 228 q 270 251 260 241 q 293 260 279 260 l 749 260 q 772 251 762 260 q 781 228 781 241 l 781 206 m 781 380 q 772 357 781 366 q 749 347 762 347 l 293 347 q 270 357 279 347 q 260 380 260 366 l 260 401 q 270 425 260 415 q 293 434 279 434 l 749 434 q 772 425 762 434 q 781 401 781 415 l 781 380 m 781 575 l 781 553 q 772 530 781 540 q 749 521 762 521 l 293 521 q 270 530 279 521 q 260 553 260 540 l 260 575 q 270 598 260 589 q 293 608 279 608 l 749 608 q 772 598 762 608 q 781 575 781 589 m 1042 884 l 1042 868 l 694 868 l 694 1215 l 711 1215 q 757 1196 738 1215 l 1023 930 q 1042 884 1042 911 z "},"":{"ha":1042,"x_min":0,"x_max":1042,"o":"m 608 846 l 608 1215 l 434 1215 l 434 1128 l 347 1128 l 347 1215 l 65 1215 q 19 1196 38 1215 q 0 1150 0 1177 l 0 -109 q 19 -155 0 -136 q 65 -174 38 -174 l 977 -174 q 1023 -155 1004 -174 q 1042 -109 1042 -136 l 1042 781 l 673 781 q 627 800 646 781 q 608 846 608 819 m 260 1128 l 347 1128 l 347 1042 l 260 1042 l 260 1128 m 347 87 q 237 140 279 87 q 209 258 195 193 l 260 521 l 260 608 l 347 608 l 347 694 l 260 694 l 260 781 l 347 781 l 347 868 l 260 868 l 260 955 l 347 955 l 347 1042 l 434 1042 l 434 955 l 347 955 l 347 868 l 434 868 l 434 781 l 347 781 l 347 694 l 434 694 l 434 608 l 347 608 l 347 521 l 410 521 q 429 513 420 521 q 439 494 437 505 l 488 258 q 457 138 499 190 q 347 87 415 87 m 437 231 q 411 179 437 201 q 349 157 385 157 q 286 179 312 157 q 260 231 260 201 q 286 282 260 260 q 349 304 312 304 q 411 282 385 304 q 437 231 437 260 m 1042 884 l 1042 868 l 694 868 l 694 1215 l 711 1215 q 757 1196 738 1215 l 1023 930 q 1042 884 1042 911 z "},"":{"ha":1042,"x_min":0,"x_max":1042,"o":"m 608 846 l 608 1215 l 65 1215 q 19 1196 38 1215 q 0 1150 0 1177 l 0 -109 q 19 -155 0 -136 q 65 -174 38 -174 l 977 -174 q 1023 -155 1004 -174 q 1042 -109 1042 -136 l 1042 781 l 673 781 q 627 800 646 781 q 608 846 608 819 m 434 119 q 414 90 434 98 q 380 98 393 81 l 282 195 l 206 195 q 183 205 193 195 q 174 228 174 214 l 174 380 q 183 403 174 393 q 206 412 193 412 l 282 412 l 380 513 q 414 518 393 526 q 434 488 434 510 l 434 119 m 524 250 q 543 294 543 269 q 524 339 543 320 q 509 403 496 369 q 555 448 521 437 q 618 429 589 458 q 673 294 673 374 q 618 157 673 214 q 555 141 589 130 q 509 186 521 152 q 524 250 496 220 m 757 567 q 856 392 830 491 q 856 194 882 293 q 757 22 830 95 q 694 3 730 -8 q 647 47 659 14 q 665 111 635 81 q 738 293 738 187 q 665 475 738 399 q 647 538 635 505 q 694 583 659 572 q 757 567 730 594 m 1042 884 l 1042 868 l 694 868 l 694 1215 l 711 1215 q 757 1196 738 1215 l 1023 930 q 1042 884 1042 911 z "},"":{"ha":1042,"x_min":0,"x_max":1044,"o":"m 1042 884 l 1042 868 l 694 868 l 694 1215 l 711 1215 q 757 1196 738 1215 l 1023 930 q 1042 884 1042 911 m 673 781 q 627 800 646 781 q 608 846 608 819 l 608 1215 l 65 1215 q 19 1196 38 1215 q 0 1150 0 1177 l 0 -109 q 19 -155 0 -136 q 65 -174 38 -174 l 977 -174 q 1023 -155 1004 -174 q 1042 -109 1042 -136 l 1042 781 l 673 781 m 334 127 q 324 125 331 125 q 315 127 317 125 l 138 293 q 133 304 133 298 q 138 315 133 309 l 315 480 q 324 483 317 483 q 334 480 331 483 l 388 423 q 391 411 391 418 q 385 401 391 404 l 277 304 l 385 206 q 391 197 391 203 q 388 184 391 190 l 334 127 m 475 -8 l 399 14 q 391 22 393 16 q 388 33 388 27 l 556 605 q 562 614 556 610 q 572 616 567 618 l 648 594 q 656 586 654 591 q 659 575 659 581 l 491 3 q 486 -7 491 -3 q 475 -8 480 -11 m 909 293 l 732 127 q 723 125 730 125 q 713 127 716 125 l 659 184 q 656 197 656 190 q 662 206 656 203 l 770 304 l 662 401 q 656 411 656 404 q 659 423 656 418 l 713 480 q 723 483 716 483 q 732 480 730 483 l 909 315 q 914 304 914 309 q 909 293 914 298 z "},"":{"ha":1042,"x_min":0,"x_max":1042,"o":"m 608 846 l 608 1215 l 65 1215 q 19 1196 38 1215 q 0 1150 0 1177 l 0 -109 q 19 -155 0 -136 q 65 -174 38 -174 l 977 -174 q 1023 -155 1004 -174 q 1042 -109 1042 -136 l 1042 781 l 673 781 q 627 800 646 781 q 608 846 608 819 m 770 559 l 608 304 l 770 52 q 772 16 781 33 q 743 0 762 0 l 648 0 q 621 16 629 0 l 521 203 q 472 106 507 176 l 420 16 q 393 0 412 0 l 298 0 q 270 16 279 0 q 271 49 260 33 l 434 304 l 271 556 q 270 590 260 572 q 298 608 279 608 l 393 608 q 420 591 412 608 q 477 491 453 534 q 521 404 496 458 l 621 591 q 648 608 629 608 l 743 608 q 772 591 762 608 q 770 556 781 575 l 770 559 m 1042 884 l 1042 868 l 694 868 l 694 1215 l 711 1215 q 757 1196 738 1215 l 1023 930 q 1042 884 1042 911 z "},"":{"ha":1042,"x_min":0,"x_max":1044,"o":"m 1042 884 l 1042 868 l 694 868 l 694 1215 l 711 1215 q 757 1196 738 1215 l 1023 930 q 1042 884 1042 911 m 673 781 q 627 800 646 781 q 608 846 608 819 l 608 1215 l 65 1215 q 19 1196 38 1215 q 0 1150 0 1177 l 0 -109 q 19 -155 0 -136 q 65 -174 38 -174 l 977 -174 q 1023 -155 1004 -174 q 1042 -109 1042 -136 l 1042 781 l 673 781 m 307 738 q 397 700 358 738 q 437 608 437 662 q 397 515 437 553 q 305 477 358 477 q 214 515 252 477 q 176 608 176 553 q 214 700 176 662 q 307 738 252 738 m 871 87 l 176 87 l 176 217 l 285 326 q 305 334 293 334 q 328 326 317 334 l 437 217 l 716 499 q 741 507 727 507 q 762 499 754 507 l 871 391 l 871 87 z "},"":{"ha":1215,"x_min":-3,"x_max":1215,"o":"m 781 846 l 781 1215 l 239 1215 q 193 1196 212 1215 q 174 1150 174 1177 l 174 521 l 22 521 q 7 514 14 521 q 0 499 0 507 l 0 456 q 7 441 0 448 q 22 434 14 434 l 404 434 q 423 423 418 434 l 477 315 l 632 624 q 651 635 637 635 q 670 621 665 635 l 765 434 l 955 434 q 986 422 974 434 q 998 391 998 410 q 986 359 998 372 q 955 347 974 347 l 711 347 l 651 467 l 496 160 q 477 146 491 146 q 458 157 464 146 l 363 347 l 174 347 l 174 -109 q 193 -155 174 -136 q 239 -174 212 -174 l 1150 -174 q 1196 -155 1177 -174 q 1215 -109 1215 -136 l 1215 781 l 846 781 q 800 800 819 781 q 781 846 781 819 m 1196 930 l 930 1196 q 884 1215 911 1215 l 868 1215 l 868 868 l 1215 868 l 1215 884 q 1196 930 1215 911 z "},"":{"ha":1042,"x_min":0,"x_max":1042,"o":"m 1023 930 l 757 1196 q 711 1215 738 1215 l 694 1215 l 694 868 l 1042 868 l 1042 884 q 1023 930 1042 911 m 608 846 l 608 1215 l 65 1215 q 19 1196 38 1215 q 0 1150 0 1177 l 0 -109 q 19 -155 0 -136 q 65 -174 38 -174 l 977 -174 q 1023 -155 1004 -174 q 1042 -109 1042 -136 l 1042 781 l 673 781 q 627 800 646 781 q 608 846 608 819 m 781 412 l 781 282 q 774 267 781 274 q 760 260 768 260 l 608 260 l 608 109 q 601 94 608 100 q 586 87 594 87 l 456 87 q 441 94 448 87 q 434 109 434 100 l 434 260 l 282 260 q 267 267 274 260 q 260 282 260 274 l 260 412 q 267 427 260 420 q 282 434 274 434 l 434 434 l 434 586 q 441 601 434 594 q 456 608 448 608 l 586 608 q 601 601 594 608 q 608 586 608 594 l 608 434 l 760 434 q 774 427 768 434 q 781 412 781 420 z "},"":{"ha":1042,"x_min":0,"x_max":1042,"o":"m 494 521 q 483 600 483 551 q 488 648 483 648 q 505 595 505 648 q 494 521 505 543 m 488 393 q 412 222 448 288 l 450 239 q 583 282 534 271 q 488 393 526 323 m 233 54 q 247 61 233 52 q 277 92 260 71 q 328 163 301 122 l 317 155 q 233 54 247 90 m 673 781 l 1042 781 l 1042 -109 q 1023 -155 1042 -136 q 977 -174 1004 -174 l 65 -174 q 19 -155 38 -174 q 0 -109 0 -136 l 0 1150 q 19 1196 0 1177 q 65 1215 38 1215 l 608 1215 l 608 846 q 627 800 608 819 q 673 781 646 781 m 651 315 q 534 461 572 363 l 537 464 q 553 551 551 521 q 553 635 562 605 q 517 686 545 673 q 458 690 488 700 q 423 654 429 681 q 420 564 412 618 q 445 445 426 518 q 334 212 382 298 l 334 212 q 212 130 255 174 q 184 27 152 71 q 213 7 195 14 q 244 0 231 0 q 319 39 279 0 q 410 168 358 79 l 450 182 q 624 231 570 222 q 715 193 667 206 q 798 179 762 179 q 852 201 833 179 q 869 251 871 222 q 852 296 868 279 q 651 315 808 336 m 1023 930 l 757 1196 q 711 1215 738 1215 l 694 1215 l 694 868 l 1042 868 l 1042 884 q 1023 930 1042 911 m 822 239 q 819 250 827 241 q 787 260 811 258 q 705 263 754 266 q 781 236 751 244 q 814 236 803 233 l 822 239 z "},"":{"ha":1042,"x_min":0,"x_max":1042,"o":"m 526 480 q 581 457 562 480 q 600 397 600 434 q 579 338 600 361 q 524 315 559 315 l 450 315 l 450 480 l 526 480 m 1023 930 l 757 1196 q 711 1215 738 1215 l 694 1215 l 694 868 l 1042 868 l 1042 884 q 1023 930 1042 911 m 608 846 l 608 1215 l 65 1215 q 19 1196 38 1215 q 0 1150 0 1177 l 0 -109 q 19 -155 0 -136 q 65 -174 38 -174 l 977 -174 q 1023 -155 1004 -174 q 1042 -109 1042 -136 l 1042 781 l 673 781 q 627 800 646 781 q 608 846 608 819 m 751 399 q 643 209 751 255 q 472 187 581 182 l 450 187 l 450 33 q 441 9 450 19 q 418 0 431 0 l 334 0 q 311 9 320 0 q 301 33 301 19 l 301 575 q 311 598 301 589 q 334 608 320 608 l 553 608 q 697 548 643 608 q 751 399 751 488 z "},"":{"ha":1042,"x_min":0,"x_max":1044,"o":"m 1042 884 l 1042 868 l 694 868 l 694 1215 l 711 1215 q 757 1196 738 1215 l 1023 930 q 1042 884 1042 911 m 608 846 l 608 1215 l 65 1215 q 19 1196 38 1215 q 0 1150 0 1177 l 0 -109 q 19 -155 0 -136 q 65 -174 38 -174 l 977 -174 q 1023 -155 1004 -174 q 1042 -109 1042 -136 l 1042 781 l 673 781 q 627 800 646 781 q 608 846 608 819 m 868 456 l 868 152 q 849 106 868 125 q 803 87 830 87 q 757 106 776 87 l 608 255 l 608 152 q 589 106 608 125 q 543 87 570 87 l 239 87 q 193 106 212 87 q 174 152 174 125 l 174 456 q 193 502 174 483 q 239 521 212 521 l 543 521 q 589 502 570 521 q 608 456 608 483 l 608 353 l 757 502 q 803 521 776 521 q 849 502 830 521 q 868 456 868 483 z "},"":{"ha":1042,"x_min":0,"x_max":1042,"o":"m 608 846 l 608 1215 l 65 1215 q 19 1196 38 1215 q 0 1150 0 1177 l 0 -109 q 19 -155 0 -136 q 65 -174 38 -174 l 977 -174 q 1023 -155 1004 -174 q 1042 -109 1042 -136 l 1042 781 l 673 781 q 627 800 646 781 q 608 846 608 819 m 762 521 l 827 521 q 853 509 844 521 q 860 480 863 496 l 757 24 q 745 7 754 14 q 724 0 735 0 l 621 0 q 601 7 610 0 q 589 24 591 14 l 559 149 q 524 298 529 266 l 521 326 l 518 326 q 510 271 518 301 l 450 24 q 438 7 448 14 q 418 0 429 0 l 317 0 q 297 7 307 0 q 285 24 288 14 l 184 480 q 189 509 179 496 q 214 521 198 521 l 282 521 q 302 514 293 521 q 312 494 312 507 q 372 163 366 236 q 426 393 374 187 l 450 496 q 461 514 453 507 q 483 521 469 521 l 562 521 q 581 514 572 521 q 591 496 589 507 q 673 144 667 184 l 673 152 q 678 228 673 182 q 732 496 692 309 q 742 514 732 507 q 762 521 751 521 m 1042 884 l 1042 868 l 694 868 l 694 1215 l 711 1215 q 757 1196 738 1215 l 1023 930 q 1042 884 1042 911 z "},"":{"ha":1042,"x_min":0,"x_max":1042,"o":"m 608 846 l 608 1215 l 65 1215 q 19 1196 38 1215 q 0 1150 0 1177 l 0 -109 q 19 -155 0 -136 q 65 -174 38 -174 l 977 -174 q 1023 -155 1004 -174 q 1042 -109 1042 -136 l 1042 781 l 673 781 q 627 800 646 781 q 608 846 608 819 m 1042 884 l 1042 868 l 694 868 l 694 1215 l 711 1215 q 757 1196 738 1215 l 1023 930 q 1042 884 1042 911 z "},"":{"ha":1389,"x_min":0,"x_max":1389,"o":"m 1324 1042 l 1302 1042 l 1302 987 q 1293 964 1302 974 q 1270 955 1283 955 l 1161 955 q 1138 964 1147 955 q 1128 987 1128 974 l 1128 1042 l 260 1042 l 260 987 q 251 964 260 974 q 228 955 241 955 l 119 955 q 96 964 106 955 q 87 987 87 974 l 87 1042 l 65 1042 q 19 1023 38 1042 q 0 977 0 1004 l 0 65 q 19 19 0 38 q 65 0 38 0 l 87 0 l 87 54 q 96 77 87 68 q 119 87 106 87 l 228 87 q 251 77 241 87 q 260 54 260 68 l 260 0 l 1128 0 l 1128 54 q 1138 77 1128 68 q 1161 87 1147 87 l 1270 87 q 1293 77 1283 87 q 1302 54 1302 68 l 1302 0 l 1324 0 q 1370 19 1351 0 q 1389 65 1389 38 l 1389 977 q 1370 1023 1389 1004 q 1324 1042 1351 1042 m 260 206 q 251 183 260 193 q 228 174 241 174 l 119 174 q 96 183 106 174 q 87 206 87 193 l 87 315 q 96 338 87 328 q 119 347 106 347 l 228 347 q 251 338 241 347 q 260 315 260 328 l 260 206 m 260 467 q 251 444 260 453 q 228 434 241 434 l 119 434 q 96 444 106 434 q 87 467 87 453 l 87 575 q 96 598 87 589 q 119 608 106 608 l 228 608 q 251 598 241 608 q 260 575 260 589 l 260 467 m 260 727 q 251 704 260 713 q 228 694 241 694 l 119 694 q 96 704 106 694 q 87 727 87 713 l 87 836 q 96 859 87 849 q 119 868 106 868 l 228 868 q 251 859 241 868 q 260 836 260 849 l 260 727 m 998 163 q 989 140 998 149 q 966 130 979 130 l 423 130 q 400 140 410 130 q 391 163 391 149 l 391 423 q 400 446 391 437 q 423 456 410 456 l 966 456 q 989 446 979 456 q 998 423 998 437 l 998 163 m 998 618 q 989 595 998 605 q 966 586 979 586 l 423 586 q 400 595 410 586 q 391 618 391 605 l 391 879 q 400 902 391 892 q 423 911 410 911 l 966 911 q 989 902 979 911 q 998 879 998 892 l 998 618 m 1302 206 q 1293 183 1302 193 q 1270 174 1283 174 l 1161 174 q 1138 183 1147 174 q 1128 206 1128 193 l 1128 315 q 1138 338 1128 328 q 1161 347 1147 347 l 1270 347 q 1293 338 1283 347 q 1302 315 1302 328 l 1302 206 m 1302 467 q 1293 444 1302 453 q 1270 434 1283 434 l 1161 434 q 1138 444 1147 434 q 1128 467 1128 453 l 1128 575 q 1138 598 1128 589 q 1161 608 1147 608 l 1270 608 q 1293 598 1283 608 q 1302 575 1302 589 l 1302 467 m 1302 727 q 1293 704 1302 713 q 1270 694 1283 694 l 1161 694 q 1138 704 1147 694 q 1128 727 1128 713 l 1128 836 q 1138 859 1128 849 q 1161 868 1147 868 l 1270 868 q 1293 859 1283 868 q 1302 836 1302 849 l 1302 727 z "},"":{"ha":1389,"x_min":-3,"x_max":1392,"o":"m 1324 1215 l 65 1215 q 19 1196 38 1215 q 0 1150 0 1177 q 19 1104 0 1123 l 521 602 l 521 43 q 548 -11 521 11 l 765 -163 q 833 -167 798 -184 q 868 -109 868 -149 l 868 602 l 1370 1104 q 1389 1150 1389 1123 q 1370 1196 1389 1177 q 1324 1215 1351 1215 z "},"":{"ha":1215,"x_min":-5,"x_max":1218,"o":"m 1177 1145 l 722 1069 q 694 1023 694 1063 l 694 1020 l 537 1020 q 534 1114 551 1069 q 479 1187 518 1158 q 389 1215 439 1215 q 298 1184 339 1215 q 244 1105 258 1153 q 250 1009 231 1058 q 90 909 155 985 q 5 762 41 854 q 5 712 -5 738 q 41 677 16 686 q 91 678 65 667 q 125 713 117 689 q 201 838 160 800 q 293 884 239 873 q 415 890 328 890 l 456 890 l 456 817 q 316 723 372 795 q 260 562 260 651 l 260 -109 q 279 -155 260 -136 q 326 -174 298 -174 l 716 -174 q 762 -155 743 -174 q 781 -109 781 -136 l 781 564 q 726 724 781 654 q 586 817 670 795 l 586 890 l 694 890 l 694 887 q 722 841 692 846 l 1177 765 q 1204 773 1194 762 q 1215 798 1215 784 l 1215 1112 q 1204 1137 1215 1126 q 1177 1145 1194 1147 m 391 1020 q 359 1032 372 1020 q 347 1063 347 1044 q 359 1095 347 1082 q 391 1107 372 1107 q 422 1095 410 1107 q 434 1063 434 1082 q 422 1032 434 1044 q 391 1020 410 1020 z "},"":{"ha":1042,"x_min":0,"x_max":1042,"o":"m 586 1150 q 564 1200 586 1183 q 513 1215 543 1218 q 467 1185 483 1213 q 350 925 363 1039 q 382 757 336 833 q 488 635 410 711 q 570 543 548 575 q 608 434 608 491 q 556 311 608 361 q 433 260 505 260 q 311 312 361 260 q 260 437 260 363 l 260 667 q 241 715 260 697 q 195 734 222 732 q 149 713 168 735 q 46 562 87 648 q 0 347 0 458 q 71 87 0 206 q 260 -103 141 -33 q 521 -174 380 -174 q 781 -103 662 -174 q 971 87 901 -33 q 1042 347 1042 206 q 1001 570 1042 467 q 898 730 966 651 q 770 857 857 776 q 643 993 675 944 q 586 1150 586 1069 z "},"":{"ha":1563,"x_min":0,"x_max":1563,"o":"m 0 998 l 0 43 q 38 -49 0 -11 q 130 -87 76 -87 l 260 -87 l 260 1128 l 130 1128 q 38 1090 76 1128 q 0 998 0 1053 m 347 -87 l 1215 -87 l 1215 1128 l 347 1128 l 347 -87 m 521 586 q 528 601 521 594 q 543 608 534 608 l 694 608 l 694 760 q 701 774 694 768 q 716 781 708 781 l 846 781 q 861 774 854 781 q 868 760 868 768 l 868 608 l 1020 608 q 1035 601 1028 608 q 1042 586 1042 594 l 1042 456 q 1035 441 1042 448 q 1020 434 1028 434 l 868 434 l 868 282 q 861 267 868 274 q 846 260 854 260 l 716 260 q 701 267 708 260 q 694 282 694 274 l 694 434 l 543 434 q 528 441 534 434 q 521 456 521 448 l 521 586 m 1432 1128 l 1302 1128 l 1302 -87 l 1432 -87 q 1525 -49 1487 -87 q 1563 43 1563 -11 l 1563 998 q 1525 1090 1563 1053 q 1432 1128 1487 1128 z "},"":{"ha":1389,"x_min":0,"x_max":1392,"o":"m 1267 1034 q 1348 1028 1308 1053 q 1389 955 1389 1004 l 1389 296 q 1351 225 1389 250 q 1020 114 1191 114 q 884 130 955 114 q 768 165 844 138 q 670 195 703 187 q 570 209 616 209 q 260 146 401 209 l 260 -109 q 241 -155 260 -136 q 195 -174 222 -174 l 152 -174 q 106 -155 125 -174 q 87 -109 87 -136 l 87 939 q 39 993 57 960 q 22 1063 22 1025 q 68 1173 22 1128 q 179 1215 114 1218 q 281 1172 239 1213 q 326 1074 323 1131 q 315 1009 328 1039 q 499 1042 404 1042 q 635 1025 564 1042 q 751 990 675 1015 q 849 960 817 968 q 949 947 903 947 q 1267 1034 1080 947 m 260 849 l 260 659 q 461 716 388 705 l 461 909 q 385 895 423 906 q 301 865 361 887 l 260 849 m 860 825 q 711 865 806 836 l 659 884 l 659 700 q 741 675 686 692 q 860 640 817 648 l 860 825 m 461 716 l 461 526 q 659 515 570 534 l 659 700 q 461 716 556 730 m 659 331 q 808 288 713 320 l 860 271 l 860 456 q 779 480 833 461 q 659 515 703 505 l 659 331 m 260 288 q 461 331 355 320 l 461 526 q 260 477 369 518 l 260 288 m 1259 890 q 1058 827 1153 844 l 1058 632 q 1158 659 1107 640 q 1251 694 1191 670 l 1259 697 l 1259 890 m 1259 320 l 1259 510 q 1058 439 1172 456 l 1058 244 q 1259 320 1158 255 m 860 640 l 860 456 q 1058 439 963 426 l 1058 632 q 860 640 960 616 z "},"":{"ha":1389,"x_min":0,"x_max":1389,"o":"m 949 947 q 849 960 903 947 q 751 990 817 968 q 635 1025 675 1015 q 499 1042 564 1042 q 315 1009 404 1042 q 326 1074 328 1039 q 281 1172 323 1131 q 179 1215 239 1213 q 68 1173 114 1218 q 22 1063 22 1128 q 39 993 22 1025 q 87 939 57 960 l 87 -109 q 106 -155 87 -136 q 152 -174 125 -174 l 195 -174 q 241 -155 222 -174 q 260 -109 260 -136 l 260 146 q 570 209 401 209 q 670 195 616 209 q 768 165 703 187 q 884 130 844 138 q 1020 114 955 114 q 1351 225 1191 114 q 1389 296 1389 250 l 1389 955 q 1348 1028 1389 1004 q 1267 1034 1308 1053 q 949 947 1080 947 z "},"":{"ha":1215,"x_min":-11,"x_max":1226,"o":"m 1185 122 l 868 632 l 868 1042 l 890 1042 q 936 1061 917 1042 q 955 1107 955 1080 l 955 1150 q 936 1196 955 1177 q 890 1215 917 1215 l 326 1215 q 279 1196 298 1215 q 260 1150 260 1177 l 260 1107 q 279 1061 260 1080 q 326 1042 298 1042 l 347 1042 l 347 632 l 30 122 q 3 -11 -8 60 q 66 -127 14 -81 q 193 -174 119 -174 l 1023 -174 q 1149 -126 1096 -174 q 1213 -9 1202 -79 q 1185 122 1223 60 m 374 347 l 505 559 q 521 608 521 581 l 521 1042 l 694 1042 l 694 608 q 711 559 694 581 l 841 347 l 374 347 z "},"":{"ha":1563,"x_min":0,"x_max":1573,"o":"m 1554 423 l 1356 87 q 1294 23 1335 46 q 1207 0 1253 0 l 122 0 q 65 33 84 0 q 65 98 46 65 l 263 434 q 326 498 285 475 q 412 521 366 521 l 1497 521 q 1554 488 1535 521 q 1554 423 1573 456 m 412 608 l 1302 608 l 1302 738 q 1264 830 1302 792 q 1172 868 1226 868 l 738 868 l 564 1042 l 130 1042 q 38 1004 76 1042 q 0 911 0 966 l 0 157 l 187 477 q 282 572 222 537 q 412 608 342 608 z "},"":{"ha":1389,"x_min":0,"x_max":1389,"o":"m 1259 868 l 738 868 l 564 1042 l 130 1042 q 38 1004 76 1042 q 0 911 0 966 l 0 130 q 38 38 0 76 q 130 0 76 0 l 1259 0 q 1351 38 1313 0 q 1389 130 1389 76 l 1389 738 q 1351 830 1389 792 q 1259 868 1313 868 z "},"":{"ha":1215,"x_min":0,"x_max":1215,"o":"m 412 87 l 347 87 l 420 307 l 795 307 l 865 87 l 803 87 q 772 75 784 87 q 760 43 760 62 l 760 -43 q 772 -75 760 -62 q 803 -87 784 -87 l 1172 -87 q 1203 -75 1191 -87 q 1215 -43 1215 -62 l 1215 43 q 1203 75 1215 62 q 1172 87 1191 87 l 1099 87 l 746 1099 q 731 1120 743 1112 q 705 1128 719 1128 l 510 1128 q 484 1120 496 1128 q 469 1099 472 1112 l 117 87 l 43 87 q 12 75 24 87 q 0 43 0 62 l 0 -43 q 12 -75 0 -62 q 43 -87 24 -87 l 412 -87 q 444 -75 431 -87 q 456 -43 456 -62 l 456 43 q 444 75 456 62 q 412 87 431 87 m 586 825 q 608 917 600 871 q 629 825 613 871 l 741 488 l 472 488 l 586 825 z "},"":{"ha":1345,"x_min":0,"x_max":1345,"o":"m 1308 1053 q 1270 1115 1297 1088 q 1204 1153 1242 1142 q 920 1194 1066 1191 l 1345 768 q 1305 1053 1343 911 l 1308 1053 m 41 -11 q 76 -73 49 -46 q 141 -111 103 -100 q 426 -152 279 -149 l 0 274 q 38 -11 3 130 l 41 -11 m 11 448 l 597 -141 q 936 -18 779 -114 q 1196 231 1093 79 q 1335 594 1305 393 l 749 1183 q 410 1059 567 1156 q 149 811 252 963 q 11 448 41 648 m 873 781 q 887 789 879 789 q 903 781 895 789 l 933 751 q 939 736 939 746 q 933 722 939 727 l 857 643 l 933 567 q 939 552 939 562 q 933 537 939 543 l 903 505 q 887 499 895 499 q 873 505 879 499 l 795 583 l 735 521 l 811 445 q 817 429 817 437 q 811 412 817 420 l 781 382 q 765 377 773 377 q 749 382 757 377 l 673 458 l 610 399 l 689 323 q 694 307 694 315 q 689 290 694 298 l 656 260 q 642 255 651 255 q 627 260 632 255 l 551 336 l 475 260 q 458 255 467 255 q 442 260 450 255 l 412 290 q 407 307 407 298 q 412 320 407 315 l 488 399 l 412 475 q 407 490 407 480 q 412 505 407 499 l 442 537 q 458 543 450 543 q 475 537 467 543 l 551 458 l 610 521 l 534 597 q 529 613 529 605 q 534 629 529 621 l 564 659 q 581 665 572 665 q 597 659 589 665 l 673 583 l 735 643 l 656 719 q 651 735 651 727 q 656 751 651 743 l 689 781 q 704 787 694 787 q 719 781 713 787 l 795 705 l 873 781 z "},"":{"ha":1389,"x_min":0,"x_max":1389,"o":"m 1359 589 l 838 1023 q 777 1042 811 1044 q 719 1015 743 1039 q 694 955 694 990 l 694 87 q 719 27 694 52 q 777 0 743 3 q 836 19 811 -3 l 1359 453 q 1389 521 1389 480 q 1356 589 1389 562 l 1359 589 m 665 589 l 144 1023 q 83 1042 117 1044 q 24 1015 49 1039 q 0 955 0 990 l 0 87 q 24 27 0 52 q 83 0 49 3 q 144 19 117 -3 l 665 453 q 694 521 694 480 q 662 589 694 562 l 665 589 z "},"":{"ha":1345,"x_min":0,"x_max":1345,"o":"m 673 1194 q 336 1103 491 1194 q 91 857 182 1012 q 0 521 0 703 q 91 184 0 339 q 336 -61 182 30 q 673 -152 491 -152 q 1009 -61 854 -152 q 1255 184 1164 30 q 1345 521 1345 339 q 1255 857 1345 703 q 1009 1103 1164 1012 q 673 1194 854 1194 m 890 738 q 951 712 925 738 q 977 651 977 686 q 951 590 977 616 q 890 564 925 564 q 829 590 854 564 q 803 651 803 616 q 829 712 803 686 q 890 738 854 738 m 456 738 q 517 712 491 738 q 543 651 543 686 q 517 590 543 616 q 456 564 491 564 q 395 590 420 564 q 369 651 369 616 q 395 712 369 686 q 456 738 420 738 m 979 141 q 948 130 966 130 q 917 146 930 130 q 807 231 871 201 q 673 260 743 260 q 538 231 602 260 q 429 146 475 201 q 399 132 418 133 q 366 141 380 130 q 351 170 353 152 q 361 201 350 187 q 502 309 420 271 q 673 347 583 347 q 844 309 762 347 q 985 201 925 271 q 994 170 996 187 q 979 141 993 152 z "},"":{"ha":1389,"x_min":0,"x_max":1370,"o":"m 1367 521 q 1276 184 1367 339 q 1031 -61 1185 30 q 694 -152 876 -152 q 358 -61 513 -152 q 113 184 203 30 q 22 521 22 339 q 113 857 22 703 q 358 1103 203 1012 q 694 1194 513 1194 q 1031 1103 876 1194 q 1276 857 1185 1012 q 1367 521 1367 703 m 1237 521 l 1237 521 l 1166 461 l 996 618 l 1042 846 l 1134 838 q 860 1036 1028 985 l 898 952 l 694 838 l 491 952 l 529 1036 q 255 838 361 985 l 350 846 l 393 618 l 222 461 l 152 521 l 152 521 q 255 201 152 342 l 277 293 l 507 263 l 608 54 l 526 5 q 694 -22 608 -22 q 863 5 781 -22 l 781 54 l 882 263 l 1112 293 l 1134 201 q 1237 521 1237 342 m 564 331 l 483 581 l 694 732 l 906 581 l 825 331 l 564 331 z "},"":{"ha":1736,"x_min":-3,"x_max":1736,"o":"m 1302 955 l 434 955 q 217 897 317 955 q 58 738 117 838 q 0 521 0 637 q 58 304 0 404 q 217 145 117 203 q 434 87 317 87 q 604 121 524 87 q 743 217 684 155 l 993 217 q 1133 121 1053 155 q 1302 87 1213 87 q 1519 145 1419 87 q 1678 304 1619 203 q 1736 521 1736 404 q 1678 738 1736 637 q 1519 897 1619 838 q 1302 955 1419 955 m 694 467 q 685 444 694 453 q 662 434 675 434 l 521 434 l 521 293 q 511 270 521 279 q 488 260 502 260 l 380 260 q 357 270 366 260 q 347 293 347 279 l 347 434 l 206 434 q 183 444 193 434 q 174 467 174 453 l 174 575 q 183 598 174 589 q 206 608 193 608 l 347 608 l 347 749 q 357 772 347 762 q 380 781 366 781 l 488 781 q 511 772 502 781 q 521 749 521 762 l 521 608 l 662 608 q 685 598 675 608 q 694 575 694 589 l 694 467 m 1194 282 q 1101 320 1139 282 q 1063 412 1063 358 q 1101 505 1063 467 q 1194 543 1139 543 q 1286 505 1248 543 q 1324 412 1324 467 q 1286 320 1324 358 q 1194 282 1248 282 m 1411 499 q 1318 537 1356 499 q 1280 629 1280 575 q 1318 722 1280 684 q 1411 760 1356 760 q 1503 722 1465 760 q 1541 629 1541 684 q 1503 537 1541 575 q 1411 499 1465 499 z "},"":{"ha":1389,"x_min":0,"x_max":1389,"o":"m 1370 675 l 1308 735 q 1261 754 1289 754 q 1215 735 1234 754 l 1202 722 l 895 1028 l 909 1042 q 928 1088 928 1061 q 909 1134 928 1115 l 849 1196 q 803 1215 830 1215 q 757 1196 776 1215 l 418 860 q 399 812 399 838 q 418 768 399 787 l 480 705 q 526 686 499 686 q 572 705 553 686 l 586 722 l 694 613 l 475 393 l 458 410 q 397 434 434 434 q 336 410 361 434 l 24 98 q 0 37 0 73 q 24 -24 0 0 l 149 -149 q 210 -174 174 -174 q 271 -149 247 -174 l 583 163 q 608 224 608 187 q 583 285 608 260 l 567 301 l 787 521 l 895 412 l 879 399 q 860 353 860 380 q 879 307 860 326 l 941 244 q 986 225 960 225 q 1034 244 1012 225 l 1370 583 q 1389 629 1389 602 q 1370 675 1389 656 z "},"":{"ha":1563,"x_min":0,"x_max":1563,"o":"m 1318 1215 l 1563 781 l 1289 781 l 1101 1215 l 1318 1215 m 971 1215 l 1158 781 l 404 781 l 594 1215 l 971 1215 m 247 1215 l 461 1215 l 274 781 l 0 781 l 247 1215 m 0 694 l 274 694 l 608 11 q 604 1 610 5 q 594 3 597 -3 l 0 694 m 401 694 l 1161 694 l 789 -168 q 781 -174 787 -174 q 773 -168 776 -174 l 401 694 m 955 11 l 1289 694 l 1563 694 l 968 3 q 959 1 966 -3 q 955 11 952 5 z "},"":{"ha":781,"x_min":0,"x_max":781,"o":"m 391 738 q 544 674 480 738 q 608 521 608 610 q 544 368 608 431 q 391 304 480 304 q 237 368 301 304 q 174 521 174 431 q 237 674 174 610 q 391 738 301 738 m 391 911 q 195 859 285 911 q 53 716 106 806 q 0 521 0 627 q 53 326 0 415 q 195 183 106 236 q 391 130 285 130 q 586 183 496 130 q 728 326 675 236 q 781 521 781 415 q 728 716 781 627 q 586 859 675 806 q 391 911 496 911 z "},"":{"ha":1389,"x_min":0,"x_max":1389,"o":"m 87 0 q 113 -61 87 -35 q 174 -87 138 -87 l 608 -87 l 608 347 l 87 347 l 87 0 m 1302 781 l 1188 781 q 1215 890 1215 836 q 1145 1058 1215 987 q 977 1128 1074 1128 q 830 1082 895 1128 q 697 944 770 1042 q 564 1082 624 1042 q 418 1128 499 1128 q 250 1058 320 1128 q 179 890 179 987 q 206 781 179 833 l 87 781 q 26 755 52 781 q 0 694 0 730 l 0 477 q 12 446 0 458 q 43 434 24 434 l 1345 434 q 1377 446 1364 434 q 1389 477 1389 458 l 1389 694 q 1363 755 1389 730 q 1302 781 1337 781 m 418 781 q 340 812 372 781 q 309 890 309 844 q 340 967 309 936 q 418 998 372 998 q 472 987 450 998 q 540 930 502 974 q 651 781 583 882 l 418 781 m 977 781 l 743 781 q 854 930 811 882 q 922 987 892 974 q 977 998 944 998 q 1054 967 1023 998 q 1085 890 1085 936 q 1054 812 1085 844 q 977 781 1023 781 m 781 -87 l 1215 -87 q 1276 -61 1251 -87 q 1302 0 1302 -35 l 1302 347 l 781 347 l 781 -87 z "},"":{"ha":1389,"x_min":-8,"x_max":1397,"o":"m 1375 1142 q 1386 1188 1397 1161 q 1345 1215 1375 1215 l 43 1215 q 3 1188 14 1215 q 14 1142 -8 1161 l 586 567 l 586 -65 l 336 -65 q 282 -87 304 -65 q 260 -141 260 -109 q 270 -164 260 -155 q 293 -174 279 -174 l 1096 -174 q 1119 -164 1109 -174 q 1128 -141 1128 -155 q 1107 -87 1128 -109 q 1053 -65 1085 -65 l 803 -65 l 803 567 l 1375 1142 z "},"":{"ha":1345,"x_min":-3,"x_max":1345,"o":"m 914 781 q 817 1080 882 966 q 673 1194 751 1194 q 529 1080 594 1194 q 434 781 464 966 l 914 781 m 412 521 q 420 347 412 434 l 925 347 q 933 521 933 434 q 925 694 933 608 l 420 694 q 412 521 412 608 m 1294 781 q 1122 1021 1234 920 q 865 1166 1009 1123 q 1001 781 960 1031 l 1294 781 m 480 1166 q 224 1021 336 1123 q 52 781 111 920 l 345 781 q 480 1166 382 1031 m 1321 694 l 1012 694 q 1020 521 1020 605 q 1012 347 1020 437 l 1321 347 q 1345 521 1345 434 q 1321 694 1345 608 m 326 521 q 334 694 326 605 l 24 694 q 0 521 0 605 q 24 347 0 437 l 334 347 q 326 521 326 439 m 434 260 q 529 -38 464 76 q 673 -152 594 -152 q 817 -38 751 -152 q 911 260 882 76 l 434 260 m 865 -125 q 1122 20 1009 -81 q 1294 260 1234 122 l 1001 260 q 865 -125 963 11 m 52 260 q 224 20 111 122 q 480 -125 336 -81 q 345 260 385 11 l 52 260 z "},"":{"ha":1128,"x_min":0,"x_max":1131,"o":"m 260 87 l 868 87 q 842 26 868 52 q 781 0 817 0 l 738 0 q 677 -26 703 0 q 651 -87 651 -52 l 651 -141 q 642 -164 651 -155 q 618 -174 632 -174 l 510 -174 q 487 -164 496 -174 q 477 -141 477 -155 l 477 -87 q 452 -26 477 -52 q 391 0 426 0 l 347 0 q 286 26 312 0 q 260 87 260 52 m 1128 651 q 1057 376 1128 502 q 865 174 985 250 l 266 174 q 72 376 144 250 q 0 654 0 502 q 76 935 0 806 q 281 1139 152 1063 q 564 1215 410 1215 q 848 1139 719 1215 q 1053 935 977 1063 q 1128 651 1128 806 m 640 532 q 704 557 678 532 q 730 621 730 583 q 713 674 730 651 q 670 705 697 697 q 669 639 684 670 q 623 594 654 608 q 556 591 591 581 q 589 548 567 564 q 640 532 610 532 m 773 404 q 757 457 773 434 q 713 488 741 480 q 712 422 727 453 q 666 377 697 391 q 600 374 635 363 q 632 331 610 347 q 684 315 654 315 q 747 342 722 315 q 773 404 773 369 m 947 578 q 930 631 947 608 q 887 662 914 654 q 886 595 901 627 q 840 551 871 564 q 773 548 808 537 q 806 505 784 521 q 857 488 827 488 q 921 515 895 488 q 947 578 947 543 z "},"":{"ha":1736,"x_min":-8,"x_max":1744,"o":"m 1690 675 l 941 445 q 795 445 868 423 l 250 613 q 217 507 222 575 q 250 477 239 496 q 260 434 260 458 q 248 389 260 410 q 217 358 236 369 l 260 24 q 255 7 260 14 q 239 0 250 0 l 109 0 q 92 7 98 0 q 87 24 87 14 l 130 358 q 99 389 111 369 q 87 434 87 410 q 99 479 87 458 q 130 510 111 499 q 165 640 136 589 l 46 675 q 5 711 16 684 q 5 765 -5 738 q 46 800 16 792 l 795 1031 q 941 1031 868 1053 l 1690 800 q 1731 765 1720 792 q 1731 711 1742 738 q 1690 675 1720 684 m 968 361 l 966 361 l 966 361 q 770 361 868 334 l 361 488 l 326 260 q 399 174 326 214 q 597 110 472 133 q 868 87 722 87 q 1139 110 1015 87 q 1337 174 1264 133 q 1411 260 1411 214 l 1375 488 l 968 361 z "},"":{"ha":1215,"x_min":0,"x_max":1215,"o":"m 1215 998 l 1215 43 q 1177 -49 1215 -11 q 1085 -87 1139 -87 l 130 -87 q 38 -49 76 -87 q 0 43 0 -11 l 0 998 q 38 1090 0 1053 q 130 1128 76 1128 l 1085 1128 q 1177 1090 1139 1128 q 1215 998 1215 1053 m 911 868 l 825 868 q 793 856 806 868 q 781 825 781 844 l 781 608 l 434 608 l 434 825 q 422 856 434 844 q 391 868 410 868 l 304 868 q 273 856 285 868 q 260 825 260 844 l 260 217 q 273 186 260 198 q 304 174 285 174 l 391 174 q 422 186 410 174 q 434 217 434 198 l 434 434 l 781 434 l 781 217 q 793 186 781 198 q 825 174 806 174 l 911 174 q 943 186 930 174 q 955 217 955 198 l 955 825 q 943 856 955 844 q 911 868 930 868 z "},"":{"ha":1563,"x_min":-3,"x_max":1565,"o":"m 746 537 q 781 521 762 521 q 817 537 800 521 l 1112 846 q 1173 1010 1177 914 q 1096 1169 1169 1107 q 952 1214 1034 1221 q 811 1147 871 1207 l 781 1115 l 751 1147 q 612 1214 694 1207 q 467 1169 529 1221 q 392 1010 396 1107 q 450 846 388 914 l 746 537 m 1533 326 q 1477 347 1511 347 q 1419 326 1443 347 l 1166 125 q 1058 87 1120 87 l 738 87 q 707 99 719 87 q 694 130 694 111 q 707 161 694 149 q 738 174 719 174 l 949 174 q 1009 194 982 174 q 1042 247 1036 214 q 1021 316 1047 285 q 955 347 996 347 l 521 347 q 320 277 407 347 l 193 174 l 43 174 q 12 161 24 174 q 0 130 0 149 l 0 -130 q 12 -161 0 -149 q 43 -174 24 -174 l 1012 -174 q 1120 -136 1072 -174 l 1530 193 q 1564 258 1563 217 q 1533 326 1565 298 z "},"":{"ha":1476,"x_min":-3,"x_max":1478,"o":"m 700 825 l 836 784 q 852 762 852 781 q 845 747 852 754 q 827 741 838 741 l 741 741 q 711 746 724 741 q 673 741 689 757 l 627 694 q 616 667 616 684 q 629 643 616 651 q 716 613 667 618 l 716 564 q 728 533 716 545 q 760 521 741 521 l 803 521 q 834 533 822 521 q 846 564 846 545 l 846 613 q 948 669 909 618 q 979 784 987 719 q 941 864 974 830 q 863 911 909 898 l 727 952 q 711 974 711 955 q 718 989 711 982 q 735 996 724 996 l 822 996 q 852 990 838 996 q 890 996 873 979 l 936 1042 q 945 1069 947 1053 q 933 1093 944 1085 q 846 1123 895 1118 l 846 1172 q 834 1203 846 1191 q 803 1215 822 1215 l 760 1215 q 728 1203 741 1215 q 716 1172 716 1191 l 716 1123 q 614 1067 654 1118 q 583 952 575 1017 q 621 872 589 906 q 700 825 654 838 m 1449 326 q 1396 347 1427 347 q 1340 326 1364 347 l 1101 125 q 1001 87 1058 87 l 697 87 q 669 99 681 87 q 656 130 656 111 q 669 161 656 149 q 697 174 681 174 l 898 174 q 952 194 928 174 q 982 247 977 214 q 964 316 990 285 q 901 347 939 347 l 491 347 q 301 277 385 347 l 184 174 l 41 174 q 12 161 24 174 q 0 130 0 149 l 0 -130 q 12 -161 0 -149 q 41 -174 24 -174 l 955 -174 q 1058 -136 1012 -174 l 1446 193 q 1474 258 1473 217 q 1449 326 1476 298 z "},"":{"ha":1563,"x_min":-3,"x_max":1565,"o":"m 1533 326 q 1477 347 1511 347 q 1419 326 1443 347 l 1166 125 q 1058 87 1120 87 l 738 87 q 707 99 719 87 q 694 130 694 111 q 707 161 694 149 q 738 174 719 174 l 949 174 q 1009 194 982 174 q 1042 247 1036 214 q 1021 316 1047 285 q 955 347 996 347 l 521 347 q 320 277 407 347 l 193 174 l 43 174 q 12 161 24 174 q 0 130 0 149 l 0 -130 q 12 -161 0 -149 q 43 -174 24 -174 l 1012 -174 q 1120 -136 1072 -174 l 1530 193 q 1564 258 1563 217 q 1533 326 1565 298 z "},"":{"ha":1563,"x_min":0,"x_max":1565,"o":"m 1042 -87 l 1563 -87 l 1563 228 q 1522 366 1563 304 l 1080 1069 q 1034 1112 1063 1096 q 971 1128 1004 1128 l 65 1128 q 19 1109 38 1128 q 0 1063 0 1090 l 0 1020 q 45 913 0 958 q 152 868 90 868 l 776 868 q 817 846 803 868 q 822 800 830 825 l 762 662 q 730 623 751 637 q 684 608 708 608 l 347 608 q 224 557 274 608 q 174 434 174 507 l 174 412 q 193 366 174 385 q 239 347 212 347 l 637 347 q 708 328 675 347 l 1012 136 q 1042 79 1042 117 l 1042 -87 z "},"":{"ha":1215,"x_min":-8,"x_max":1215,"o":"m 1109 868 q 1031 836 1063 868 q 998 757 998 803 l 998 521 l 977 521 l 977 998 q 944 1077 977 1044 q 867 1109 911 1109 q 791 1077 822 1109 q 760 1001 760 1044 l 760 521 l 738 521 l 738 1104 q 705 1183 738 1150 q 628 1215 673 1215 q 552 1183 583 1215 q 521 1107 521 1150 l 521 521 l 499 521 l 499 996 q 467 1074 499 1042 q 389 1107 434 1107 q 313 1074 345 1107 q 282 998 282 1042 l 282 358 l 195 477 q 126 519 171 513 q 45 500 81 526 q 1 430 8 475 q 22 347 -5 385 l 361 -119 q 408 -160 380 -146 q 467 -174 437 -174 l 1004 -174 q 1084 -145 1047 -174 q 1128 -73 1120 -117 l 1202 233 q 1215 353 1215 290 l 1215 760 q 1184 836 1215 803 q 1109 868 1153 868 z "},"":{"ha":1215,"x_min":-11,"x_max":1218,"o":"m 1107 629 q 1029 598 1061 629 q 998 521 998 567 l 977 521 l 977 608 q 945 685 977 654 q 868 716 914 716 q 791 685 822 716 q 760 608 760 654 l 760 521 l 738 521 l 738 1085 q 700 1177 738 1139 q 608 1215 662 1215 q 515 1177 553 1215 q 477 1085 477 1139 l 477 521 l 439 521 l 252 1004 q 182 1074 231 1053 q 83 1076 133 1096 q 11 1006 33 1055 q 8 906 -11 958 l 212 391 l 127 323 q 88 259 95 298 q 100 184 81 220 l 274 -119 q 315 -159 290 -144 q 369 -174 339 -174 l 1020 -174 q 1088 -151 1058 -174 q 1126 -90 1118 -127 l 1213 279 q 1215 304 1215 290 l 1215 521 q 1184 598 1215 567 q 1107 629 1153 629 z "},"":{"ha":1042,"x_min":-3,"x_max":1044,"o":"m 250 -52 l 250 353 q 182 315 214 328 q 96 308 138 296 q 27 354 54 320 q 0 434 0 388 q 79 543 0 510 q 198 670 130 564 q 288 836 252 751 q 336 891 304 871 q 407 911 369 911 l 873 911 q 916 895 898 911 q 936 857 933 879 q 958 787 944 822 q 985 727 966 765 q 1023 640 1015 673 q 1042 521 1042 586 l 1042 477 q 993 316 1042 369 q 849 279 944 263 q 776 225 827 241 q 678 236 724 209 q 581 186 637 187 q 486 220 524 184 l 486 -52 q 450 -137 486 -100 q 368 -174 415 -174 q 285 -137 320 -174 q 250 -52 250 -100 m 304 1020 l 304 1150 q 323 1196 304 1177 q 369 1215 342 1215 l 890 1215 q 936 1196 917 1215 q 955 1150 955 1177 l 955 1020 q 936 974 955 993 q 890 955 917 955 l 369 955 q 323 974 342 955 q 304 1020 304 993 m 879 1085 q 863 1123 879 1107 q 825 1139 846 1139 q 787 1123 803 1139 q 770 1085 770 1107 q 787 1047 770 1063 q 825 1031 803 1031 q 863 1047 846 1031 q 879 1085 879 1063 z "},"":{"ha":1389,"x_min":-3,"x_max":1392,"o":"m 122 792 l 526 792 q 488 860 502 827 q 481 945 469 903 q 528 1015 494 987 q 608 1042 562 1042 q 716 963 684 1042 q 844 844 738 911 q 1009 754 925 789 q 1065 705 1044 738 q 1085 635 1085 673 l 1085 168 q 1069 126 1085 144 q 1031 106 1053 109 q 960 84 996 98 q 901 57 939 76 q 814 19 846 27 q 694 0 760 0 l 651 0 q 490 49 543 0 q 453 193 437 98 q 399 266 415 214 q 410 363 382 317 q 359 461 361 404 q 393 556 358 518 l 122 556 q 37 591 73 556 q 0 674 0 627 q 37 757 0 722 q 122 792 73 792 m 1194 738 l 1324 738 q 1370 719 1351 738 q 1389 673 1389 700 l 1389 152 q 1370 106 1389 125 q 1324 87 1351 87 l 1194 87 q 1147 106 1166 87 q 1128 152 1128 125 l 1128 673 q 1147 719 1128 700 q 1194 738 1166 738 m 1259 163 q 1297 179 1280 163 q 1313 217 1313 195 q 1297 255 1313 239 q 1259 271 1280 271 q 1221 255 1237 271 q 1204 217 1204 239 q 1221 179 1204 195 q 1259 163 1237 163 z "},"":{"ha":1389,"x_min":0,"x_max":1392,"o":"m 1389 673 q 1352 591 1389 627 q 1267 556 1316 556 l 996 556 q 1029 461 1031 518 q 979 363 1028 404 q 990 266 1006 317 q 936 193 974 214 q 899 49 952 98 q 738 0 846 0 l 694 0 q 575 19 629 0 q 488 57 543 27 q 429 84 450 76 q 358 106 393 98 q 320 126 336 109 q 304 168 304 144 l 304 635 q 324 705 304 673 q 380 754 345 738 q 545 844 464 789 q 673 963 651 911 q 781 1042 705 1042 q 861 1015 827 1042 q 907 945 895 987 q 901 860 920 903 q 863 792 887 827 l 1267 792 q 1352 757 1316 792 q 1389 673 1389 722 m 260 673 l 260 152 q 241 106 260 125 q 195 87 222 87 l 65 87 q 19 106 38 87 q 0 152 0 125 l 0 673 q 19 719 0 700 q 65 738 38 738 l 195 738 q 241 719 222 738 q 260 673 260 700 m 184 217 q 168 255 184 239 q 130 271 152 271 q 92 255 109 271 q 76 217 76 239 q 92 179 76 195 q 130 163 109 163 q 168 179 152 163 q 184 217 184 195 z "},"":{"ha":1042,"x_min":-3,"x_max":1044,"o":"m 369 1215 q 450 1179 415 1215 q 486 1093 486 1142 l 486 822 q 581 856 524 857 q 678 806 637 854 q 776 817 724 833 q 849 762 827 800 q 993 726 944 779 q 1042 564 1042 673 l 1042 521 q 1023 401 1042 456 q 985 315 1015 369 q 958 255 966 277 q 936 184 944 220 q 916 146 933 163 q 873 130 898 130 l 407 130 q 336 151 369 130 q 288 206 304 171 q 198 372 252 290 q 79 499 130 477 q 0 608 0 532 q 27 688 0 654 q 96 734 54 722 q 182 727 138 746 q 250 689 214 713 l 250 1093 q 285 1179 250 1142 q 369 1215 320 1215 m 369 87 l 890 87 q 936 68 917 87 q 955 22 955 49 l 955 -109 q 936 -155 955 -136 q 890 -174 917 -174 l 369 -174 q 323 -155 342 -174 q 304 -109 304 -136 l 304 22 q 323 68 304 49 q 369 87 342 87 m 825 11 q 787 -5 803 11 q 770 -43 770 -22 q 787 -81 770 -65 q 825 -98 803 -98 q 863 -81 846 -98 q 879 -43 879 -65 q 863 -5 879 -22 q 825 11 846 11 z "},"":{"ha":1215,"x_min":-8,"x_max":1218,"o":"m 1215 564 l 1215 304 q 1213 279 1215 290 l 1126 -90 q 1088 -151 1118 -127 q 1020 -174 1058 -174 l 456 -174 q 369 -130 401 -174 l 22 347 q 1 430 -5 385 q 45 500 8 475 q 126 519 81 526 q 195 477 171 513 l 282 358 l 282 1107 q 313 1184 282 1153 q 391 1215 345 1215 q 468 1184 437 1215 q 499 1107 499 1153 l 499 564 l 521 564 l 521 673 q 552 750 521 719 q 629 781 583 781 q 707 750 675 781 q 738 673 738 719 l 738 564 l 760 564 l 760 629 q 791 707 760 675 q 868 738 822 738 q 945 707 914 738 q 977 629 977 675 l 977 564 l 998 564 q 1029 642 998 610 q 1107 673 1061 673 q 1184 642 1153 673 q 1215 564 1215 610 m 521 347 l 499 347 l 499 87 l 521 87 l 521 347 m 760 347 l 738 347 l 738 87 l 760 87 l 760 347 m 998 347 l 977 347 l 977 87 l 998 87 l 998 347 z "},"":{"ha":1389,"x_min":-3,"x_max":1392,"o":"m 1389 865 q 1351 959 1389 920 q 1260 998 1313 998 q 1168 960 1207 998 q 1128 868 1128 922 l 1107 868 l 1107 952 q 1069 1046 1107 1006 q 978 1085 1031 1085 q 886 1047 925 1085 q 846 955 846 1009 l 846 868 l 825 868 l 825 996 q 787 1089 825 1050 q 696 1128 749 1128 q 604 1090 643 1128 q 564 998 564 1053 l 564 868 l 543 868 l 543 952 q 505 1046 543 1006 q 414 1085 467 1085 q 321 1047 361 1085 q 282 955 282 1009 l 282 586 l 260 605 l 260 735 q 222 829 260 789 q 132 868 184 868 q 39 830 79 868 q 0 738 0 792 l 0 559 q 23 450 0 502 q 87 363 46 399 l 391 95 q 434 -3 434 54 l 434 -22 q 453 -68 434 -49 q 499 -87 472 -87 l 1150 -87 q 1196 -68 1177 -87 q 1215 -22 1215 -49 l 1215 -14 q 1237 87 1215 38 l 1367 401 q 1389 505 1389 450 l 1389 865 z "},"":{"ha":1389,"x_min":0,"x_max":1392,"o":"m 586 22 q 617 99 586 68 q 694 130 648 130 l 694 152 l 608 152 q 530 183 562 152 q 499 260 499 214 q 530 338 499 307 q 608 369 562 369 l 694 369 l 694 391 l 130 391 q 38 429 76 391 q 0 521 0 467 q 38 613 0 575 q 130 651 76 651 l 694 651 l 694 689 l 212 876 q 141 947 163 898 q 140 1046 119 996 q 209 1118 160 1096 q 309 1120 258 1139 l 825 917 l 892 1001 q 956 1040 917 1034 q 1031 1028 996 1047 l 1335 854 q 1374 814 1359 838 q 1389 760 1389 789 l 1389 109 q 1366 41 1389 71 q 1305 3 1343 11 l 936 -84 q 911 -87 925 -87 l 694 -87 q 617 -56 648 -87 q 586 22 586 -24 z "},"":{"ha":1389,"x_min":-3,"x_max":1397,"o":"m 30 355 q 104 389 60 388 q 182 361 149 391 l 347 206 l 347 423 l 241 887 q 255 968 231 930 q 323 1017 279 1006 q 404 1004 366 1028 q 453 936 442 979 l 548 521 l 575 521 l 445 1082 q 458 1164 434 1126 q 526 1213 483 1202 q 608 1199 570 1223 q 656 1131 646 1175 l 798 521 l 838 521 l 968 1047 q 1019 1114 979 1090 q 1101 1126 1058 1137 q 1168 1076 1145 1115 q 1180 993 1191 1036 l 1061 521 l 1090 521 l 1175 871 q 1223 939 1185 914 q 1305 952 1261 963 q 1373 903 1348 941 q 1386 822 1397 865 l 1289 407 q 1280 347 1280 377 l 1280 233 q 1270 160 1280 195 l 1199 -81 q 1152 -148 1185 -122 q 1074 -174 1118 -174 l 486 -174 q 396 -138 434 -174 l 35 203 q 1 278 3 233 q 30 355 0 323 z "},"":{"ha":1736,"x_min":-8,"x_max":1744,"o":"m 1324 694 l 911 694 l 911 543 q 854 404 911 461 q 716 347 798 347 q 578 404 635 347 q 521 543 521 461 l 521 873 l 345 768 q 283 704 307 743 q 260 618 260 665 l 260 491 l 43 363 q 4 312 14 347 q 11 247 -5 277 l 228 -130 q 282 -170 247 -160 q 347 -163 317 -179 l 627 0 l 998 0 q 1120 52 1069 0 q 1172 174 1172 103 l 1215 174 q 1276 199 1251 174 q 1302 260 1302 225 l 1302 434 l 1324 434 q 1370 453 1351 434 q 1389 499 1389 472 l 1389 629 q 1370 675 1389 656 q 1324 694 1351 694 m 1725 795 l 1508 1172 q 1454 1211 1489 1202 q 1389 1204 1419 1221 l 1109 1042 l 830 1042 q 738 1015 781 1042 l 648 958 q 608 884 608 933 l 608 543 q 639 465 608 496 q 716 434 670 434 q 793 465 762 434 q 825 543 825 496 l 825 781 l 1324 781 q 1431 736 1386 781 q 1476 629 1476 692 l 1476 553 l 1693 678 q 1732 730 1723 694 q 1725 795 1742 765 z "},"":{"ha":1736,"x_min":0,"x_max":1736,"o":"m 556 591 q 499 624 534 618 q 434 608 464 629 q 400 551 404 586 q 418 486 396 515 l 521 347 q 528 320 529 336 q 515 293 526 304 l 480 258 q 448 244 467 244 q 418 260 429 244 l 174 553 l 174 955 q 148 1016 174 990 q 87 1042 122 1042 q 26 1016 52 1042 q 0 955 0 990 l 0 363 q 30 282 0 317 l 312 -84 q 339 -141 331 -109 q 354 -165 342 -157 q 380 -174 366 -174 l 738 -174 q 769 -161 757 -174 q 781 -130 781 -149 l 781 174 q 711 382 781 290 l 556 591 m 1649 1042 q 1588 1016 1614 1042 q 1563 955 1563 990 l 1563 553 l 1318 260 q 1289 244 1308 244 q 1256 258 1270 244 l 1221 293 q 1208 320 1210 304 q 1215 347 1207 336 l 1318 486 q 1336 551 1340 515 q 1302 608 1332 586 q 1237 624 1272 629 q 1180 591 1202 618 l 1025 382 q 955 174 955 290 l 955 -130 q 967 -161 955 -149 q 998 -174 979 -174 l 1356 -174 q 1382 -165 1370 -174 q 1397 -141 1394 -157 q 1424 -84 1405 -109 l 1709 282 q 1736 363 1736 317 l 1736 955 q 1710 1016 1736 990 q 1649 1042 1685 1042 z "},"":{"ha":1736,"x_min":0,"x_max":1736,"o":"m 1180 1042 l 947 1042 q 887 1020 911 1042 l 621 773 q 586 699 586 743 q 613 623 586 654 q 686 589 640 591 q 768 613 732 586 l 985 814 q 1016 825 998 825 q 1046 811 1034 825 q 1057 780 1058 798 q 1042 749 1055 762 l 971 684 l 1367 363 q 1389 345 1378 355 l 1389 868 l 1240 1017 q 1180 1042 1215 1042 m 1476 868 l 1476 260 q 1501 199 1476 225 q 1563 174 1527 174 l 1736 174 l 1736 868 l 1476 868 m 1606 260 q 1575 273 1587 260 q 1563 304 1563 285 q 1575 335 1563 323 q 1606 347 1587 347 q 1637 335 1625 347 q 1649 304 1649 323 q 1637 273 1649 285 q 1606 260 1625 260 m 0 174 l 174 174 q 235 199 209 174 q 260 260 260 225 l 260 868 l 0 868 l 0 174 m 130 347 q 161 335 149 347 q 174 304 174 323 q 161 273 174 285 q 130 260 149 260 q 99 273 111 260 q 87 304 87 285 q 99 335 87 323 q 130 347 111 347 m 1313 296 l 909 627 l 827 551 q 685 500 765 496 q 551 563 605 505 q 499 703 496 621 q 562 838 502 784 l 784 1042 l 556 1042 q 496 1017 521 1042 l 347 868 l 347 260 l 396 260 l 643 38 q 769 0 697 -8 q 887 65 841 8 l 936 22 q 1010 0 968 -5 q 1077 38 1053 5 l 1164 141 l 1177 130 q 1241 110 1204 106 q 1299 144 1278 114 l 1324 174 q 1344 239 1348 203 q 1313 296 1340 274 z "},"":{"ha":1215,"x_min":-3,"x_max":1218,"o":"m 1196 722 l 1215 830 q 1208 856 1218 844 q 1183 868 1199 868 l 979 868 l 1020 1090 q 1013 1116 1023 1104 q 987 1128 1004 1128 l 876 1128 q 856 1120 865 1128 q 846 1101 846 1112 l 803 868 l 537 868 l 575 1090 q 568 1116 578 1104 q 543 1128 559 1128 l 434 1128 q 412 1120 420 1128 q 401 1101 404 1112 l 361 868 l 144 868 q 123 860 133 868 q 114 841 114 852 l 92 732 q 100 707 90 719 q 125 694 111 694 l 328 694 l 266 347 l 52 347 q 31 339 41 347 q 19 320 22 331 l 0 212 q 7 186 -3 198 q 33 174 16 174 l 236 174 l 195 -49 q 202 -75 193 -62 q 228 -87 212 -87 l 339 -87 q 359 -79 350 -87 q 369 -60 369 -71 l 412 174 l 678 174 l 640 -49 q 647 -75 637 -62 q 673 -87 656 -87 l 781 -87 q 803 -79 795 -87 q 814 -60 811 -71 l 854 174 l 1072 174 q 1092 182 1082 174 q 1101 201 1101 190 l 1123 309 q 1115 335 1126 323 q 1090 347 1104 347 l 887 347 l 949 694 l 1164 694 q 1184 703 1175 694 q 1196 722 1194 711 m 711 347 l 442 347 l 505 694 l 773 694 l 711 347 z "},"":{"ha":1563,"x_min":0,"x_max":1563,"o":"m 1563 391 l 1563 130 q 1525 38 1563 76 q 1432 0 1487 0 l 130 0 q 38 38 76 0 q 0 130 0 76 l 0 391 q 38 483 0 445 q 130 521 76 521 l 1432 521 q 1525 483 1487 521 q 1563 391 1563 445 m 1432 608 q 1516 591 1476 608 l 1253 985 q 1207 1027 1237 1012 q 1145 1042 1177 1042 l 418 1042 q 355 1027 385 1042 q 309 985 326 1012 l 46 591 q 130 608 87 608 l 1432 608 m 1302 347 q 1241 321 1267 347 q 1215 260 1215 296 q 1241 199 1215 225 q 1302 174 1267 174 q 1363 199 1337 174 q 1389 260 1389 225 q 1363 321 1389 296 q 1302 347 1337 347 m 1042 347 q 981 321 1006 347 q 955 260 955 296 q 981 199 955 225 q 1042 174 1006 174 q 1103 199 1077 174 q 1128 260 1128 225 q 1103 321 1128 296 q 1042 347 1077 347 z "},"":{"ha":1389,"x_min":0,"x_max":1345,"o":"m 1345 998 l 1345 1085 q 1333 1116 1345 1104 q 1302 1128 1321 1128 l 868 1128 q 837 1116 849 1128 q 825 1085 825 1104 l 825 998 q 837 967 825 979 q 868 955 849 955 l 971 955 l 971 608 l 418 608 l 418 955 l 521 955 q 552 967 540 955 q 564 998 564 979 l 564 1085 q 552 1116 564 1104 q 521 1128 540 1128 l 87 1128 q 56 1116 68 1128 q 43 1085 43 1104 l 43 998 q 56 967 43 979 q 87 955 68 955 l 187 955 l 187 87 l 87 87 q 56 75 68 87 q 43 43 43 62 l 43 -43 q 56 -75 43 -62 q 87 -87 68 -87 l 521 -87 q 552 -75 540 -87 q 564 -43 564 -62 l 564 43 q 552 75 564 62 q 521 87 540 87 l 418 87 l 418 434 l 971 434 l 971 87 l 868 87 q 837 75 849 87 q 825 43 825 62 l 825 -43 q 837 -75 825 -62 q 868 -87 849 -87 l 1302 -87 q 1333 -75 1321 -87 q 1345 -43 1345 -62 l 1345 43 q 1333 75 1345 62 q 1302 87 1321 87 l 1202 87 l 1202 955 l 1302 955 q 1333 967 1321 955 q 1345 998 1345 979 z "},"":{"ha":1389,"x_min":-3,"x_max":1389,"o":"m 694 1128 q 346 1035 505 1128 q 94 783 187 941 q 0 434 0 624 l 0 304 q 14 258 0 279 q 49 225 27 236 l 87 206 q 180 -1 92 84 q 391 -87 269 -87 l 456 -87 q 502 -68 483 -87 q 521 -22 521 -49 l 521 456 q 502 502 521 483 q 456 521 483 521 l 391 521 q 273 496 328 521 q 174 429 217 472 l 174 434 q 244 694 174 575 q 434 884 315 814 q 694 955 553 955 q 955 884 836 955 q 1145 694 1074 814 q 1215 434 1215 575 l 1215 429 q 1116 496 1172 472 q 998 521 1061 521 l 933 521 q 887 502 906 521 q 868 456 868 483 l 868 -22 q 887 -68 868 -49 q 933 -87 906 -87 l 998 -87 q 1208 -1 1120 -87 q 1302 206 1297 84 l 1340 225 q 1375 258 1362 236 q 1389 304 1389 279 l 1389 434 q 1295 783 1389 624 q 1043 1035 1202 941 q 694 1128 884 1128 z "},"":{"ha":1389,"x_min":-16,"x_max":1405,"o":"m 1253 1044 q 1088 1123 1180 1107 q 906 1109 996 1139 q 749 1009 817 1080 l 694 955 l 640 1009 q 483 1109 572 1080 q 301 1123 393 1139 q 136 1044 209 1107 q 19 871 52 974 q 9 663 -14 768 q 109 480 33 559 l 632 -60 q 694 -87 659 -87 q 757 -60 730 -87 l 1280 483 q 1379 663 1356 559 q 1370 871 1402 768 q 1253 1044 1337 974 z "},"":{"ha":1389,"x_min":-11,"x_max":1400,"o":"m 868 553 l 735 285 q 694 260 722 260 q 656 285 667 260 l 502 629 l 420 434 l 165 434 l 659 -71 q 693 -87 673 -87 q 730 -71 713 -87 l 1223 434 l 928 434 l 868 553 m 1286 1015 l 1278 1023 q 1118 1116 1210 1090 q 932 1116 1025 1142 q 770 1023 838 1090 l 694 944 l 618 1023 q 457 1116 551 1090 q 271 1116 363 1142 q 111 1023 179 1090 l 103 1015 q 14 861 38 949 q 8 682 -11 773 q 84 521 27 591 l 361 521 l 458 754 q 498 781 469 781 q 540 757 526 781 l 697 404 l 830 670 q 868 694 841 694 q 909 670 895 694 l 982 521 l 1305 521 q 1381 682 1362 591 q 1375 861 1400 773 q 1286 1015 1351 949 z "},"":{"ha":1389,"x_min":0,"x_max":1370,"o":"m 1367 521 q 1276 184 1367 339 q 1031 -61 1185 30 q 694 -152 876 -152 q 469 -113 578 -152 q 271 -3 361 -73 q 248 45 250 16 q 269 95 247 73 l 298 125 q 340 142 315 141 q 385 130 366 144 q 694 22 521 22 q 945 88 830 22 q 1127 270 1061 155 q 1194 521 1194 385 q 1127 772 1194 656 q 945 954 1061 887 q 694 1020 830 1020 q 509 985 597 1020 q 353 884 420 949 l 491 746 q 499 700 510 727 q 458 673 488 673 l 65 673 q 34 685 46 673 q 22 716 22 697 l 22 1109 q 49 1150 22 1139 q 95 1142 76 1161 l 231 1006 q 442 1145 323 1096 q 694 1194 562 1194 q 1031 1103 876 1194 q 1276 859 1185 1012 q 1367 521 1367 705 m 876 309 l 903 342 q 917 391 920 363 q 892 434 914 418 l 781 521 l 781 803 q 762 849 781 830 q 716 868 743 868 l 673 868 q 627 849 646 868 q 608 803 608 830 l 608 434 l 784 296 q 833 283 806 279 q 876 309 860 288 z "}}}
